G04 #@! TF.GenerationSoftware,KiCad,Pcbnew,5.0.2+dfsg1-1*
G04 #@! TF.CreationDate,2019-08-29T13:15:50-03:00*
G04 #@! TF.ProjectId,Placa_lcd_cont_geiger,506c6163-615f-46c6-9364-5f636f6e745f,rev?*
G04 #@! TF.SameCoordinates,Original*
G04 #@! TF.FileFunction,Copper,L2,Bot*
G04 #@! TF.FilePolarity,Positive*
%FSLAX46Y46*%
G04 Gerber Fmt 4.6, Leading zero omitted, Abs format (unit mm)*
G04 Created by KiCad (PCBNEW 5.0.2+dfsg1-1) date jue 29 ago 2019 13:15:50 -03*
%MOMM*%
%LPD*%
G01*
G04 APERTURE LIST*
G04 #@! TA.AperFunction,ComponentPad*
%ADD10R,1.500000X1.050000*%
G04 #@! TD*
G04 #@! TA.AperFunction,ComponentPad*
%ADD11O,1.500000X1.050000*%
G04 #@! TD*
G04 #@! TA.AperFunction,ComponentPad*
%ADD12C,1.440000*%
G04 #@! TD*
G04 #@! TA.AperFunction,ComponentPad*
%ADD13O,1.727200X2.032000*%
G04 #@! TD*
G04 #@! TA.AperFunction,ComponentPad*
%ADD14R,2.000000X2.000000*%
G04 #@! TD*
G04 #@! TA.AperFunction,ComponentPad*
%ADD15C,2.000000*%
G04 #@! TD*
G04 #@! TA.AperFunction,ComponentPad*
%ADD16C,1.600000*%
G04 #@! TD*
G04 #@! TA.AperFunction,ComponentPad*
%ADD17O,1.600000X1.600000*%
G04 #@! TD*
G04 #@! TA.AperFunction,Conductor*
%ADD18C,0.100000*%
G04 #@! TD*
G04 #@! TA.AperFunction,ComponentPad*
%ADD19C,3.700000*%
G04 #@! TD*
G04 #@! TA.AperFunction,ComponentPad*
%ADD20R,1.727200X1.727200*%
G04 #@! TD*
G04 #@! TA.AperFunction,ComponentPad*
%ADD21O,1.727200X1.727200*%
G04 #@! TD*
G04 #@! TA.AperFunction,ComponentPad*
%ADD22O,1.050000X1.500000*%
G04 #@! TD*
G04 #@! TA.AperFunction,ComponentPad*
%ADD23R,1.050000X1.500000*%
G04 #@! TD*
G04 #@! TA.AperFunction,ComponentPad*
%ADD24R,2.000000X2.600000*%
G04 #@! TD*
G04 #@! TA.AperFunction,ComponentPad*
%ADD25O,2.000000X2.600000*%
G04 #@! TD*
G04 #@! TA.AperFunction,ViaPad*
%ADD26C,1.524000*%
G04 #@! TD*
G04 #@! TA.AperFunction,Conductor*
%ADD27C,1.270000*%
G04 #@! TD*
G04 #@! TA.AperFunction,Conductor*
%ADD28C,1.016000*%
G04 #@! TD*
G04 #@! TA.AperFunction,Conductor*
%ADD29C,0.254000*%
G04 #@! TD*
G04 APERTURE END LIST*
D10*
G04 #@! TO.P,Q2,1*
G04 #@! TO.N,Net-(J3-Pad1)*
X174244000Y-103251000D03*
D11*
G04 #@! TO.P,Q2,3*
G04 #@! TO.N,GND*
X174244000Y-105791000D03*
G04 #@! TO.P,Q2,2*
G04 #@! TO.N,Net-(Q2-Pad2)*
X174244000Y-104521000D03*
G04 #@! TD*
D12*
G04 #@! TO.P,RV2,1*
G04 #@! TO.N,VCC*
X156718000Y-98933000D03*
G04 #@! TO.P,RV2,2*
G04 #@! TO.N,Net-(J2-Pad10)*
X161798000Y-96393000D03*
G04 #@! TO.P,RV2,3*
G04 #@! TO.N,GND*
X156718000Y-93853000D03*
G04 #@! TD*
D13*
G04 #@! TO.P,P1,1*
G04 #@! TO.N,Net-(P1-Pad1)*
X138938000Y-123825000D03*
G04 #@! TO.P,P1,2*
G04 #@! TO.N,/IOREF*
X141478000Y-123825000D03*
G04 #@! TO.P,P1,3*
G04 #@! TO.N,/Reset*
X144018000Y-123825000D03*
G04 #@! TO.P,P1,4*
G04 #@! TO.N,+3V3*
X146558000Y-123825000D03*
G04 #@! TO.P,P1,5*
G04 #@! TO.N,VCC*
X149098000Y-123825000D03*
G04 #@! TO.P,P1,6*
G04 #@! TO.N,GND*
X151638000Y-123825000D03*
G04 #@! TO.P,P1,7*
X154178000Y-123825000D03*
G04 #@! TO.P,P1,8*
G04 #@! TO.N,/Vin*
X156718000Y-123825000D03*
G04 #@! TD*
G04 #@! TO.P,P2,1*
G04 #@! TO.N,/A0*
X161798000Y-123825000D03*
G04 #@! TO.P,P2,2*
G04 #@! TO.N,/A1*
X164338000Y-123825000D03*
G04 #@! TO.P,P2,3*
G04 #@! TO.N,/A2*
X166878000Y-123825000D03*
G04 #@! TO.P,P2,4*
G04 #@! TO.N,/A3*
X169418000Y-123825000D03*
G04 #@! TO.P,P2,5*
G04 #@! TO.N,/A4*
X171958000Y-123825000D03*
G04 #@! TO.P,P2,6*
G04 #@! TO.N,/A5*
X174498000Y-123825000D03*
G04 #@! TD*
G04 #@! TO.P,P3,1*
G04 #@! TO.N,/A5(SCL)*
X129794000Y-75565000D03*
G04 #@! TO.P,P3,2*
G04 #@! TO.N,/A4(SDA)*
X132334000Y-75565000D03*
G04 #@! TO.P,P3,3*
G04 #@! TO.N,/AREF*
X134874000Y-75565000D03*
G04 #@! TO.P,P3,4*
G04 #@! TO.N,GND*
X137414000Y-75565000D03*
G04 #@! TO.P,P3,5*
G04 #@! TO.N,/13(SCK)*
X139954000Y-75565000D03*
G04 #@! TO.P,P3,6*
G04 #@! TO.N,/12(MISO)*
X142494000Y-75565000D03*
G04 #@! TO.P,P3,7*
G04 #@! TO.N,/11(\002A\002A/MOSI)*
X145034000Y-75565000D03*
G04 #@! TO.P,P3,8*
G04 #@! TO.N,/10(\002A\002A/SS)*
X147574000Y-75565000D03*
G04 #@! TO.P,P3,9*
G04 #@! TO.N,/9(\002A\002A)*
X150114000Y-75565000D03*
G04 #@! TO.P,P3,10*
G04 #@! TO.N,/8*
X152654000Y-75565000D03*
G04 #@! TD*
G04 #@! TO.P,P4,1*
G04 #@! TO.N,/7*
X156718000Y-75565000D03*
G04 #@! TO.P,P4,2*
G04 #@! TO.N,/6(\002A\002A)*
X159258000Y-75565000D03*
G04 #@! TO.P,P4,3*
G04 #@! TO.N,/5(\002A\002A)*
X161798000Y-75565000D03*
G04 #@! TO.P,P4,4*
G04 #@! TO.N,/4*
X164338000Y-75565000D03*
G04 #@! TO.P,P4,5*
G04 #@! TO.N,/3(\002A\002A)*
X166878000Y-75565000D03*
G04 #@! TO.P,P4,6*
G04 #@! TO.N,/2*
X169418000Y-75565000D03*
G04 #@! TO.P,P4,7*
G04 #@! TO.N,/1(Tx)*
X171958000Y-75565000D03*
G04 #@! TO.P,P4,8*
G04 #@! TO.N,/0(Rx)*
X174498000Y-75565000D03*
G04 #@! TD*
D14*
G04 #@! TO.P,BZ1,1*
G04 #@! TO.N,Net-(BZ1-Pad1)*
X120650000Y-116459000D03*
D15*
G04 #@! TO.P,BZ1,2*
G04 #@! TO.N,Net-(BZ1-Pad2)*
X128250000Y-116459000D03*
G04 #@! TD*
D16*
G04 #@! TO.P,C1,1*
G04 #@! TO.N,/A0*
X159512000Y-108077000D03*
D17*
G04 #@! TO.P,C1,2*
G04 #@! TO.N,GND*
X152012000Y-108077000D03*
G04 #@! TD*
D18*
G04 #@! TO.N,Net-(J1-Pad1)*
G04 #@! TO.C,J1*
G36*
X122274503Y-98608204D02*
X122298772Y-98611804D01*
X122322570Y-98617765D01*
X122345670Y-98626030D01*
X122367849Y-98636520D01*
X122388892Y-98649133D01*
X122408598Y-98663748D01*
X122426776Y-98680224D01*
X122443252Y-98698402D01*
X122457867Y-98718108D01*
X122470480Y-98739151D01*
X122480970Y-98761330D01*
X122489235Y-98784430D01*
X122495196Y-98808228D01*
X122498796Y-98832497D01*
X122500000Y-98857001D01*
X122500000Y-102056999D01*
X122498796Y-102081503D01*
X122495196Y-102105772D01*
X122489235Y-102129570D01*
X122480970Y-102152670D01*
X122470480Y-102174849D01*
X122457867Y-102195892D01*
X122443252Y-102215598D01*
X122426776Y-102233776D01*
X122408598Y-102250252D01*
X122388892Y-102264867D01*
X122367849Y-102277480D01*
X122345670Y-102287970D01*
X122322570Y-102296235D01*
X122298772Y-102302196D01*
X122274503Y-102305796D01*
X122249999Y-102307000D01*
X119050001Y-102307000D01*
X119025497Y-102305796D01*
X119001228Y-102302196D01*
X118977430Y-102296235D01*
X118954330Y-102287970D01*
X118932151Y-102277480D01*
X118911108Y-102264867D01*
X118891402Y-102250252D01*
X118873224Y-102233776D01*
X118856748Y-102215598D01*
X118842133Y-102195892D01*
X118829520Y-102174849D01*
X118819030Y-102152670D01*
X118810765Y-102129570D01*
X118804804Y-102105772D01*
X118801204Y-102081503D01*
X118800000Y-102056999D01*
X118800000Y-98857001D01*
X118801204Y-98832497D01*
X118804804Y-98808228D01*
X118810765Y-98784430D01*
X118819030Y-98761330D01*
X118829520Y-98739151D01*
X118842133Y-98718108D01*
X118856748Y-98698402D01*
X118873224Y-98680224D01*
X118891402Y-98663748D01*
X118911108Y-98649133D01*
X118932151Y-98636520D01*
X118954330Y-98626030D01*
X118977430Y-98617765D01*
X119001228Y-98611804D01*
X119025497Y-98608204D01*
X119050001Y-98607000D01*
X122249999Y-98607000D01*
X122274503Y-98608204D01*
X122274503Y-98608204D01*
G37*
D19*
G04 #@! TD*
G04 #@! TO.P,J1,1*
G04 #@! TO.N,Net-(J1-Pad1)*
X120650000Y-100457000D03*
G04 #@! TO.P,J1,2*
G04 #@! TO.N,Net-(J1-Pad2)*
X120650000Y-94757000D03*
G04 #@! TO.P,J1,3*
G04 #@! TO.N,Net-(J1-Pad3)*
X120650000Y-89057000D03*
G04 #@! TO.P,J1,4*
G04 #@! TO.N,GND*
X120650000Y-83357000D03*
G04 #@! TO.P,J1,5*
G04 #@! TO.N,VCC*
X126150000Y-100457000D03*
G04 #@! TO.P,J1,6*
G04 #@! TO.N,Net-(J1-Pad6)*
X126150000Y-94757000D03*
G04 #@! TO.P,J1,7*
G04 #@! TO.N,/12(MISO)*
X126150000Y-89057000D03*
G04 #@! TO.P,J1,8*
G04 #@! TO.N,/8*
X126150000Y-83357000D03*
G04 #@! TD*
D20*
G04 #@! TO.P,J2,1*
G04 #@! TO.N,Net-(J2-Pad1)*
X171958000Y-84455000D03*
D21*
G04 #@! TO.P,J2,2*
G04 #@! TO.N,Net-(J2-Pad2)*
X171958000Y-86995000D03*
G04 #@! TO.P,J2,3*
G04 #@! TO.N,/2*
X169418000Y-84455000D03*
G04 #@! TO.P,J2,4*
G04 #@! TO.N,Net-(J2-Pad4)*
X169418000Y-86995000D03*
G04 #@! TO.P,J2,5*
G04 #@! TO.N,/3(\002A\002A)*
X166878000Y-84455000D03*
G04 #@! TO.P,J2,6*
G04 #@! TO.N,Net-(J2-Pad6)*
X166878000Y-86995000D03*
G04 #@! TO.P,J2,7*
G04 #@! TO.N,/4*
X164338000Y-84455000D03*
G04 #@! TO.P,J2,8*
G04 #@! TO.N,Net-(J2-Pad8)*
X164338000Y-86995000D03*
G04 #@! TO.P,J2,9*
G04 #@! TO.N,/5(\002A\002A)*
X161798000Y-84455000D03*
G04 #@! TO.P,J2,10*
G04 #@! TO.N,Net-(J2-Pad10)*
X161798000Y-86995000D03*
G04 #@! TO.P,J2,11*
G04 #@! TO.N,/6(\002A\002A)*
X159258000Y-84455000D03*
G04 #@! TO.P,J2,12*
G04 #@! TO.N,VCC*
X159258000Y-86995000D03*
G04 #@! TO.P,J2,13*
G04 #@! TO.N,/7*
X156718000Y-84455000D03*
G04 #@! TO.P,J2,14*
G04 #@! TO.N,GND*
X156718000Y-86995000D03*
G04 #@! TD*
D22*
G04 #@! TO.P,Q1,2*
G04 #@! TO.N,Net-(Q1-Pad2)*
X146050000Y-114427000D03*
G04 #@! TO.P,Q1,3*
G04 #@! TO.N,GND*
X147320000Y-114427000D03*
D23*
G04 #@! TO.P,Q1,1*
G04 #@! TO.N,Net-(BZ1-Pad2)*
X144780000Y-114427000D03*
G04 #@! TD*
D17*
G04 #@! TO.P,R1,2*
G04 #@! TO.N,/A5*
X174498000Y-120269000D03*
D16*
G04 #@! TO.P,R1,1*
G04 #@! TO.N,Net-(Q2-Pad2)*
X174498000Y-110109000D03*
G04 #@! TD*
G04 #@! TO.P,R2,1*
G04 #@! TO.N,Net-(Q1-Pad2)*
X150368000Y-120015000D03*
D17*
G04 #@! TO.P,R2,2*
G04 #@! TO.N,/A4*
X160528000Y-120015000D03*
G04 #@! TD*
D16*
G04 #@! TO.P,R4,1*
G04 #@! TO.N,Net-(R4-Pad1)*
X135636000Y-110109000D03*
D17*
G04 #@! TO.P,R4,2*
G04 #@! TO.N,Net-(BZ1-Pad1)*
X135636000Y-120269000D03*
G04 #@! TD*
G04 #@! TO.P,R5,2*
G04 #@! TO.N,GND*
X151892000Y-104013000D03*
D16*
G04 #@! TO.P,R5,1*
G04 #@! TO.N,/A0*
X162052000Y-104013000D03*
G04 #@! TD*
D12*
G04 #@! TO.P,RV1,3*
G04 #@! TO.N,VCC*
X141732000Y-101727000D03*
G04 #@! TO.P,RV1,2*
X146812000Y-104267000D03*
G04 #@! TO.P,RV1,1*
G04 #@! TO.N,Net-(R4-Pad1)*
X141732000Y-106807000D03*
G04 #@! TD*
D11*
G04 #@! TO.P,Q3,2*
G04 #@! TO.N,Net-(Q2-Pad2)*
X168402000Y-104521000D03*
G04 #@! TO.P,Q3,3*
G04 #@! TO.N,VCC*
X168402000Y-103251000D03*
D10*
G04 #@! TO.P,Q3,1*
G04 #@! TO.N,Net-(J3-Pad2)*
X168402000Y-105791000D03*
G04 #@! TD*
D24*
G04 #@! TO.P,J3,1*
G04 #@! TO.N,Net-(J3-Pad1)*
X165140000Y-114173000D03*
D25*
G04 #@! TO.P,J3,2*
G04 #@! TO.N,Net-(J3-Pad2)*
X162600000Y-114173000D03*
G04 #@! TO.P,J3,3*
G04 #@! TO.N,GND*
X160060000Y-114173000D03*
G04 #@! TO.P,J3,4*
G04 #@! TO.N,VCC*
X157520000Y-114173000D03*
G04 #@! TO.P,J3,5*
G04 #@! TO.N,/A0*
X154980000Y-114173000D03*
G04 #@! TD*
D26*
G04 #@! TO.N,/12(MISO)*
X142240000Y-81915000D03*
G04 #@! TD*
D27*
G04 #@! TO.N,GND*
X151638000Y-123825000D02*
X154178000Y-123825000D01*
X156718000Y-86995000D02*
X142494000Y-86995000D01*
X142494000Y-86995000D02*
X137414000Y-81915000D01*
X137414000Y-77851000D02*
X137414000Y-75565000D01*
X135382000Y-79883000D02*
X137414000Y-77851000D01*
X120650000Y-83357000D02*
X124124000Y-79883000D01*
X124124000Y-79883000D02*
X135382000Y-79883000D01*
X137414000Y-81915000D02*
X135382000Y-79883000D01*
X154178000Y-123825000D02*
X154178000Y-123810403D01*
X154178000Y-123672600D02*
X160274000Y-117576600D01*
X154178000Y-123825000D02*
X154178000Y-123672600D01*
G04 #@! TO.N,/7*
X156718000Y-75565000D02*
X156718000Y-84455000D01*
G04 #@! TO.N,/6(\002A\002A)*
X159258000Y-75565000D02*
X159258000Y-84455000D01*
G04 #@! TO.N,/5(\002A\002A)*
X161798000Y-75565000D02*
X161798000Y-84709000D01*
G04 #@! TO.N,/4*
X164338000Y-75565000D02*
X164338000Y-84455000D01*
G04 #@! TO.N,/3(\002A\002A)*
X166878000Y-75565000D02*
X166878000Y-84455000D01*
G04 #@! TO.N,/2*
X169418000Y-75565000D02*
X169418000Y-84455000D01*
G04 #@! TO.N,/12(MISO)*
X126208000Y-89057000D02*
X126150000Y-89057000D01*
X142494000Y-75565000D02*
X142494000Y-75717400D01*
X142494000Y-81661000D02*
X142240000Y-81915000D01*
X142494000Y-75565000D02*
X142494000Y-81661000D01*
G04 #@! TO.N,VCC*
X149098000Y-123825000D02*
X149098000Y-123322000D01*
X159258000Y-96393000D02*
X159258000Y-86995000D01*
X156718000Y-98933000D02*
X159258000Y-96393000D01*
X149098000Y-123810403D02*
X149098000Y-123825000D01*
D28*
X149098000Y-123672600D02*
X149098000Y-123825000D01*
D27*
X157520000Y-99975000D02*
X157520000Y-114173000D01*
X157520000Y-99735000D02*
X157520000Y-99975000D01*
X156718000Y-98933000D02*
X157520000Y-99735000D01*
X149098000Y-123810403D02*
X151369403Y-121539000D01*
X151369403Y-121539000D02*
X153162000Y-121539000D01*
X157520000Y-117181000D02*
X157520000Y-114173000D01*
X153162000Y-121539000D02*
X157520000Y-117181000D01*
G04 #@! TO.N,Net-(J2-Pad10)*
X161798000Y-86995000D02*
X161798000Y-96393000D01*
G04 #@! TO.N,/A4*
X171958000Y-123672600D02*
X168300400Y-120015000D01*
X171958000Y-123825000D02*
X171958000Y-123672600D01*
X160528000Y-120015000D02*
X163576000Y-120015000D01*
X168300400Y-120015000D02*
X163576000Y-120015000D01*
X163576000Y-120015000D02*
X162675370Y-120015000D01*
G04 #@! TO.N,/A5*
X174498000Y-123825000D02*
X174498000Y-123810403D01*
G04 #@! TD*
D29*
G04 #@! TO.N,GND*
G36*
X157988000Y-91795436D02*
X157988000Y-93346037D01*
X157905611Y-93147131D01*
X157667774Y-93082831D01*
X156897605Y-93853000D01*
X157667774Y-94623169D01*
X157905611Y-94558869D01*
X157988000Y-94325892D01*
X157988000Y-95866948D01*
X156155664Y-97699285D01*
X155950454Y-97784286D01*
X155569286Y-98165454D01*
X155363000Y-98663474D01*
X155363000Y-99202526D01*
X155569286Y-99700546D01*
X155950454Y-100081714D01*
X156155665Y-100166715D01*
X156250000Y-100261050D01*
X156250001Y-112830767D01*
X156250000Y-112830768D01*
X156158769Y-112694231D01*
X155617945Y-112332864D01*
X154980000Y-112205969D01*
X154342056Y-112332864D01*
X153801231Y-112694231D01*
X153439864Y-113235055D01*
X153345000Y-113711969D01*
X153345000Y-114634030D01*
X153439864Y-115110944D01*
X153801231Y-115651769D01*
X154342055Y-116013136D01*
X154980000Y-116140031D01*
X155617944Y-116013136D01*
X156158769Y-115651769D01*
X156250000Y-115515232D01*
X156250001Y-115515233D01*
X156250000Y-116654949D01*
X154794949Y-118110000D01*
X137160000Y-118110000D01*
X137111399Y-118119667D01*
X137070197Y-118147197D01*
X137042667Y-118188399D01*
X137033000Y-118237000D01*
X137033000Y-119936628D01*
X136987740Y-119709091D01*
X136670577Y-119234423D01*
X136195909Y-118917260D01*
X135777333Y-118834000D01*
X135494667Y-118834000D01*
X135076091Y-118917260D01*
X134601423Y-119234423D01*
X134284260Y-119709091D01*
X134172887Y-120269000D01*
X134284260Y-120828909D01*
X134601423Y-121303577D01*
X135076091Y-121620740D01*
X135494667Y-121704000D01*
X135777333Y-121704000D01*
X136195909Y-121620740D01*
X136670577Y-121303577D01*
X136987740Y-120828909D01*
X137033000Y-120601372D01*
X137033000Y-125474698D01*
X112395000Y-125223290D01*
X112395000Y-115459000D01*
X119002560Y-115459000D01*
X119002560Y-117459000D01*
X119051843Y-117706765D01*
X119192191Y-117916809D01*
X119402235Y-118057157D01*
X119650000Y-118106440D01*
X121650000Y-118106440D01*
X121897765Y-118057157D01*
X122107809Y-117916809D01*
X122248157Y-117706765D01*
X122297440Y-117459000D01*
X122297440Y-116133778D01*
X126615000Y-116133778D01*
X126615000Y-116784222D01*
X126863914Y-117385153D01*
X127323847Y-117845086D01*
X127924778Y-118094000D01*
X128575222Y-118094000D01*
X129176153Y-117845086D01*
X129636086Y-117385153D01*
X129885000Y-116784222D01*
X129885000Y-116133778D01*
X129636086Y-115532847D01*
X129176153Y-115072914D01*
X128575222Y-114824000D01*
X127924778Y-114824000D01*
X127323847Y-115072914D01*
X126863914Y-115532847D01*
X126615000Y-116133778D01*
X122297440Y-116133778D01*
X122297440Y-115459000D01*
X122248157Y-115211235D01*
X122107809Y-115001191D01*
X121897765Y-114860843D01*
X121650000Y-114811560D01*
X119650000Y-114811560D01*
X119402235Y-114860843D01*
X119192191Y-115001191D01*
X119051843Y-115211235D01*
X119002560Y-115459000D01*
X112395000Y-115459000D01*
X112395000Y-113677000D01*
X143607560Y-113677000D01*
X143607560Y-115177000D01*
X143656843Y-115424765D01*
X143797191Y-115634809D01*
X144007235Y-115775157D01*
X144255000Y-115824440D01*
X145305000Y-115824440D01*
X145552765Y-115775157D01*
X145598134Y-115744842D01*
X146050000Y-115834725D01*
X146502609Y-115744695D01*
X146694996Y-115616146D01*
X146952664Y-115762266D01*
X147014190Y-115770964D01*
X147193000Y-115645163D01*
X147193000Y-114851709D01*
X147210000Y-114766245D01*
X147210000Y-114554000D01*
X147447000Y-114554000D01*
X147447000Y-115645163D01*
X147625810Y-115770964D01*
X147687336Y-115762266D01*
X148084255Y-115537179D01*
X148364823Y-115177331D01*
X148486326Y-114737506D01*
X148326593Y-114554000D01*
X147447000Y-114554000D01*
X147210000Y-114554000D01*
X147210000Y-114087754D01*
X147193000Y-114002290D01*
X147193000Y-113208837D01*
X147447000Y-113208837D01*
X147447000Y-114300000D01*
X148326593Y-114300000D01*
X148486326Y-114116494D01*
X148364823Y-113676669D01*
X148084255Y-113316821D01*
X147687336Y-113091734D01*
X147625810Y-113083036D01*
X147447000Y-113208837D01*
X147193000Y-113208837D01*
X147014190Y-113083036D01*
X146952664Y-113091734D01*
X146694996Y-113237854D01*
X146502608Y-113109305D01*
X146050000Y-113019275D01*
X145598133Y-113109157D01*
X145552765Y-113078843D01*
X145305000Y-113029560D01*
X144255000Y-113029560D01*
X144007235Y-113078843D01*
X143797191Y-113219191D01*
X143656843Y-113429235D01*
X143607560Y-113677000D01*
X112395000Y-113677000D01*
X112395000Y-109823561D01*
X134201000Y-109823561D01*
X134201000Y-110394439D01*
X134419466Y-110921862D01*
X134823138Y-111325534D01*
X135350561Y-111544000D01*
X135921439Y-111544000D01*
X136448862Y-111325534D01*
X136852534Y-110921862D01*
X137071000Y-110394439D01*
X137071000Y-109823561D01*
X136852534Y-109296138D01*
X136448862Y-108892466D01*
X135921439Y-108674000D01*
X135350561Y-108674000D01*
X134823138Y-108892466D01*
X134419466Y-109296138D01*
X134201000Y-109823561D01*
X112395000Y-109823561D01*
X112395000Y-108426039D01*
X150620096Y-108426039D01*
X150780959Y-108814423D01*
X151156866Y-109229389D01*
X151662959Y-109468914D01*
X151885000Y-109347629D01*
X151885000Y-108204000D01*
X152139000Y-108204000D01*
X152139000Y-109347629D01*
X152361041Y-109468914D01*
X152867134Y-109229389D01*
X153243041Y-108814423D01*
X153403904Y-108426039D01*
X153281915Y-108204000D01*
X152139000Y-108204000D01*
X151885000Y-108204000D01*
X150742085Y-108204000D01*
X150620096Y-108426039D01*
X112395000Y-108426039D01*
X112395000Y-106537474D01*
X140377000Y-106537474D01*
X140377000Y-107076526D01*
X140583286Y-107574546D01*
X140964454Y-107955714D01*
X141462474Y-108162000D01*
X142001526Y-108162000D01*
X142499546Y-107955714D01*
X142727299Y-107727961D01*
X150620096Y-107727961D01*
X150742085Y-107950000D01*
X151885000Y-107950000D01*
X151885000Y-106806371D01*
X152139000Y-106806371D01*
X152139000Y-107950000D01*
X153281915Y-107950000D01*
X153403904Y-107727961D01*
X153243041Y-107339577D01*
X152867134Y-106924611D01*
X152361041Y-106685086D01*
X152139000Y-106806371D01*
X151885000Y-106806371D01*
X151662959Y-106685086D01*
X151156866Y-106924611D01*
X150780959Y-107339577D01*
X150620096Y-107727961D01*
X142727299Y-107727961D01*
X142880714Y-107574546D01*
X143087000Y-107076526D01*
X143087000Y-106537474D01*
X142880714Y-106039454D01*
X142499546Y-105658286D01*
X142001526Y-105452000D01*
X141462474Y-105452000D01*
X140964454Y-105658286D01*
X140583286Y-106039454D01*
X140377000Y-106537474D01*
X112395000Y-106537474D01*
X112395000Y-106426000D01*
X132334000Y-106426000D01*
X132382601Y-106416333D01*
X132423803Y-106388803D01*
X132451333Y-106347601D01*
X132461000Y-106299000D01*
X132461000Y-103997474D01*
X145457000Y-103997474D01*
X145457000Y-104536526D01*
X145663286Y-105034546D01*
X146044454Y-105415714D01*
X146542474Y-105622000D01*
X147081526Y-105622000D01*
X147579546Y-105415714D01*
X147960714Y-105034546D01*
X148167000Y-104536526D01*
X148167000Y-104362039D01*
X150500096Y-104362039D01*
X150660959Y-104750423D01*
X151036866Y-105165389D01*
X151542959Y-105404914D01*
X151765000Y-105283629D01*
X151765000Y-104140000D01*
X152019000Y-104140000D01*
X152019000Y-105283629D01*
X152241041Y-105404914D01*
X152747134Y-105165389D01*
X153123041Y-104750423D01*
X153283904Y-104362039D01*
X153161915Y-104140000D01*
X152019000Y-104140000D01*
X151765000Y-104140000D01*
X150622085Y-104140000D01*
X150500096Y-104362039D01*
X148167000Y-104362039D01*
X148167000Y-103997474D01*
X148028855Y-103663961D01*
X150500096Y-103663961D01*
X150622085Y-103886000D01*
X151765000Y-103886000D01*
X151765000Y-102742371D01*
X152019000Y-102742371D01*
X152019000Y-103886000D01*
X153161915Y-103886000D01*
X153283904Y-103663961D01*
X153123041Y-103275577D01*
X152747134Y-102860611D01*
X152241041Y-102621086D01*
X152019000Y-102742371D01*
X151765000Y-102742371D01*
X151542959Y-102621086D01*
X151036866Y-102860611D01*
X150660959Y-103275577D01*
X150500096Y-103663961D01*
X148028855Y-103663961D01*
X147960714Y-103499454D01*
X147579546Y-103118286D01*
X147081526Y-102912000D01*
X146542474Y-102912000D01*
X146044454Y-103118286D01*
X145663286Y-103499454D01*
X145457000Y-103997474D01*
X132461000Y-103997474D01*
X132461000Y-101457474D01*
X140377000Y-101457474D01*
X140377000Y-101996526D01*
X140583286Y-102494546D01*
X140964454Y-102875714D01*
X141462474Y-103082000D01*
X142001526Y-103082000D01*
X142499546Y-102875714D01*
X142880714Y-102494546D01*
X143087000Y-101996526D01*
X143087000Y-101457474D01*
X142880714Y-100959454D01*
X142499546Y-100578286D01*
X142001526Y-100372000D01*
X141462474Y-100372000D01*
X140964454Y-100578286D01*
X140583286Y-100959454D01*
X140377000Y-101457474D01*
X132461000Y-101457474D01*
X132461000Y-94802774D01*
X155947831Y-94802774D01*
X156012131Y-95040611D01*
X156520342Y-95220333D01*
X157058644Y-95191892D01*
X157423869Y-95040611D01*
X157488169Y-94802774D01*
X156718000Y-94032605D01*
X155947831Y-94802774D01*
X132461000Y-94802774D01*
X132461000Y-93655342D01*
X155350667Y-93655342D01*
X155379108Y-94193644D01*
X155530389Y-94558869D01*
X155768226Y-94623169D01*
X156538395Y-93853000D01*
X155768226Y-93082831D01*
X155530389Y-93147131D01*
X155350667Y-93655342D01*
X132461000Y-93655342D01*
X132461000Y-92903226D01*
X155947831Y-92903226D01*
X156718000Y-93673395D01*
X157488169Y-92903226D01*
X157423869Y-92665389D01*
X156915658Y-92485667D01*
X156377356Y-92514108D01*
X156012131Y-92665389D01*
X155947831Y-92903226D01*
X132461000Y-92903226D01*
X132461000Y-91694503D01*
X157988000Y-91795436D01*
X157988000Y-91795436D01*
G37*
X157988000Y-91795436D02*
X157988000Y-93346037D01*
X157905611Y-93147131D01*
X157667774Y-93082831D01*
X156897605Y-93853000D01*
X157667774Y-94623169D01*
X157905611Y-94558869D01*
X157988000Y-94325892D01*
X157988000Y-95866948D01*
X156155664Y-97699285D01*
X155950454Y-97784286D01*
X155569286Y-98165454D01*
X155363000Y-98663474D01*
X155363000Y-99202526D01*
X155569286Y-99700546D01*
X155950454Y-100081714D01*
X156155665Y-100166715D01*
X156250000Y-100261050D01*
X156250001Y-112830767D01*
X156250000Y-112830768D01*
X156158769Y-112694231D01*
X155617945Y-112332864D01*
X154980000Y-112205969D01*
X154342056Y-112332864D01*
X153801231Y-112694231D01*
X153439864Y-113235055D01*
X153345000Y-113711969D01*
X153345000Y-114634030D01*
X153439864Y-115110944D01*
X153801231Y-115651769D01*
X154342055Y-116013136D01*
X154980000Y-116140031D01*
X155617944Y-116013136D01*
X156158769Y-115651769D01*
X156250000Y-115515232D01*
X156250001Y-115515233D01*
X156250000Y-116654949D01*
X154794949Y-118110000D01*
X137160000Y-118110000D01*
X137111399Y-118119667D01*
X137070197Y-118147197D01*
X137042667Y-118188399D01*
X137033000Y-118237000D01*
X137033000Y-119936628D01*
X136987740Y-119709091D01*
X136670577Y-119234423D01*
X136195909Y-118917260D01*
X135777333Y-118834000D01*
X135494667Y-118834000D01*
X135076091Y-118917260D01*
X134601423Y-119234423D01*
X134284260Y-119709091D01*
X134172887Y-120269000D01*
X134284260Y-120828909D01*
X134601423Y-121303577D01*
X135076091Y-121620740D01*
X135494667Y-121704000D01*
X135777333Y-121704000D01*
X136195909Y-121620740D01*
X136670577Y-121303577D01*
X136987740Y-120828909D01*
X137033000Y-120601372D01*
X137033000Y-125474698D01*
X112395000Y-125223290D01*
X112395000Y-115459000D01*
X119002560Y-115459000D01*
X119002560Y-117459000D01*
X119051843Y-117706765D01*
X119192191Y-117916809D01*
X119402235Y-118057157D01*
X119650000Y-118106440D01*
X121650000Y-118106440D01*
X121897765Y-118057157D01*
X122107809Y-117916809D01*
X122248157Y-117706765D01*
X122297440Y-117459000D01*
X122297440Y-116133778D01*
X126615000Y-116133778D01*
X126615000Y-116784222D01*
X126863914Y-117385153D01*
X127323847Y-117845086D01*
X127924778Y-118094000D01*
X128575222Y-118094000D01*
X129176153Y-117845086D01*
X129636086Y-117385153D01*
X129885000Y-116784222D01*
X129885000Y-116133778D01*
X129636086Y-115532847D01*
X129176153Y-115072914D01*
X128575222Y-114824000D01*
X127924778Y-114824000D01*
X127323847Y-115072914D01*
X126863914Y-115532847D01*
X126615000Y-116133778D01*
X122297440Y-116133778D01*
X122297440Y-115459000D01*
X122248157Y-115211235D01*
X122107809Y-115001191D01*
X121897765Y-114860843D01*
X121650000Y-114811560D01*
X119650000Y-114811560D01*
X119402235Y-114860843D01*
X119192191Y-115001191D01*
X119051843Y-115211235D01*
X119002560Y-115459000D01*
X112395000Y-115459000D01*
X112395000Y-113677000D01*
X143607560Y-113677000D01*
X143607560Y-115177000D01*
X143656843Y-115424765D01*
X143797191Y-115634809D01*
X144007235Y-115775157D01*
X144255000Y-115824440D01*
X145305000Y-115824440D01*
X145552765Y-115775157D01*
X145598134Y-115744842D01*
X146050000Y-115834725D01*
X146502609Y-115744695D01*
X146694996Y-115616146D01*
X146952664Y-115762266D01*
X147014190Y-115770964D01*
X147193000Y-115645163D01*
X147193000Y-114851709D01*
X147210000Y-114766245D01*
X147210000Y-114554000D01*
X147447000Y-114554000D01*
X147447000Y-115645163D01*
X147625810Y-115770964D01*
X147687336Y-115762266D01*
X148084255Y-115537179D01*
X148364823Y-115177331D01*
X148486326Y-114737506D01*
X148326593Y-114554000D01*
X147447000Y-114554000D01*
X147210000Y-114554000D01*
X147210000Y-114087754D01*
X147193000Y-114002290D01*
X147193000Y-113208837D01*
X147447000Y-113208837D01*
X147447000Y-114300000D01*
X148326593Y-114300000D01*
X148486326Y-114116494D01*
X148364823Y-113676669D01*
X148084255Y-113316821D01*
X147687336Y-113091734D01*
X147625810Y-113083036D01*
X147447000Y-113208837D01*
X147193000Y-113208837D01*
X147014190Y-113083036D01*
X146952664Y-113091734D01*
X146694996Y-113237854D01*
X146502608Y-113109305D01*
X146050000Y-113019275D01*
X145598133Y-113109157D01*
X145552765Y-113078843D01*
X145305000Y-113029560D01*
X144255000Y-113029560D01*
X144007235Y-113078843D01*
X143797191Y-113219191D01*
X143656843Y-113429235D01*
X143607560Y-113677000D01*
X112395000Y-113677000D01*
X112395000Y-109823561D01*
X134201000Y-109823561D01*
X134201000Y-110394439D01*
X134419466Y-110921862D01*
X134823138Y-111325534D01*
X135350561Y-111544000D01*
X135921439Y-111544000D01*
X136448862Y-111325534D01*
X136852534Y-110921862D01*
X137071000Y-110394439D01*
X137071000Y-109823561D01*
X136852534Y-109296138D01*
X136448862Y-108892466D01*
X135921439Y-108674000D01*
X135350561Y-108674000D01*
X134823138Y-108892466D01*
X134419466Y-109296138D01*
X134201000Y-109823561D01*
X112395000Y-109823561D01*
X112395000Y-108426039D01*
X150620096Y-108426039D01*
X150780959Y-108814423D01*
X151156866Y-109229389D01*
X151662959Y-109468914D01*
X151885000Y-109347629D01*
X151885000Y-108204000D01*
X152139000Y-108204000D01*
X152139000Y-109347629D01*
X152361041Y-109468914D01*
X152867134Y-109229389D01*
X153243041Y-108814423D01*
X153403904Y-108426039D01*
X153281915Y-108204000D01*
X152139000Y-108204000D01*
X151885000Y-108204000D01*
X150742085Y-108204000D01*
X150620096Y-108426039D01*
X112395000Y-108426039D01*
X112395000Y-106537474D01*
X140377000Y-106537474D01*
X140377000Y-107076526D01*
X140583286Y-107574546D01*
X140964454Y-107955714D01*
X141462474Y-108162000D01*
X142001526Y-108162000D01*
X142499546Y-107955714D01*
X142727299Y-107727961D01*
X150620096Y-107727961D01*
X150742085Y-107950000D01*
X151885000Y-107950000D01*
X151885000Y-106806371D01*
X152139000Y-106806371D01*
X152139000Y-107950000D01*
X153281915Y-107950000D01*
X153403904Y-107727961D01*
X153243041Y-107339577D01*
X152867134Y-106924611D01*
X152361041Y-106685086D01*
X152139000Y-106806371D01*
X151885000Y-106806371D01*
X151662959Y-106685086D01*
X151156866Y-106924611D01*
X150780959Y-107339577D01*
X150620096Y-107727961D01*
X142727299Y-107727961D01*
X142880714Y-107574546D01*
X143087000Y-107076526D01*
X143087000Y-106537474D01*
X142880714Y-106039454D01*
X142499546Y-105658286D01*
X142001526Y-105452000D01*
X141462474Y-105452000D01*
X140964454Y-105658286D01*
X140583286Y-106039454D01*
X140377000Y-106537474D01*
X112395000Y-106537474D01*
X112395000Y-106426000D01*
X132334000Y-106426000D01*
X132382601Y-106416333D01*
X132423803Y-106388803D01*
X132451333Y-106347601D01*
X132461000Y-106299000D01*
X132461000Y-103997474D01*
X145457000Y-103997474D01*
X145457000Y-104536526D01*
X145663286Y-105034546D01*
X146044454Y-105415714D01*
X146542474Y-105622000D01*
X147081526Y-105622000D01*
X147579546Y-105415714D01*
X147960714Y-105034546D01*
X148167000Y-104536526D01*
X148167000Y-104362039D01*
X150500096Y-104362039D01*
X150660959Y-104750423D01*
X151036866Y-105165389D01*
X151542959Y-105404914D01*
X151765000Y-105283629D01*
X151765000Y-104140000D01*
X152019000Y-104140000D01*
X152019000Y-105283629D01*
X152241041Y-105404914D01*
X152747134Y-105165389D01*
X153123041Y-104750423D01*
X153283904Y-104362039D01*
X153161915Y-104140000D01*
X152019000Y-104140000D01*
X151765000Y-104140000D01*
X150622085Y-104140000D01*
X150500096Y-104362039D01*
X148167000Y-104362039D01*
X148167000Y-103997474D01*
X148028855Y-103663961D01*
X150500096Y-103663961D01*
X150622085Y-103886000D01*
X151765000Y-103886000D01*
X151765000Y-102742371D01*
X152019000Y-102742371D01*
X152019000Y-103886000D01*
X153161915Y-103886000D01*
X153283904Y-103663961D01*
X153123041Y-103275577D01*
X152747134Y-102860611D01*
X152241041Y-102621086D01*
X152019000Y-102742371D01*
X151765000Y-102742371D01*
X151542959Y-102621086D01*
X151036866Y-102860611D01*
X150660959Y-103275577D01*
X150500096Y-103663961D01*
X148028855Y-103663961D01*
X147960714Y-103499454D01*
X147579546Y-103118286D01*
X147081526Y-102912000D01*
X146542474Y-102912000D01*
X146044454Y-103118286D01*
X145663286Y-103499454D01*
X145457000Y-103997474D01*
X132461000Y-103997474D01*
X132461000Y-101457474D01*
X140377000Y-101457474D01*
X140377000Y-101996526D01*
X140583286Y-102494546D01*
X140964454Y-102875714D01*
X141462474Y-103082000D01*
X142001526Y-103082000D01*
X142499546Y-102875714D01*
X142880714Y-102494546D01*
X143087000Y-101996526D01*
X143087000Y-101457474D01*
X142880714Y-100959454D01*
X142499546Y-100578286D01*
X142001526Y-100372000D01*
X141462474Y-100372000D01*
X140964454Y-100578286D01*
X140583286Y-100959454D01*
X140377000Y-101457474D01*
X132461000Y-101457474D01*
X132461000Y-94802774D01*
X155947831Y-94802774D01*
X156012131Y-95040611D01*
X156520342Y-95220333D01*
X157058644Y-95191892D01*
X157423869Y-95040611D01*
X157488169Y-94802774D01*
X156718000Y-94032605D01*
X155947831Y-94802774D01*
X132461000Y-94802774D01*
X132461000Y-93655342D01*
X155350667Y-93655342D01*
X155379108Y-94193644D01*
X155530389Y-94558869D01*
X155768226Y-94623169D01*
X156538395Y-93853000D01*
X155768226Y-93082831D01*
X155530389Y-93147131D01*
X155350667Y-93655342D01*
X132461000Y-93655342D01*
X132461000Y-92903226D01*
X155947831Y-92903226D01*
X156718000Y-93673395D01*
X157488169Y-92903226D01*
X157423869Y-92665389D01*
X156915658Y-92485667D01*
X156377356Y-92514108D01*
X156012131Y-92665389D01*
X155947831Y-92903226D01*
X132461000Y-92903226D01*
X132461000Y-91694503D01*
X157988000Y-91795436D01*
G36*
X178379967Y-91876065D02*
X178490029Y-118110001D01*
X158415590Y-118110001D01*
X158435618Y-118096618D01*
X158716313Y-117676529D01*
X158790000Y-117306080D01*
X158790000Y-117306076D01*
X158814879Y-117181000D01*
X158790000Y-117055924D01*
X158790000Y-115515232D01*
X158809952Y-115485371D01*
X158993683Y-115718922D01*
X159551645Y-116032144D01*
X159679566Y-116063124D01*
X159933000Y-115943777D01*
X159933000Y-114300000D01*
X159913000Y-114300000D01*
X159913000Y-114046000D01*
X159933000Y-114046000D01*
X159933000Y-112402223D01*
X160187000Y-112402223D01*
X160187000Y-114046000D01*
X160207000Y-114046000D01*
X160207000Y-114300000D01*
X160187000Y-114300000D01*
X160187000Y-115943777D01*
X160440434Y-116063124D01*
X160568355Y-116032144D01*
X161126317Y-115718922D01*
X161310048Y-115485371D01*
X161421231Y-115651769D01*
X161962055Y-116013136D01*
X162600000Y-116140031D01*
X163237944Y-116013136D01*
X163583100Y-115782510D01*
X163682191Y-115930809D01*
X163892235Y-116071157D01*
X164140000Y-116120440D01*
X166140000Y-116120440D01*
X166387765Y-116071157D01*
X166597809Y-115930809D01*
X166738157Y-115720765D01*
X166787440Y-115473000D01*
X166787440Y-112873000D01*
X166738157Y-112625235D01*
X166597809Y-112415191D01*
X166387765Y-112274843D01*
X166140000Y-112225560D01*
X164140000Y-112225560D01*
X163892235Y-112274843D01*
X163682191Y-112415191D01*
X163583100Y-112563489D01*
X163237945Y-112332864D01*
X162600000Y-112205969D01*
X161962056Y-112332864D01*
X161421231Y-112694231D01*
X161310048Y-112860629D01*
X161126317Y-112627078D01*
X160568355Y-112313856D01*
X160440434Y-112282876D01*
X160187000Y-112402223D01*
X159933000Y-112402223D01*
X159679566Y-112282876D01*
X159551645Y-112313856D01*
X158993683Y-112627078D01*
X158809952Y-112860629D01*
X158790000Y-112830768D01*
X158790000Y-109823561D01*
X173063000Y-109823561D01*
X173063000Y-110394439D01*
X173281466Y-110921862D01*
X173685138Y-111325534D01*
X174212561Y-111544000D01*
X174783439Y-111544000D01*
X175310862Y-111325534D01*
X175714534Y-110921862D01*
X175933000Y-110394439D01*
X175933000Y-109823561D01*
X175714534Y-109296138D01*
X175310862Y-108892466D01*
X174783439Y-108674000D01*
X174212561Y-108674000D01*
X173685138Y-108892466D01*
X173281466Y-109296138D01*
X173063000Y-109823561D01*
X158790000Y-109823561D01*
X158790000Y-109331170D01*
X159226561Y-109512000D01*
X159797439Y-109512000D01*
X160324862Y-109293534D01*
X160728534Y-108889862D01*
X160947000Y-108362439D01*
X160947000Y-107791561D01*
X160728534Y-107264138D01*
X160324862Y-106860466D01*
X159797439Y-106642000D01*
X159226561Y-106642000D01*
X158790000Y-106822830D01*
X158790000Y-103727561D01*
X160617000Y-103727561D01*
X160617000Y-104298439D01*
X160835466Y-104825862D01*
X161239138Y-105229534D01*
X161766561Y-105448000D01*
X162337439Y-105448000D01*
X162864862Y-105229534D01*
X163268534Y-104825862D01*
X163487000Y-104298439D01*
X163487000Y-103727561D01*
X163289602Y-103251000D01*
X166994275Y-103251000D01*
X167084305Y-103703609D01*
X167206174Y-103886000D01*
X167084305Y-104068391D01*
X166994275Y-104521000D01*
X167084157Y-104972867D01*
X167053843Y-105018235D01*
X167004560Y-105266000D01*
X167004560Y-106316000D01*
X167053843Y-106563765D01*
X167194191Y-106773809D01*
X167404235Y-106914157D01*
X167652000Y-106963440D01*
X169152000Y-106963440D01*
X169399765Y-106914157D01*
X169609809Y-106773809D01*
X169750157Y-106563765D01*
X169799440Y-106316000D01*
X169799440Y-106096810D01*
X172900036Y-106096810D01*
X172908734Y-106158336D01*
X173133821Y-106555255D01*
X173493669Y-106835823D01*
X173933494Y-106957326D01*
X174117000Y-106797593D01*
X174117000Y-105918000D01*
X174371000Y-105918000D01*
X174371000Y-106797593D01*
X174554506Y-106957326D01*
X174994331Y-106835823D01*
X175354179Y-106555255D01*
X175579266Y-106158336D01*
X175587964Y-106096810D01*
X175462163Y-105918000D01*
X174371000Y-105918000D01*
X174117000Y-105918000D01*
X173025837Y-105918000D01*
X172900036Y-106096810D01*
X169799440Y-106096810D01*
X169799440Y-105266000D01*
X169750157Y-105018235D01*
X169719843Y-104972867D01*
X169809725Y-104521000D01*
X172836275Y-104521000D01*
X172926305Y-104973609D01*
X173054854Y-105165996D01*
X172908734Y-105423664D01*
X172900036Y-105485190D01*
X173025837Y-105664000D01*
X173819290Y-105664000D01*
X173904754Y-105681000D01*
X174583246Y-105681000D01*
X174668710Y-105664000D01*
X175462163Y-105664000D01*
X175587964Y-105485190D01*
X175579266Y-105423664D01*
X175433146Y-105165996D01*
X175561695Y-104973609D01*
X175651725Y-104521000D01*
X175561843Y-104069133D01*
X175592157Y-104023765D01*
X175641440Y-103776000D01*
X175641440Y-102726000D01*
X175592157Y-102478235D01*
X175451809Y-102268191D01*
X175241765Y-102127843D01*
X174994000Y-102078560D01*
X173494000Y-102078560D01*
X173246235Y-102127843D01*
X173036191Y-102268191D01*
X172895843Y-102478235D01*
X172846560Y-102726000D01*
X172846560Y-103776000D01*
X172895843Y-104023765D01*
X172926157Y-104069133D01*
X172836275Y-104521000D01*
X169809725Y-104521000D01*
X169719695Y-104068391D01*
X169597826Y-103886000D01*
X169719695Y-103703609D01*
X169809725Y-103251000D01*
X169719695Y-102798391D01*
X169463313Y-102414687D01*
X169079609Y-102158305D01*
X168741246Y-102091000D01*
X168062754Y-102091000D01*
X167724391Y-102158305D01*
X167340687Y-102414687D01*
X167084305Y-102798391D01*
X166994275Y-103251000D01*
X163289602Y-103251000D01*
X163268534Y-103200138D01*
X162864862Y-102796466D01*
X162337439Y-102578000D01*
X161766561Y-102578000D01*
X161239138Y-102796466D01*
X160835466Y-103200138D01*
X160617000Y-103727561D01*
X158790000Y-103727561D01*
X158790000Y-99860074D01*
X158814879Y-99734999D01*
X158790000Y-99609924D01*
X158790000Y-99609920D01*
X158716313Y-99239471D01*
X158512543Y-98934508D01*
X160067585Y-97379467D01*
X160173618Y-97308618D01*
X160244467Y-97202585D01*
X160244470Y-97202582D01*
X160454312Y-96888530D01*
X160454313Y-96888529D01*
X160481013Y-96754298D01*
X160649286Y-97160546D01*
X161030454Y-97541714D01*
X161528474Y-97748000D01*
X162067526Y-97748000D01*
X162565546Y-97541714D01*
X162946714Y-97160546D01*
X163153000Y-96662526D01*
X163153000Y-96123474D01*
X163068000Y-95918265D01*
X163068000Y-91815522D01*
X178379967Y-91876065D01*
X178379967Y-91876065D01*
G37*
X178379967Y-91876065D02*
X178490029Y-118110001D01*
X158415590Y-118110001D01*
X158435618Y-118096618D01*
X158716313Y-117676529D01*
X158790000Y-117306080D01*
X158790000Y-117306076D01*
X158814879Y-117181000D01*
X158790000Y-117055924D01*
X158790000Y-115515232D01*
X158809952Y-115485371D01*
X158993683Y-115718922D01*
X159551645Y-116032144D01*
X159679566Y-116063124D01*
X159933000Y-115943777D01*
X159933000Y-114300000D01*
X159913000Y-114300000D01*
X159913000Y-114046000D01*
X159933000Y-114046000D01*
X159933000Y-112402223D01*
X160187000Y-112402223D01*
X160187000Y-114046000D01*
X160207000Y-114046000D01*
X160207000Y-114300000D01*
X160187000Y-114300000D01*
X160187000Y-115943777D01*
X160440434Y-116063124D01*
X160568355Y-116032144D01*
X161126317Y-115718922D01*
X161310048Y-115485371D01*
X161421231Y-115651769D01*
X161962055Y-116013136D01*
X162600000Y-116140031D01*
X163237944Y-116013136D01*
X163583100Y-115782510D01*
X163682191Y-115930809D01*
X163892235Y-116071157D01*
X164140000Y-116120440D01*
X166140000Y-116120440D01*
X166387765Y-116071157D01*
X166597809Y-115930809D01*
X166738157Y-115720765D01*
X166787440Y-115473000D01*
X166787440Y-112873000D01*
X166738157Y-112625235D01*
X166597809Y-112415191D01*
X166387765Y-112274843D01*
X166140000Y-112225560D01*
X164140000Y-112225560D01*
X163892235Y-112274843D01*
X163682191Y-112415191D01*
X163583100Y-112563489D01*
X163237945Y-112332864D01*
X162600000Y-112205969D01*
X161962056Y-112332864D01*
X161421231Y-112694231D01*
X161310048Y-112860629D01*
X161126317Y-112627078D01*
X160568355Y-112313856D01*
X160440434Y-112282876D01*
X160187000Y-112402223D01*
X159933000Y-112402223D01*
X159679566Y-112282876D01*
X159551645Y-112313856D01*
X158993683Y-112627078D01*
X158809952Y-112860629D01*
X158790000Y-112830768D01*
X158790000Y-109823561D01*
X173063000Y-109823561D01*
X173063000Y-110394439D01*
X173281466Y-110921862D01*
X173685138Y-111325534D01*
X174212561Y-111544000D01*
X174783439Y-111544000D01*
X175310862Y-111325534D01*
X175714534Y-110921862D01*
X175933000Y-110394439D01*
X175933000Y-109823561D01*
X175714534Y-109296138D01*
X175310862Y-108892466D01*
X174783439Y-108674000D01*
X174212561Y-108674000D01*
X173685138Y-108892466D01*
X173281466Y-109296138D01*
X173063000Y-109823561D01*
X158790000Y-109823561D01*
X158790000Y-109331170D01*
X159226561Y-109512000D01*
X159797439Y-109512000D01*
X160324862Y-109293534D01*
X160728534Y-108889862D01*
X160947000Y-108362439D01*
X160947000Y-107791561D01*
X160728534Y-107264138D01*
X160324862Y-106860466D01*
X159797439Y-106642000D01*
X159226561Y-106642000D01*
X158790000Y-106822830D01*
X158790000Y-103727561D01*
X160617000Y-103727561D01*
X160617000Y-104298439D01*
X160835466Y-104825862D01*
X161239138Y-105229534D01*
X161766561Y-105448000D01*
X162337439Y-105448000D01*
X162864862Y-105229534D01*
X163268534Y-104825862D01*
X163487000Y-104298439D01*
X163487000Y-103727561D01*
X163289602Y-103251000D01*
X166994275Y-103251000D01*
X167084305Y-103703609D01*
X167206174Y-103886000D01*
X167084305Y-104068391D01*
X166994275Y-104521000D01*
X167084157Y-104972867D01*
X167053843Y-105018235D01*
X167004560Y-105266000D01*
X167004560Y-106316000D01*
X167053843Y-106563765D01*
X167194191Y-106773809D01*
X167404235Y-106914157D01*
X167652000Y-106963440D01*
X169152000Y-106963440D01*
X169399765Y-106914157D01*
X169609809Y-106773809D01*
X169750157Y-106563765D01*
X169799440Y-106316000D01*
X169799440Y-106096810D01*
X172900036Y-106096810D01*
X172908734Y-106158336D01*
X173133821Y-106555255D01*
X173493669Y-106835823D01*
X173933494Y-106957326D01*
X174117000Y-106797593D01*
X174117000Y-105918000D01*
X174371000Y-105918000D01*
X174371000Y-106797593D01*
X174554506Y-106957326D01*
X174994331Y-106835823D01*
X175354179Y-106555255D01*
X175579266Y-106158336D01*
X175587964Y-106096810D01*
X175462163Y-105918000D01*
X174371000Y-105918000D01*
X174117000Y-105918000D01*
X173025837Y-105918000D01*
X172900036Y-106096810D01*
X169799440Y-106096810D01*
X169799440Y-105266000D01*
X169750157Y-105018235D01*
X169719843Y-104972867D01*
X169809725Y-104521000D01*
X172836275Y-104521000D01*
X172926305Y-104973609D01*
X173054854Y-105165996D01*
X172908734Y-105423664D01*
X172900036Y-105485190D01*
X173025837Y-105664000D01*
X173819290Y-105664000D01*
X173904754Y-105681000D01*
X174583246Y-105681000D01*
X174668710Y-105664000D01*
X175462163Y-105664000D01*
X175587964Y-105485190D01*
X175579266Y-105423664D01*
X175433146Y-105165996D01*
X175561695Y-104973609D01*
X175651725Y-104521000D01*
X175561843Y-104069133D01*
X175592157Y-104023765D01*
X175641440Y-103776000D01*
X175641440Y-102726000D01*
X175592157Y-102478235D01*
X175451809Y-102268191D01*
X175241765Y-102127843D01*
X174994000Y-102078560D01*
X173494000Y-102078560D01*
X173246235Y-102127843D01*
X173036191Y-102268191D01*
X172895843Y-102478235D01*
X172846560Y-102726000D01*
X172846560Y-103776000D01*
X172895843Y-104023765D01*
X172926157Y-104069133D01*
X172836275Y-104521000D01*
X169809725Y-104521000D01*
X169719695Y-104068391D01*
X169597826Y-103886000D01*
X169719695Y-103703609D01*
X169809725Y-103251000D01*
X169719695Y-102798391D01*
X169463313Y-102414687D01*
X169079609Y-102158305D01*
X168741246Y-102091000D01*
X168062754Y-102091000D01*
X167724391Y-102158305D01*
X167340687Y-102414687D01*
X167084305Y-102798391D01*
X166994275Y-103251000D01*
X163289602Y-103251000D01*
X163268534Y-103200138D01*
X162864862Y-102796466D01*
X162337439Y-102578000D01*
X161766561Y-102578000D01*
X161239138Y-102796466D01*
X160835466Y-103200138D01*
X160617000Y-103727561D01*
X158790000Y-103727561D01*
X158790000Y-99860074D01*
X158814879Y-99734999D01*
X158790000Y-99609924D01*
X158790000Y-99609920D01*
X158716313Y-99239471D01*
X158512543Y-98934508D01*
X160067585Y-97379467D01*
X160173618Y-97308618D01*
X160244467Y-97202585D01*
X160244470Y-97202582D01*
X160454312Y-96888530D01*
X160454313Y-96888529D01*
X160481013Y-96754298D01*
X160649286Y-97160546D01*
X161030454Y-97541714D01*
X161528474Y-97748000D01*
X162067526Y-97748000D01*
X162565546Y-97541714D01*
X162946714Y-97160546D01*
X163153000Y-96662526D01*
X163153000Y-96123474D01*
X163068000Y-95918265D01*
X163068000Y-91815522D01*
X178379967Y-91876065D01*
G04 #@! TD*
M02*
