G04 #@! TF.GenerationSoftware,KiCad,Pcbnew,5.0.2+dfsg1-1*
G04 #@! TF.CreationDate,2019-08-29T13:15:50-03:00*
G04 #@! TF.ProjectId,Placa_lcd_cont_geiger,506c6163-615f-46c6-9364-5f636f6e745f,rev?*
G04 #@! TF.SameCoordinates,Original*
G04 #@! TF.FileFunction,Copper,L1,Top*
G04 #@! TF.FilePolarity,Positive*
%FSLAX46Y46*%
G04 Gerber Fmt 4.6, Leading zero omitted, Abs format (unit mm)*
G04 Created by KiCad (PCBNEW 5.0.2+dfsg1-1) date jue 29 ago 2019 13:15:50 -03*
%MOMM*%
%LPD*%
G01*
G04 APERTURE LIST*
G04 #@! TA.AperFunction,ComponentPad*
%ADD10R,1.500000X1.050000*%
G04 #@! TD*
G04 #@! TA.AperFunction,ComponentPad*
%ADD11O,1.500000X1.050000*%
G04 #@! TD*
G04 #@! TA.AperFunction,ComponentPad*
%ADD12C,1.440000*%
G04 #@! TD*
G04 #@! TA.AperFunction,ComponentPad*
%ADD13O,1.727200X2.032000*%
G04 #@! TD*
G04 #@! TA.AperFunction,ComponentPad*
%ADD14R,2.000000X2.000000*%
G04 #@! TD*
G04 #@! TA.AperFunction,ComponentPad*
%ADD15C,2.000000*%
G04 #@! TD*
G04 #@! TA.AperFunction,ComponentPad*
%ADD16C,1.600000*%
G04 #@! TD*
G04 #@! TA.AperFunction,ComponentPad*
%ADD17O,1.600000X1.600000*%
G04 #@! TD*
G04 #@! TA.AperFunction,Conductor*
%ADD18C,0.100000*%
G04 #@! TD*
G04 #@! TA.AperFunction,ComponentPad*
%ADD19C,3.700000*%
G04 #@! TD*
G04 #@! TA.AperFunction,ComponentPad*
%ADD20R,1.727200X1.727200*%
G04 #@! TD*
G04 #@! TA.AperFunction,ComponentPad*
%ADD21O,1.727200X1.727200*%
G04 #@! TD*
G04 #@! TA.AperFunction,ComponentPad*
%ADD22O,1.050000X1.500000*%
G04 #@! TD*
G04 #@! TA.AperFunction,ComponentPad*
%ADD23R,1.050000X1.500000*%
G04 #@! TD*
G04 #@! TA.AperFunction,ComponentPad*
%ADD24R,2.000000X2.600000*%
G04 #@! TD*
G04 #@! TA.AperFunction,ComponentPad*
%ADD25O,2.000000X2.600000*%
G04 #@! TD*
G04 #@! TA.AperFunction,ViaPad*
%ADD26C,1.524000*%
G04 #@! TD*
G04 #@! TA.AperFunction,Conductor*
%ADD27C,1.270000*%
G04 #@! TD*
G04 #@! TA.AperFunction,Conductor*
%ADD28C,1.016000*%
G04 #@! TD*
G04 APERTURE END LIST*
D10*
G04 #@! TO.P,Q2,1*
G04 #@! TO.N,Net-(J3-Pad1)*
X174244000Y-103251000D03*
D11*
G04 #@! TO.P,Q2,3*
G04 #@! TO.N,GND*
X174244000Y-105791000D03*
G04 #@! TO.P,Q2,2*
G04 #@! TO.N,Net-(Q2-Pad2)*
X174244000Y-104521000D03*
G04 #@! TD*
D12*
G04 #@! TO.P,RV2,1*
G04 #@! TO.N,VCC*
X156718000Y-98933000D03*
G04 #@! TO.P,RV2,2*
G04 #@! TO.N,Net-(J2-Pad10)*
X161798000Y-96393000D03*
G04 #@! TO.P,RV2,3*
G04 #@! TO.N,GND*
X156718000Y-93853000D03*
G04 #@! TD*
D13*
G04 #@! TO.P,P1,1*
G04 #@! TO.N,Net-(P1-Pad1)*
X138938000Y-123825000D03*
G04 #@! TO.P,P1,2*
G04 #@! TO.N,/IOREF*
X141478000Y-123825000D03*
G04 #@! TO.P,P1,3*
G04 #@! TO.N,/Reset*
X144018000Y-123825000D03*
G04 #@! TO.P,P1,4*
G04 #@! TO.N,+3V3*
X146558000Y-123825000D03*
G04 #@! TO.P,P1,5*
G04 #@! TO.N,VCC*
X149098000Y-123825000D03*
G04 #@! TO.P,P1,6*
G04 #@! TO.N,GND*
X151638000Y-123825000D03*
G04 #@! TO.P,P1,7*
X154178000Y-123825000D03*
G04 #@! TO.P,P1,8*
G04 #@! TO.N,/Vin*
X156718000Y-123825000D03*
G04 #@! TD*
G04 #@! TO.P,P2,1*
G04 #@! TO.N,/A0*
X161798000Y-123825000D03*
G04 #@! TO.P,P2,2*
G04 #@! TO.N,/A1*
X164338000Y-123825000D03*
G04 #@! TO.P,P2,3*
G04 #@! TO.N,/A2*
X166878000Y-123825000D03*
G04 #@! TO.P,P2,4*
G04 #@! TO.N,/A3*
X169418000Y-123825000D03*
G04 #@! TO.P,P2,5*
G04 #@! TO.N,/A4*
X171958000Y-123825000D03*
G04 #@! TO.P,P2,6*
G04 #@! TO.N,/A5*
X174498000Y-123825000D03*
G04 #@! TD*
G04 #@! TO.P,P3,1*
G04 #@! TO.N,/A5(SCL)*
X129794000Y-75565000D03*
G04 #@! TO.P,P3,2*
G04 #@! TO.N,/A4(SDA)*
X132334000Y-75565000D03*
G04 #@! TO.P,P3,3*
G04 #@! TO.N,/AREF*
X134874000Y-75565000D03*
G04 #@! TO.P,P3,4*
G04 #@! TO.N,GND*
X137414000Y-75565000D03*
G04 #@! TO.P,P3,5*
G04 #@! TO.N,/13(SCK)*
X139954000Y-75565000D03*
G04 #@! TO.P,P3,6*
G04 #@! TO.N,/12(MISO)*
X142494000Y-75565000D03*
G04 #@! TO.P,P3,7*
G04 #@! TO.N,/11(\002A\002A/MOSI)*
X145034000Y-75565000D03*
G04 #@! TO.P,P3,8*
G04 #@! TO.N,/10(\002A\002A/SS)*
X147574000Y-75565000D03*
G04 #@! TO.P,P3,9*
G04 #@! TO.N,/9(\002A\002A)*
X150114000Y-75565000D03*
G04 #@! TO.P,P3,10*
G04 #@! TO.N,/8*
X152654000Y-75565000D03*
G04 #@! TD*
G04 #@! TO.P,P4,1*
G04 #@! TO.N,/7*
X156718000Y-75565000D03*
G04 #@! TO.P,P4,2*
G04 #@! TO.N,/6(\002A\002A)*
X159258000Y-75565000D03*
G04 #@! TO.P,P4,3*
G04 #@! TO.N,/5(\002A\002A)*
X161798000Y-75565000D03*
G04 #@! TO.P,P4,4*
G04 #@! TO.N,/4*
X164338000Y-75565000D03*
G04 #@! TO.P,P4,5*
G04 #@! TO.N,/3(\002A\002A)*
X166878000Y-75565000D03*
G04 #@! TO.P,P4,6*
G04 #@! TO.N,/2*
X169418000Y-75565000D03*
G04 #@! TO.P,P4,7*
G04 #@! TO.N,/1(Tx)*
X171958000Y-75565000D03*
G04 #@! TO.P,P4,8*
G04 #@! TO.N,/0(Rx)*
X174498000Y-75565000D03*
G04 #@! TD*
D14*
G04 #@! TO.P,BZ1,1*
G04 #@! TO.N,Net-(BZ1-Pad1)*
X120650000Y-116459000D03*
D15*
G04 #@! TO.P,BZ1,2*
G04 #@! TO.N,Net-(BZ1-Pad2)*
X128250000Y-116459000D03*
G04 #@! TD*
D16*
G04 #@! TO.P,C1,1*
G04 #@! TO.N,/A0*
X159512000Y-108077000D03*
D17*
G04 #@! TO.P,C1,2*
G04 #@! TO.N,GND*
X152012000Y-108077000D03*
G04 #@! TD*
D18*
G04 #@! TO.N,Net-(J1-Pad1)*
G04 #@! TO.C,J1*
G36*
X122274503Y-98608204D02*
X122298772Y-98611804D01*
X122322570Y-98617765D01*
X122345670Y-98626030D01*
X122367849Y-98636520D01*
X122388892Y-98649133D01*
X122408598Y-98663748D01*
X122426776Y-98680224D01*
X122443252Y-98698402D01*
X122457867Y-98718108D01*
X122470480Y-98739151D01*
X122480970Y-98761330D01*
X122489235Y-98784430D01*
X122495196Y-98808228D01*
X122498796Y-98832497D01*
X122500000Y-98857001D01*
X122500000Y-102056999D01*
X122498796Y-102081503D01*
X122495196Y-102105772D01*
X122489235Y-102129570D01*
X122480970Y-102152670D01*
X122470480Y-102174849D01*
X122457867Y-102195892D01*
X122443252Y-102215598D01*
X122426776Y-102233776D01*
X122408598Y-102250252D01*
X122388892Y-102264867D01*
X122367849Y-102277480D01*
X122345670Y-102287970D01*
X122322570Y-102296235D01*
X122298772Y-102302196D01*
X122274503Y-102305796D01*
X122249999Y-102307000D01*
X119050001Y-102307000D01*
X119025497Y-102305796D01*
X119001228Y-102302196D01*
X118977430Y-102296235D01*
X118954330Y-102287970D01*
X118932151Y-102277480D01*
X118911108Y-102264867D01*
X118891402Y-102250252D01*
X118873224Y-102233776D01*
X118856748Y-102215598D01*
X118842133Y-102195892D01*
X118829520Y-102174849D01*
X118819030Y-102152670D01*
X118810765Y-102129570D01*
X118804804Y-102105772D01*
X118801204Y-102081503D01*
X118800000Y-102056999D01*
X118800000Y-98857001D01*
X118801204Y-98832497D01*
X118804804Y-98808228D01*
X118810765Y-98784430D01*
X118819030Y-98761330D01*
X118829520Y-98739151D01*
X118842133Y-98718108D01*
X118856748Y-98698402D01*
X118873224Y-98680224D01*
X118891402Y-98663748D01*
X118911108Y-98649133D01*
X118932151Y-98636520D01*
X118954330Y-98626030D01*
X118977430Y-98617765D01*
X119001228Y-98611804D01*
X119025497Y-98608204D01*
X119050001Y-98607000D01*
X122249999Y-98607000D01*
X122274503Y-98608204D01*
X122274503Y-98608204D01*
G37*
D19*
G04 #@! TD*
G04 #@! TO.P,J1,1*
G04 #@! TO.N,Net-(J1-Pad1)*
X120650000Y-100457000D03*
G04 #@! TO.P,J1,2*
G04 #@! TO.N,Net-(J1-Pad2)*
X120650000Y-94757000D03*
G04 #@! TO.P,J1,3*
G04 #@! TO.N,Net-(J1-Pad3)*
X120650000Y-89057000D03*
G04 #@! TO.P,J1,4*
G04 #@! TO.N,GND*
X120650000Y-83357000D03*
G04 #@! TO.P,J1,5*
G04 #@! TO.N,VCC*
X126150000Y-100457000D03*
G04 #@! TO.P,J1,6*
G04 #@! TO.N,Net-(J1-Pad6)*
X126150000Y-94757000D03*
G04 #@! TO.P,J1,7*
G04 #@! TO.N,/12(MISO)*
X126150000Y-89057000D03*
G04 #@! TO.P,J1,8*
G04 #@! TO.N,/8*
X126150000Y-83357000D03*
G04 #@! TD*
D20*
G04 #@! TO.P,J2,1*
G04 #@! TO.N,Net-(J2-Pad1)*
X171958000Y-84455000D03*
D21*
G04 #@! TO.P,J2,2*
G04 #@! TO.N,Net-(J2-Pad2)*
X171958000Y-86995000D03*
G04 #@! TO.P,J2,3*
G04 #@! TO.N,/2*
X169418000Y-84455000D03*
G04 #@! TO.P,J2,4*
G04 #@! TO.N,Net-(J2-Pad4)*
X169418000Y-86995000D03*
G04 #@! TO.P,J2,5*
G04 #@! TO.N,/3(\002A\002A)*
X166878000Y-84455000D03*
G04 #@! TO.P,J2,6*
G04 #@! TO.N,Net-(J2-Pad6)*
X166878000Y-86995000D03*
G04 #@! TO.P,J2,7*
G04 #@! TO.N,/4*
X164338000Y-84455000D03*
G04 #@! TO.P,J2,8*
G04 #@! TO.N,Net-(J2-Pad8)*
X164338000Y-86995000D03*
G04 #@! TO.P,J2,9*
G04 #@! TO.N,/5(\002A\002A)*
X161798000Y-84455000D03*
G04 #@! TO.P,J2,10*
G04 #@! TO.N,Net-(J2-Pad10)*
X161798000Y-86995000D03*
G04 #@! TO.P,J2,11*
G04 #@! TO.N,/6(\002A\002A)*
X159258000Y-84455000D03*
G04 #@! TO.P,J2,12*
G04 #@! TO.N,VCC*
X159258000Y-86995000D03*
G04 #@! TO.P,J2,13*
G04 #@! TO.N,/7*
X156718000Y-84455000D03*
G04 #@! TO.P,J2,14*
G04 #@! TO.N,GND*
X156718000Y-86995000D03*
G04 #@! TD*
D22*
G04 #@! TO.P,Q1,2*
G04 #@! TO.N,Net-(Q1-Pad2)*
X146050000Y-114427000D03*
G04 #@! TO.P,Q1,3*
G04 #@! TO.N,GND*
X147320000Y-114427000D03*
D23*
G04 #@! TO.P,Q1,1*
G04 #@! TO.N,Net-(BZ1-Pad2)*
X144780000Y-114427000D03*
G04 #@! TD*
D17*
G04 #@! TO.P,R1,2*
G04 #@! TO.N,/A5*
X174498000Y-120269000D03*
D16*
G04 #@! TO.P,R1,1*
G04 #@! TO.N,Net-(Q2-Pad2)*
X174498000Y-110109000D03*
G04 #@! TD*
G04 #@! TO.P,R2,1*
G04 #@! TO.N,Net-(Q1-Pad2)*
X150368000Y-120015000D03*
D17*
G04 #@! TO.P,R2,2*
G04 #@! TO.N,/A4*
X160528000Y-120015000D03*
G04 #@! TD*
D16*
G04 #@! TO.P,R4,1*
G04 #@! TO.N,Net-(R4-Pad1)*
X135636000Y-110109000D03*
D17*
G04 #@! TO.P,R4,2*
G04 #@! TO.N,Net-(BZ1-Pad1)*
X135636000Y-120269000D03*
G04 #@! TD*
G04 #@! TO.P,R5,2*
G04 #@! TO.N,GND*
X151892000Y-104013000D03*
D16*
G04 #@! TO.P,R5,1*
G04 #@! TO.N,/A0*
X162052000Y-104013000D03*
G04 #@! TD*
D12*
G04 #@! TO.P,RV1,3*
G04 #@! TO.N,VCC*
X141732000Y-101727000D03*
G04 #@! TO.P,RV1,2*
X146812000Y-104267000D03*
G04 #@! TO.P,RV1,1*
G04 #@! TO.N,Net-(R4-Pad1)*
X141732000Y-106807000D03*
G04 #@! TD*
D11*
G04 #@! TO.P,Q3,2*
G04 #@! TO.N,Net-(Q2-Pad2)*
X168402000Y-104521000D03*
G04 #@! TO.P,Q3,3*
G04 #@! TO.N,VCC*
X168402000Y-103251000D03*
D10*
G04 #@! TO.P,Q3,1*
G04 #@! TO.N,Net-(J3-Pad2)*
X168402000Y-105791000D03*
G04 #@! TD*
D24*
G04 #@! TO.P,J3,1*
G04 #@! TO.N,Net-(J3-Pad1)*
X165140000Y-114173000D03*
D25*
G04 #@! TO.P,J3,2*
G04 #@! TO.N,Net-(J3-Pad2)*
X162600000Y-114173000D03*
G04 #@! TO.P,J3,3*
G04 #@! TO.N,GND*
X160060000Y-114173000D03*
G04 #@! TO.P,J3,4*
G04 #@! TO.N,VCC*
X157520000Y-114173000D03*
G04 #@! TO.P,J3,5*
G04 #@! TO.N,/A0*
X154980000Y-114173000D03*
G04 #@! TD*
D26*
G04 #@! TO.N,/12(MISO)*
X142240000Y-81915000D03*
G04 #@! TD*
D27*
G04 #@! TO.N,GND*
X154178000Y-123672600D02*
X154178000Y-123825000D01*
D28*
X147320000Y-114427000D02*
X147320000Y-114039000D01*
D27*
X151638000Y-123825000D02*
X151638000Y-123672600D01*
X148844000Y-114427000D02*
X147410010Y-114427000D01*
X154178000Y-123825000D02*
X154178000Y-119761000D01*
X154178000Y-119761000D02*
X148844000Y-114427000D01*
X151892000Y-107957000D02*
X152012000Y-108077000D01*
X151892000Y-104013000D02*
X151892000Y-107957000D01*
X147410010Y-114336990D02*
X147410010Y-114427000D01*
X151212001Y-108876999D02*
X151212001Y-110534999D01*
X151212001Y-110534999D02*
X147410010Y-114336990D01*
X152012000Y-108077000D02*
X151212001Y-108876999D01*
G04 #@! TO.N,/A0*
X161798000Y-123825000D02*
X161798000Y-123672600D01*
X155140000Y-117167000D02*
X161798000Y-123825000D01*
X155140000Y-115697000D02*
X155140000Y-117167000D01*
X154980000Y-112609000D02*
X159512000Y-108077000D01*
X154980000Y-115697000D02*
X154980000Y-112609000D01*
X159512000Y-106553000D02*
X162052000Y-104013000D01*
X159512000Y-108077000D02*
X159512000Y-106553000D01*
G04 #@! TO.N,/8*
X126150000Y-83357000D02*
X129624000Y-79883000D01*
X152654000Y-75717400D02*
X152654000Y-75565000D01*
X148488400Y-79883000D02*
X152654000Y-75717400D01*
X129624000Y-79883000D02*
X148488400Y-79883000D01*
G04 #@! TO.N,/12(MISO)*
X128766295Y-89057000D02*
X129050295Y-88773000D01*
X126150000Y-89057000D02*
X128766295Y-89057000D01*
X129050295Y-88773000D02*
X135382000Y-88773000D01*
X135382000Y-88773000D02*
X141986000Y-82169000D01*
D28*
G04 #@! TO.N,Net-(BZ1-Pad1)*
X134504630Y-120269000D02*
X135636000Y-120269000D01*
X126476000Y-120269000D02*
X134504630Y-120269000D01*
X122666000Y-116459000D02*
X126476000Y-120269000D01*
X120650000Y-116459000D02*
X122666000Y-116459000D01*
G04 #@! TO.N,Net-(BZ1-Pad2)*
X130282000Y-114427000D02*
X128250000Y-116459000D01*
X144780000Y-114427000D02*
X130282000Y-114427000D01*
D27*
G04 #@! TO.N,VCC*
X144272000Y-104267000D02*
X141732000Y-101727000D01*
X146812000Y-104267000D02*
X144272000Y-104267000D01*
X127420000Y-101727000D02*
X126150000Y-100457000D01*
X152146000Y-98933000D02*
X156718000Y-98933000D01*
X146812000Y-104267000D02*
X152146000Y-98933000D01*
X141732000Y-101727000D02*
X127420000Y-101727000D01*
D28*
X168402000Y-101710000D02*
X168402000Y-103251000D01*
X165625000Y-98933000D02*
X168402000Y-101710000D01*
X156718000Y-98933000D02*
X165625000Y-98933000D01*
G04 #@! TO.N,Net-(J3-Pad1)*
X173545261Y-103251000D02*
X171450000Y-105346261D01*
X174244000Y-103251000D02*
X173545261Y-103251000D01*
X171450000Y-105346261D02*
X171450000Y-109855000D01*
X171450000Y-109855000D02*
X167894000Y-113411000D01*
X167156000Y-114173000D02*
X165140000Y-114173000D01*
X167894000Y-113435000D02*
X167156000Y-114173000D01*
X167894000Y-113411000D02*
X167894000Y-113435000D01*
G04 #@! TO.N,Net-(Q1-Pad2)*
X148336000Y-120015000D02*
X150368000Y-120015000D01*
X146050000Y-114427000D02*
X146050000Y-117729000D01*
X146050000Y-117729000D02*
X148336000Y-120015000D01*
G04 #@! TO.N,Net-(Q2-Pad2)*
X176022000Y-110109000D02*
X174498000Y-110109000D01*
X176784000Y-109347000D02*
X176022000Y-110109000D01*
X176784000Y-105295000D02*
X176784000Y-109347000D01*
X174244000Y-104521000D02*
X176010000Y-104521000D01*
X176010000Y-104521000D02*
X176784000Y-105295000D01*
X176784000Y-101981000D02*
X176784000Y-105295000D01*
X175514000Y-100711000D02*
X176784000Y-101981000D01*
X172910739Y-100711000D02*
X175514000Y-100711000D01*
X168402000Y-104521000D02*
X169100739Y-104521000D01*
X169100739Y-104521000D02*
X172910739Y-100711000D01*
G04 #@! TO.N,Net-(R4-Pad1)*
X138430000Y-110109000D02*
X141732000Y-106807000D01*
X135636000Y-110109000D02*
X138430000Y-110109000D01*
D27*
G04 #@! TO.N,/A5*
X174498000Y-123825000D02*
X174498000Y-120269000D01*
D28*
G04 #@! TO.N,Net-(J3-Pad2)*
X162600000Y-111368000D02*
X162600000Y-111857000D01*
X168177000Y-105791000D02*
X162600000Y-111368000D01*
X162600000Y-111857000D02*
X162600000Y-114173000D01*
X168402000Y-105791000D02*
X168177000Y-105791000D01*
G04 #@! TD*
M02*
