G04 #@! TF.GenerationSoftware,KiCad,Pcbnew,5.0.2+dfsg1-1*
G04 #@! TF.CreationDate,2019-08-29T13:22:36-03:00*
G04 #@! TF.ProjectId,teclado_contador_geiger,7465636c-6164-46f5-9f63-6f6e7461646f,rev?*
G04 #@! TF.SameCoordinates,Original*
G04 #@! TF.FileFunction,Copper,L1,Top*
G04 #@! TF.FilePolarity,Positive*
%FSLAX46Y46*%
G04 Gerber Fmt 4.6, Leading zero omitted, Abs format (unit mm)*
G04 Created by KiCad (PCBNEW 5.0.2+dfsg1-1) date jue 29 ago 2019 13:22:36 -03*
%MOMM*%
%LPD*%
G01*
G04 APERTURE LIST*
G04 #@! TA.AperFunction,ComponentPad*
%ADD10C,2.000000*%
G04 #@! TD*
G04 #@! TA.AperFunction,ComponentPad*
%ADD11R,1.800000X1.800000*%
G04 #@! TD*
G04 #@! TA.AperFunction,ComponentPad*
%ADD12C,1.800000*%
G04 #@! TD*
G04 #@! TA.AperFunction,ComponentPad*
%ADD13R,2.000000X2.600000*%
G04 #@! TD*
G04 #@! TA.AperFunction,ComponentPad*
%ADD14O,2.000000X2.600000*%
G04 #@! TD*
G04 #@! TA.AperFunction,ViaPad*
%ADD15C,2.000000*%
G04 #@! TD*
G04 #@! TA.AperFunction,Conductor*
%ADD16C,0.254000*%
G04 #@! TD*
G04 APERTURE END LIST*
D10*
G04 #@! TO.P,SW3,1*
G04 #@! TO.N,Net-(R2-Pad2)*
X135500000Y-75968000D03*
G04 #@! TO.P,SW3,2*
G04 #@! TO.N,+5V*
X135500000Y-80468000D03*
G04 #@! TO.P,SW3,1*
G04 #@! TO.N,Net-(R2-Pad2)*
X129000000Y-75968000D03*
G04 #@! TO.P,SW3,2*
G04 #@! TO.N,+5V*
X129000000Y-80468000D03*
G04 #@! TD*
G04 #@! TO.P,SW1,1*
G04 #@! TO.N,Net-(R1-Pad1)*
X150754000Y-86618000D03*
G04 #@! TO.P,SW1,2*
G04 #@! TO.N,+5V*
X150754000Y-91118000D03*
G04 #@! TO.P,SW1,1*
G04 #@! TO.N,Net-(R1-Pad1)*
X144254000Y-86618000D03*
G04 #@! TO.P,SW1,2*
G04 #@! TO.N,+5V*
X144254000Y-91118000D03*
G04 #@! TD*
D11*
G04 #@! TO.P,D1,1*
G04 #@! TO.N,Net-(D1-Pad1)*
X137668000Y-98552000D03*
D12*
G04 #@! TO.P,D1,2*
G04 #@! TO.N,Net-(D1-Pad2)*
X140208000Y-98552000D03*
G04 #@! TD*
D10*
G04 #@! TO.P,SW2,2*
G04 #@! TO.N,+5V*
X114254000Y-91114000D03*
G04 #@! TO.P,SW2,1*
G04 #@! TO.N,Net-(R1-Pad2)*
X114254000Y-86614000D03*
G04 #@! TO.P,SW2,2*
G04 #@! TO.N,+5V*
X120754000Y-91114000D03*
G04 #@! TO.P,SW2,1*
G04 #@! TO.N,Net-(R1-Pad2)*
X120754000Y-86614000D03*
G04 #@! TD*
G04 #@! TO.P,SW4,2*
G04 #@! TO.N,+5V*
X144270000Y-66142000D03*
G04 #@! TO.P,SW4,1*
G04 #@! TO.N,Net-(R3-Pad2)*
X144270000Y-61642000D03*
G04 #@! TO.P,SW4,2*
G04 #@! TO.N,+5V*
X150770000Y-66142000D03*
G04 #@! TO.P,SW4,1*
G04 #@! TO.N,Net-(R3-Pad2)*
X150770000Y-61642000D03*
G04 #@! TD*
G04 #@! TO.P,SW5,2*
G04 #@! TO.N,+5V*
X129600000Y-55500000D03*
G04 #@! TO.P,SW5,1*
G04 #@! TO.N,Net-(R4-Pad2)*
X129600000Y-51000000D03*
G04 #@! TO.P,SW5,2*
G04 #@! TO.N,+5V*
X136100000Y-55500000D03*
G04 #@! TO.P,SW5,1*
G04 #@! TO.N,Net-(R4-Pad2)*
X136100000Y-51000000D03*
G04 #@! TD*
G04 #@! TO.P,SW6,2*
G04 #@! TO.N,+5V*
X114300000Y-66142000D03*
G04 #@! TO.P,SW6,1*
G04 #@! TO.N,/teclado_out*
X114300000Y-61642000D03*
G04 #@! TO.P,SW6,2*
G04 #@! TO.N,+5V*
X120800000Y-66142000D03*
G04 #@! TO.P,SW6,1*
G04 #@! TO.N,/teclado_out*
X120800000Y-61642000D03*
G04 #@! TD*
D11*
G04 #@! TO.P,D2,1*
G04 #@! TO.N,GND*
X147320000Y-98298000D03*
D12*
G04 #@! TO.P,D2,2*
G04 #@! TO.N,Net-(D2-Pad2)*
X149860000Y-98298000D03*
G04 #@! TD*
D13*
G04 #@! TO.P,J1,1*
G04 #@! TO.N,/teclado_out*
X120650000Y-98806000D03*
D14*
G04 #@! TO.P,J1,2*
G04 #@! TO.N,+5V*
X123190000Y-98806000D03*
G04 #@! TO.P,J1,3*
G04 #@! TO.N,GND*
X125730000Y-98806000D03*
G04 #@! TO.P,J1,4*
G04 #@! TO.N,Net-(J1-Pad4)*
X128270000Y-98806000D03*
G04 #@! TO.P,J1,5*
G04 #@! TO.N,Net-(D1-Pad1)*
X130810000Y-98806000D03*
G04 #@! TD*
D15*
G04 #@! TO.N,GND*
X109728000Y-99060000D03*
X132000000Y-68000000D03*
X147000000Y-52000000D03*
X155956000Y-99060000D03*
X117602000Y-72898000D03*
X146304000Y-73660000D03*
X118000000Y-52000000D03*
X132000000Y-87000000D03*
G04 #@! TD*
D16*
G04 #@! TO.N,GND*
G36*
X159385000Y-104775594D02*
X105537561Y-105028399D01*
X105570553Y-97506000D01*
X118500921Y-97506000D01*
X118500921Y-100106000D01*
X118588389Y-100545733D01*
X118837478Y-100918522D01*
X119210267Y-101167611D01*
X119650000Y-101255079D01*
X121650000Y-101255079D01*
X122089733Y-101167611D01*
X122268328Y-101048278D01*
X122360087Y-101109590D01*
X123190000Y-101274670D01*
X124019914Y-101109590D01*
X124723481Y-100639481D01*
X124846899Y-100454773D01*
X125221645Y-100665144D01*
X125349566Y-100696124D01*
X125603000Y-100576777D01*
X125603000Y-98933000D01*
X125583000Y-98933000D01*
X125583000Y-98679000D01*
X125603000Y-98679000D01*
X125603000Y-97035223D01*
X125857000Y-97035223D01*
X125857000Y-98679000D01*
X125877000Y-98679000D01*
X125877000Y-98933000D01*
X125857000Y-98933000D01*
X125857000Y-100576777D01*
X126110434Y-100696124D01*
X126238355Y-100665144D01*
X126613102Y-100454773D01*
X126736520Y-100639481D01*
X127440087Y-101109590D01*
X128270000Y-101274670D01*
X129099914Y-101109590D01*
X129540000Y-100815533D01*
X129980087Y-101109590D01*
X130810000Y-101274670D01*
X131639914Y-101109590D01*
X132343481Y-100639481D01*
X132813590Y-99935913D01*
X132937000Y-99315488D01*
X132937000Y-98296511D01*
X132813590Y-97676086D01*
X132797497Y-97652000D01*
X135618921Y-97652000D01*
X135618921Y-99452000D01*
X135706389Y-99891733D01*
X135955478Y-100264522D01*
X136328267Y-100513611D01*
X136768000Y-100601079D01*
X138568000Y-100601079D01*
X139007733Y-100513611D01*
X139252348Y-100350165D01*
X139804805Y-100579000D01*
X140611195Y-100579000D01*
X141356203Y-100270407D01*
X141926407Y-99700203D01*
X142235000Y-98955195D01*
X142235000Y-98583750D01*
X145785000Y-98583750D01*
X145785000Y-99324310D01*
X145881673Y-99557699D01*
X146060302Y-99736327D01*
X146293691Y-99833000D01*
X147034250Y-99833000D01*
X147193000Y-99674250D01*
X147193000Y-98425000D01*
X145943750Y-98425000D01*
X145785000Y-98583750D01*
X142235000Y-98583750D01*
X142235000Y-98148805D01*
X141926407Y-97403797D01*
X141794300Y-97271690D01*
X145785000Y-97271690D01*
X145785000Y-98012250D01*
X145943750Y-98171000D01*
X147193000Y-98171000D01*
X147193000Y-96921750D01*
X147447000Y-96921750D01*
X147447000Y-98171000D01*
X147467000Y-98171000D01*
X147467000Y-98425000D01*
X147447000Y-98425000D01*
X147447000Y-99674250D01*
X147605750Y-99833000D01*
X148346309Y-99833000D01*
X148475060Y-99779670D01*
X148711797Y-100016407D01*
X149456805Y-100325000D01*
X150263195Y-100325000D01*
X151008203Y-100016407D01*
X151578407Y-99446203D01*
X151887000Y-98701195D01*
X151887000Y-97894805D01*
X151578407Y-97149797D01*
X151008203Y-96579593D01*
X150263195Y-96271000D01*
X149456805Y-96271000D01*
X148711797Y-96579593D01*
X148475060Y-96816330D01*
X148346309Y-96763000D01*
X147605750Y-96763000D01*
X147447000Y-96921750D01*
X147193000Y-96921750D01*
X147034250Y-96763000D01*
X146293691Y-96763000D01*
X146060302Y-96859673D01*
X145881673Y-97038301D01*
X145785000Y-97271690D01*
X141794300Y-97271690D01*
X141356203Y-96833593D01*
X140611195Y-96525000D01*
X139804805Y-96525000D01*
X139252348Y-96753835D01*
X139007733Y-96590389D01*
X138568000Y-96502921D01*
X136768000Y-96502921D01*
X136328267Y-96590389D01*
X135955478Y-96839478D01*
X135706389Y-97212267D01*
X135618921Y-97652000D01*
X132797497Y-97652000D01*
X132343481Y-96972519D01*
X131639913Y-96502410D01*
X130810000Y-96337330D01*
X129980086Y-96502410D01*
X129540000Y-96796467D01*
X129099913Y-96502410D01*
X128270000Y-96337330D01*
X127440086Y-96502410D01*
X126736519Y-96972519D01*
X126613101Y-97157227D01*
X126238355Y-96946856D01*
X126110434Y-96915876D01*
X125857000Y-97035223D01*
X125603000Y-97035223D01*
X125349566Y-96915876D01*
X125221645Y-96946856D01*
X124846899Y-97157227D01*
X124723481Y-96972519D01*
X124019913Y-96502410D01*
X123190000Y-96337330D01*
X122360086Y-96502410D01*
X122268327Y-96563721D01*
X122089733Y-96444389D01*
X121650000Y-96356921D01*
X119650000Y-96356921D01*
X119210267Y-96444389D01*
X118837478Y-96693478D01*
X118588389Y-97066267D01*
X118500921Y-97506000D01*
X105570553Y-97506000D01*
X105600444Y-90690913D01*
X112127000Y-90690913D01*
X112127000Y-91537087D01*
X112450817Y-92318848D01*
X113049152Y-92917183D01*
X113830913Y-93241000D01*
X114677087Y-93241000D01*
X115458848Y-92917183D01*
X116057183Y-92318848D01*
X116381000Y-91537087D01*
X116381000Y-90690913D01*
X118627000Y-90690913D01*
X118627000Y-91537087D01*
X118950817Y-92318848D01*
X119549152Y-92917183D01*
X120330913Y-93241000D01*
X121177087Y-93241000D01*
X121958848Y-92917183D01*
X122557183Y-92318848D01*
X122881000Y-91537087D01*
X122881000Y-90694913D01*
X142127000Y-90694913D01*
X142127000Y-91541087D01*
X142450817Y-92322848D01*
X143049152Y-92921183D01*
X143830913Y-93245000D01*
X144677087Y-93245000D01*
X145458848Y-92921183D01*
X146057183Y-92322848D01*
X146381000Y-91541087D01*
X146381000Y-90694913D01*
X148627000Y-90694913D01*
X148627000Y-91541087D01*
X148950817Y-92322848D01*
X149549152Y-92921183D01*
X150330913Y-93245000D01*
X151177087Y-93245000D01*
X151958848Y-92921183D01*
X152557183Y-92322848D01*
X152881000Y-91541087D01*
X152881000Y-90694913D01*
X152557183Y-89913152D01*
X151958848Y-89314817D01*
X151177087Y-88991000D01*
X150330913Y-88991000D01*
X149549152Y-89314817D01*
X148950817Y-89913152D01*
X148627000Y-90694913D01*
X146381000Y-90694913D01*
X146057183Y-89913152D01*
X145458848Y-89314817D01*
X144677087Y-88991000D01*
X143830913Y-88991000D01*
X143049152Y-89314817D01*
X142450817Y-89913152D01*
X142127000Y-90694913D01*
X122881000Y-90694913D01*
X122881000Y-90690913D01*
X122557183Y-89909152D01*
X121958848Y-89310817D01*
X121177087Y-88987000D01*
X120330913Y-88987000D01*
X119549152Y-89310817D01*
X118950817Y-89909152D01*
X118627000Y-90690913D01*
X116381000Y-90690913D01*
X116057183Y-89909152D01*
X115458848Y-89310817D01*
X114677087Y-88987000D01*
X113830913Y-88987000D01*
X113049152Y-89310817D01*
X112450817Y-89909152D01*
X112127000Y-90690913D01*
X105600444Y-90690913D01*
X105620180Y-86190913D01*
X112127000Y-86190913D01*
X112127000Y-87037087D01*
X112450817Y-87818848D01*
X113049152Y-88417183D01*
X113830913Y-88741000D01*
X114677087Y-88741000D01*
X115458848Y-88417183D01*
X116057183Y-87818848D01*
X116381000Y-87037087D01*
X116381000Y-86190913D01*
X118627000Y-86190913D01*
X118627000Y-87037087D01*
X118950817Y-87818848D01*
X119549152Y-88417183D01*
X120330913Y-88741000D01*
X121177087Y-88741000D01*
X121958848Y-88417183D01*
X122557183Y-87818848D01*
X122881000Y-87037087D01*
X122881000Y-86194913D01*
X142127000Y-86194913D01*
X142127000Y-87041087D01*
X142450817Y-87822848D01*
X143049152Y-88421183D01*
X143830913Y-88745000D01*
X144677087Y-88745000D01*
X145458848Y-88421183D01*
X146057183Y-87822848D01*
X146381000Y-87041087D01*
X146381000Y-86194913D01*
X148627000Y-86194913D01*
X148627000Y-87041087D01*
X148950817Y-87822848D01*
X149549152Y-88421183D01*
X150330913Y-88745000D01*
X151177087Y-88745000D01*
X151958848Y-88421183D01*
X152557183Y-87822848D01*
X152881000Y-87041087D01*
X152881000Y-86194913D01*
X152557183Y-85413152D01*
X151958848Y-84814817D01*
X151177087Y-84491000D01*
X150330913Y-84491000D01*
X149549152Y-84814817D01*
X148950817Y-85413152D01*
X148627000Y-86194913D01*
X146381000Y-86194913D01*
X146057183Y-85413152D01*
X145458848Y-84814817D01*
X144677087Y-84491000D01*
X143830913Y-84491000D01*
X143049152Y-84814817D01*
X142450817Y-85413152D01*
X142127000Y-86194913D01*
X122881000Y-86194913D01*
X122881000Y-86190913D01*
X122557183Y-85409152D01*
X121958848Y-84810817D01*
X121177087Y-84487000D01*
X120330913Y-84487000D01*
X119549152Y-84810817D01*
X118950817Y-85409152D01*
X118627000Y-86190913D01*
X116381000Y-86190913D01*
X116057183Y-85409152D01*
X115458848Y-84810817D01*
X114677087Y-84487000D01*
X113830913Y-84487000D01*
X113049152Y-84810817D01*
X112450817Y-85409152D01*
X112127000Y-86190913D01*
X105620180Y-86190913D01*
X105647136Y-80044913D01*
X126873000Y-80044913D01*
X126873000Y-80891087D01*
X127196817Y-81672848D01*
X127795152Y-82271183D01*
X128576913Y-82595000D01*
X129423087Y-82595000D01*
X130204848Y-82271183D01*
X130803183Y-81672848D01*
X131127000Y-80891087D01*
X131127000Y-80044913D01*
X133373000Y-80044913D01*
X133373000Y-80891087D01*
X133696817Y-81672848D01*
X134295152Y-82271183D01*
X135076913Y-82595000D01*
X135923087Y-82595000D01*
X136704848Y-82271183D01*
X137303183Y-81672848D01*
X137627000Y-80891087D01*
X137627000Y-80044913D01*
X137303183Y-79263152D01*
X136704848Y-78664817D01*
X135923087Y-78341000D01*
X135076913Y-78341000D01*
X134295152Y-78664817D01*
X133696817Y-79263152D01*
X133373000Y-80044913D01*
X131127000Y-80044913D01*
X130803183Y-79263152D01*
X130204848Y-78664817D01*
X129423087Y-78341000D01*
X128576913Y-78341000D01*
X127795152Y-78664817D01*
X127196817Y-79263152D01*
X126873000Y-80044913D01*
X105647136Y-80044913D01*
X105666873Y-75544913D01*
X126873000Y-75544913D01*
X126873000Y-76391087D01*
X127196817Y-77172848D01*
X127795152Y-77771183D01*
X128576913Y-78095000D01*
X129423087Y-78095000D01*
X130204848Y-77771183D01*
X130803183Y-77172848D01*
X131127000Y-76391087D01*
X131127000Y-75544913D01*
X133373000Y-75544913D01*
X133373000Y-76391087D01*
X133696817Y-77172848D01*
X134295152Y-77771183D01*
X135076913Y-78095000D01*
X135923087Y-78095000D01*
X136704848Y-77771183D01*
X137303183Y-77172848D01*
X137627000Y-76391087D01*
X137627000Y-75544913D01*
X137303183Y-74763152D01*
X136704848Y-74164817D01*
X135923087Y-73841000D01*
X135076913Y-73841000D01*
X134295152Y-74164817D01*
X133696817Y-74763152D01*
X133373000Y-75544913D01*
X131127000Y-75544913D01*
X130803183Y-74763152D01*
X130204848Y-74164817D01*
X129423087Y-73841000D01*
X128576913Y-73841000D01*
X127795152Y-74164817D01*
X127196817Y-74763152D01*
X126873000Y-75544913D01*
X105666873Y-75544913D01*
X105709970Y-65718913D01*
X112173000Y-65718913D01*
X112173000Y-66565087D01*
X112496817Y-67346848D01*
X113095152Y-67945183D01*
X113876913Y-68269000D01*
X114723087Y-68269000D01*
X115504848Y-67945183D01*
X116103183Y-67346848D01*
X116427000Y-66565087D01*
X116427000Y-65718913D01*
X118673000Y-65718913D01*
X118673000Y-66565087D01*
X118996817Y-67346848D01*
X119595152Y-67945183D01*
X120376913Y-68269000D01*
X121223087Y-68269000D01*
X122004848Y-67945183D01*
X122603183Y-67346848D01*
X122927000Y-66565087D01*
X122927000Y-65718913D01*
X142143000Y-65718913D01*
X142143000Y-66565087D01*
X142466817Y-67346848D01*
X143065152Y-67945183D01*
X143846913Y-68269000D01*
X144693087Y-68269000D01*
X145474848Y-67945183D01*
X146073183Y-67346848D01*
X146397000Y-66565087D01*
X146397000Y-65718913D01*
X148643000Y-65718913D01*
X148643000Y-66565087D01*
X148966817Y-67346848D01*
X149565152Y-67945183D01*
X150346913Y-68269000D01*
X151193087Y-68269000D01*
X151974848Y-67945183D01*
X152573183Y-67346848D01*
X152897000Y-66565087D01*
X152897000Y-65718913D01*
X152573183Y-64937152D01*
X151974848Y-64338817D01*
X151193087Y-64015000D01*
X150346913Y-64015000D01*
X149565152Y-64338817D01*
X148966817Y-64937152D01*
X148643000Y-65718913D01*
X146397000Y-65718913D01*
X146073183Y-64937152D01*
X145474848Y-64338817D01*
X144693087Y-64015000D01*
X143846913Y-64015000D01*
X143065152Y-64338817D01*
X142466817Y-64937152D01*
X142143000Y-65718913D01*
X122927000Y-65718913D01*
X122603183Y-64937152D01*
X122004848Y-64338817D01*
X121223087Y-64015000D01*
X120376913Y-64015000D01*
X119595152Y-64338817D01*
X118996817Y-64937152D01*
X118673000Y-65718913D01*
X116427000Y-65718913D01*
X116103183Y-64937152D01*
X115504848Y-64338817D01*
X114723087Y-64015000D01*
X113876913Y-64015000D01*
X113095152Y-64338817D01*
X112496817Y-64937152D01*
X112173000Y-65718913D01*
X105709970Y-65718913D01*
X105729707Y-61218913D01*
X112173000Y-61218913D01*
X112173000Y-62065087D01*
X112496817Y-62846848D01*
X113095152Y-63445183D01*
X113876913Y-63769000D01*
X114723087Y-63769000D01*
X115504848Y-63445183D01*
X116103183Y-62846848D01*
X116427000Y-62065087D01*
X116427000Y-61218913D01*
X118673000Y-61218913D01*
X118673000Y-62065087D01*
X118996817Y-62846848D01*
X119595152Y-63445183D01*
X120376913Y-63769000D01*
X121223087Y-63769000D01*
X122004848Y-63445183D01*
X122603183Y-62846848D01*
X122927000Y-62065087D01*
X122927000Y-61218913D01*
X142143000Y-61218913D01*
X142143000Y-62065087D01*
X142466817Y-62846848D01*
X143065152Y-63445183D01*
X143846913Y-63769000D01*
X144693087Y-63769000D01*
X145474848Y-63445183D01*
X146073183Y-62846848D01*
X146397000Y-62065087D01*
X146397000Y-61218913D01*
X148643000Y-61218913D01*
X148643000Y-62065087D01*
X148966817Y-62846848D01*
X149565152Y-63445183D01*
X150346913Y-63769000D01*
X151193087Y-63769000D01*
X151974848Y-63445183D01*
X152573183Y-62846848D01*
X152897000Y-62065087D01*
X152897000Y-61218913D01*
X152573183Y-60437152D01*
X151974848Y-59838817D01*
X151193087Y-59515000D01*
X150346913Y-59515000D01*
X149565152Y-59838817D01*
X148966817Y-60437152D01*
X148643000Y-61218913D01*
X146397000Y-61218913D01*
X146073183Y-60437152D01*
X145474848Y-59838817D01*
X144693087Y-59515000D01*
X143846913Y-59515000D01*
X143065152Y-59838817D01*
X142466817Y-60437152D01*
X142143000Y-61218913D01*
X122927000Y-61218913D01*
X122603183Y-60437152D01*
X122004848Y-59838817D01*
X121223087Y-59515000D01*
X120376913Y-59515000D01*
X119595152Y-59838817D01*
X118996817Y-60437152D01*
X118673000Y-61218913D01*
X116427000Y-61218913D01*
X116103183Y-60437152D01*
X115504848Y-59838817D01*
X114723087Y-59515000D01*
X113876913Y-59515000D01*
X113095152Y-59838817D01*
X112496817Y-60437152D01*
X112173000Y-61218913D01*
X105729707Y-61218913D01*
X105756646Y-55076913D01*
X127473000Y-55076913D01*
X127473000Y-55923087D01*
X127796817Y-56704848D01*
X128395152Y-57303183D01*
X129176913Y-57627000D01*
X130023087Y-57627000D01*
X130804848Y-57303183D01*
X131403183Y-56704848D01*
X131727000Y-55923087D01*
X131727000Y-55076913D01*
X133973000Y-55076913D01*
X133973000Y-55923087D01*
X134296817Y-56704848D01*
X134895152Y-57303183D01*
X135676913Y-57627000D01*
X136523087Y-57627000D01*
X137304848Y-57303183D01*
X137903183Y-56704848D01*
X138227000Y-55923087D01*
X138227000Y-55076913D01*
X137903183Y-54295152D01*
X137304848Y-53696817D01*
X136523087Y-53373000D01*
X135676913Y-53373000D01*
X134895152Y-53696817D01*
X134296817Y-54295152D01*
X133973000Y-55076913D01*
X131727000Y-55076913D01*
X131403183Y-54295152D01*
X130804848Y-53696817D01*
X130023087Y-53373000D01*
X129176913Y-53373000D01*
X128395152Y-53696817D01*
X127796817Y-54295152D01*
X127473000Y-55076913D01*
X105756646Y-55076913D01*
X105776383Y-50576913D01*
X127473000Y-50576913D01*
X127473000Y-51423087D01*
X127796817Y-52204848D01*
X128395152Y-52803183D01*
X129176913Y-53127000D01*
X130023087Y-53127000D01*
X130804848Y-52803183D01*
X131403183Y-52204848D01*
X131727000Y-51423087D01*
X131727000Y-50576913D01*
X133973000Y-50576913D01*
X133973000Y-51423087D01*
X134296817Y-52204848D01*
X134895152Y-52803183D01*
X135676913Y-53127000D01*
X136523087Y-53127000D01*
X137304848Y-52803183D01*
X137903183Y-52204848D01*
X138227000Y-51423087D01*
X138227000Y-50576913D01*
X137903183Y-49795152D01*
X137304848Y-49196817D01*
X136523087Y-48873000D01*
X135676913Y-48873000D01*
X134895152Y-49196817D01*
X134296817Y-49795152D01*
X133973000Y-50576913D01*
X131727000Y-50576913D01*
X131403183Y-49795152D01*
X130804848Y-49196817D01*
X130023087Y-48873000D01*
X129176913Y-48873000D01*
X128395152Y-49196817D01*
X127796817Y-49795152D01*
X127473000Y-50576913D01*
X105776383Y-50576913D01*
X105790447Y-47370405D01*
X159385000Y-47117601D01*
X159385000Y-104775594D01*
X159385000Y-104775594D01*
G37*
X159385000Y-104775594D02*
X105537561Y-105028399D01*
X105570553Y-97506000D01*
X118500921Y-97506000D01*
X118500921Y-100106000D01*
X118588389Y-100545733D01*
X118837478Y-100918522D01*
X119210267Y-101167611D01*
X119650000Y-101255079D01*
X121650000Y-101255079D01*
X122089733Y-101167611D01*
X122268328Y-101048278D01*
X122360087Y-101109590D01*
X123190000Y-101274670D01*
X124019914Y-101109590D01*
X124723481Y-100639481D01*
X124846899Y-100454773D01*
X125221645Y-100665144D01*
X125349566Y-100696124D01*
X125603000Y-100576777D01*
X125603000Y-98933000D01*
X125583000Y-98933000D01*
X125583000Y-98679000D01*
X125603000Y-98679000D01*
X125603000Y-97035223D01*
X125857000Y-97035223D01*
X125857000Y-98679000D01*
X125877000Y-98679000D01*
X125877000Y-98933000D01*
X125857000Y-98933000D01*
X125857000Y-100576777D01*
X126110434Y-100696124D01*
X126238355Y-100665144D01*
X126613102Y-100454773D01*
X126736520Y-100639481D01*
X127440087Y-101109590D01*
X128270000Y-101274670D01*
X129099914Y-101109590D01*
X129540000Y-100815533D01*
X129980087Y-101109590D01*
X130810000Y-101274670D01*
X131639914Y-101109590D01*
X132343481Y-100639481D01*
X132813590Y-99935913D01*
X132937000Y-99315488D01*
X132937000Y-98296511D01*
X132813590Y-97676086D01*
X132797497Y-97652000D01*
X135618921Y-97652000D01*
X135618921Y-99452000D01*
X135706389Y-99891733D01*
X135955478Y-100264522D01*
X136328267Y-100513611D01*
X136768000Y-100601079D01*
X138568000Y-100601079D01*
X139007733Y-100513611D01*
X139252348Y-100350165D01*
X139804805Y-100579000D01*
X140611195Y-100579000D01*
X141356203Y-100270407D01*
X141926407Y-99700203D01*
X142235000Y-98955195D01*
X142235000Y-98583750D01*
X145785000Y-98583750D01*
X145785000Y-99324310D01*
X145881673Y-99557699D01*
X146060302Y-99736327D01*
X146293691Y-99833000D01*
X147034250Y-99833000D01*
X147193000Y-99674250D01*
X147193000Y-98425000D01*
X145943750Y-98425000D01*
X145785000Y-98583750D01*
X142235000Y-98583750D01*
X142235000Y-98148805D01*
X141926407Y-97403797D01*
X141794300Y-97271690D01*
X145785000Y-97271690D01*
X145785000Y-98012250D01*
X145943750Y-98171000D01*
X147193000Y-98171000D01*
X147193000Y-96921750D01*
X147447000Y-96921750D01*
X147447000Y-98171000D01*
X147467000Y-98171000D01*
X147467000Y-98425000D01*
X147447000Y-98425000D01*
X147447000Y-99674250D01*
X147605750Y-99833000D01*
X148346309Y-99833000D01*
X148475060Y-99779670D01*
X148711797Y-100016407D01*
X149456805Y-100325000D01*
X150263195Y-100325000D01*
X151008203Y-100016407D01*
X151578407Y-99446203D01*
X151887000Y-98701195D01*
X151887000Y-97894805D01*
X151578407Y-97149797D01*
X151008203Y-96579593D01*
X150263195Y-96271000D01*
X149456805Y-96271000D01*
X148711797Y-96579593D01*
X148475060Y-96816330D01*
X148346309Y-96763000D01*
X147605750Y-96763000D01*
X147447000Y-96921750D01*
X147193000Y-96921750D01*
X147034250Y-96763000D01*
X146293691Y-96763000D01*
X146060302Y-96859673D01*
X145881673Y-97038301D01*
X145785000Y-97271690D01*
X141794300Y-97271690D01*
X141356203Y-96833593D01*
X140611195Y-96525000D01*
X139804805Y-96525000D01*
X139252348Y-96753835D01*
X139007733Y-96590389D01*
X138568000Y-96502921D01*
X136768000Y-96502921D01*
X136328267Y-96590389D01*
X135955478Y-96839478D01*
X135706389Y-97212267D01*
X135618921Y-97652000D01*
X132797497Y-97652000D01*
X132343481Y-96972519D01*
X131639913Y-96502410D01*
X130810000Y-96337330D01*
X129980086Y-96502410D01*
X129540000Y-96796467D01*
X129099913Y-96502410D01*
X128270000Y-96337330D01*
X127440086Y-96502410D01*
X126736519Y-96972519D01*
X126613101Y-97157227D01*
X126238355Y-96946856D01*
X126110434Y-96915876D01*
X125857000Y-97035223D01*
X125603000Y-97035223D01*
X125349566Y-96915876D01*
X125221645Y-96946856D01*
X124846899Y-97157227D01*
X124723481Y-96972519D01*
X124019913Y-96502410D01*
X123190000Y-96337330D01*
X122360086Y-96502410D01*
X122268327Y-96563721D01*
X122089733Y-96444389D01*
X121650000Y-96356921D01*
X119650000Y-96356921D01*
X119210267Y-96444389D01*
X118837478Y-96693478D01*
X118588389Y-97066267D01*
X118500921Y-97506000D01*
X105570553Y-97506000D01*
X105600444Y-90690913D01*
X112127000Y-90690913D01*
X112127000Y-91537087D01*
X112450817Y-92318848D01*
X113049152Y-92917183D01*
X113830913Y-93241000D01*
X114677087Y-93241000D01*
X115458848Y-92917183D01*
X116057183Y-92318848D01*
X116381000Y-91537087D01*
X116381000Y-90690913D01*
X118627000Y-90690913D01*
X118627000Y-91537087D01*
X118950817Y-92318848D01*
X119549152Y-92917183D01*
X120330913Y-93241000D01*
X121177087Y-93241000D01*
X121958848Y-92917183D01*
X122557183Y-92318848D01*
X122881000Y-91537087D01*
X122881000Y-90694913D01*
X142127000Y-90694913D01*
X142127000Y-91541087D01*
X142450817Y-92322848D01*
X143049152Y-92921183D01*
X143830913Y-93245000D01*
X144677087Y-93245000D01*
X145458848Y-92921183D01*
X146057183Y-92322848D01*
X146381000Y-91541087D01*
X146381000Y-90694913D01*
X148627000Y-90694913D01*
X148627000Y-91541087D01*
X148950817Y-92322848D01*
X149549152Y-92921183D01*
X150330913Y-93245000D01*
X151177087Y-93245000D01*
X151958848Y-92921183D01*
X152557183Y-92322848D01*
X152881000Y-91541087D01*
X152881000Y-90694913D01*
X152557183Y-89913152D01*
X151958848Y-89314817D01*
X151177087Y-88991000D01*
X150330913Y-88991000D01*
X149549152Y-89314817D01*
X148950817Y-89913152D01*
X148627000Y-90694913D01*
X146381000Y-90694913D01*
X146057183Y-89913152D01*
X145458848Y-89314817D01*
X144677087Y-88991000D01*
X143830913Y-88991000D01*
X143049152Y-89314817D01*
X142450817Y-89913152D01*
X142127000Y-90694913D01*
X122881000Y-90694913D01*
X122881000Y-90690913D01*
X122557183Y-89909152D01*
X121958848Y-89310817D01*
X121177087Y-88987000D01*
X120330913Y-88987000D01*
X119549152Y-89310817D01*
X118950817Y-89909152D01*
X118627000Y-90690913D01*
X116381000Y-90690913D01*
X116057183Y-89909152D01*
X115458848Y-89310817D01*
X114677087Y-88987000D01*
X113830913Y-88987000D01*
X113049152Y-89310817D01*
X112450817Y-89909152D01*
X112127000Y-90690913D01*
X105600444Y-90690913D01*
X105620180Y-86190913D01*
X112127000Y-86190913D01*
X112127000Y-87037087D01*
X112450817Y-87818848D01*
X113049152Y-88417183D01*
X113830913Y-88741000D01*
X114677087Y-88741000D01*
X115458848Y-88417183D01*
X116057183Y-87818848D01*
X116381000Y-87037087D01*
X116381000Y-86190913D01*
X118627000Y-86190913D01*
X118627000Y-87037087D01*
X118950817Y-87818848D01*
X119549152Y-88417183D01*
X120330913Y-88741000D01*
X121177087Y-88741000D01*
X121958848Y-88417183D01*
X122557183Y-87818848D01*
X122881000Y-87037087D01*
X122881000Y-86194913D01*
X142127000Y-86194913D01*
X142127000Y-87041087D01*
X142450817Y-87822848D01*
X143049152Y-88421183D01*
X143830913Y-88745000D01*
X144677087Y-88745000D01*
X145458848Y-88421183D01*
X146057183Y-87822848D01*
X146381000Y-87041087D01*
X146381000Y-86194913D01*
X148627000Y-86194913D01*
X148627000Y-87041087D01*
X148950817Y-87822848D01*
X149549152Y-88421183D01*
X150330913Y-88745000D01*
X151177087Y-88745000D01*
X151958848Y-88421183D01*
X152557183Y-87822848D01*
X152881000Y-87041087D01*
X152881000Y-86194913D01*
X152557183Y-85413152D01*
X151958848Y-84814817D01*
X151177087Y-84491000D01*
X150330913Y-84491000D01*
X149549152Y-84814817D01*
X148950817Y-85413152D01*
X148627000Y-86194913D01*
X146381000Y-86194913D01*
X146057183Y-85413152D01*
X145458848Y-84814817D01*
X144677087Y-84491000D01*
X143830913Y-84491000D01*
X143049152Y-84814817D01*
X142450817Y-85413152D01*
X142127000Y-86194913D01*
X122881000Y-86194913D01*
X122881000Y-86190913D01*
X122557183Y-85409152D01*
X121958848Y-84810817D01*
X121177087Y-84487000D01*
X120330913Y-84487000D01*
X119549152Y-84810817D01*
X118950817Y-85409152D01*
X118627000Y-86190913D01*
X116381000Y-86190913D01*
X116057183Y-85409152D01*
X115458848Y-84810817D01*
X114677087Y-84487000D01*
X113830913Y-84487000D01*
X113049152Y-84810817D01*
X112450817Y-85409152D01*
X112127000Y-86190913D01*
X105620180Y-86190913D01*
X105647136Y-80044913D01*
X126873000Y-80044913D01*
X126873000Y-80891087D01*
X127196817Y-81672848D01*
X127795152Y-82271183D01*
X128576913Y-82595000D01*
X129423087Y-82595000D01*
X130204848Y-82271183D01*
X130803183Y-81672848D01*
X131127000Y-80891087D01*
X131127000Y-80044913D01*
X133373000Y-80044913D01*
X133373000Y-80891087D01*
X133696817Y-81672848D01*
X134295152Y-82271183D01*
X135076913Y-82595000D01*
X135923087Y-82595000D01*
X136704848Y-82271183D01*
X137303183Y-81672848D01*
X137627000Y-80891087D01*
X137627000Y-80044913D01*
X137303183Y-79263152D01*
X136704848Y-78664817D01*
X135923087Y-78341000D01*
X135076913Y-78341000D01*
X134295152Y-78664817D01*
X133696817Y-79263152D01*
X133373000Y-80044913D01*
X131127000Y-80044913D01*
X130803183Y-79263152D01*
X130204848Y-78664817D01*
X129423087Y-78341000D01*
X128576913Y-78341000D01*
X127795152Y-78664817D01*
X127196817Y-79263152D01*
X126873000Y-80044913D01*
X105647136Y-80044913D01*
X105666873Y-75544913D01*
X126873000Y-75544913D01*
X126873000Y-76391087D01*
X127196817Y-77172848D01*
X127795152Y-77771183D01*
X128576913Y-78095000D01*
X129423087Y-78095000D01*
X130204848Y-77771183D01*
X130803183Y-77172848D01*
X131127000Y-76391087D01*
X131127000Y-75544913D01*
X133373000Y-75544913D01*
X133373000Y-76391087D01*
X133696817Y-77172848D01*
X134295152Y-77771183D01*
X135076913Y-78095000D01*
X135923087Y-78095000D01*
X136704848Y-77771183D01*
X137303183Y-77172848D01*
X137627000Y-76391087D01*
X137627000Y-75544913D01*
X137303183Y-74763152D01*
X136704848Y-74164817D01*
X135923087Y-73841000D01*
X135076913Y-73841000D01*
X134295152Y-74164817D01*
X133696817Y-74763152D01*
X133373000Y-75544913D01*
X131127000Y-75544913D01*
X130803183Y-74763152D01*
X130204848Y-74164817D01*
X129423087Y-73841000D01*
X128576913Y-73841000D01*
X127795152Y-74164817D01*
X127196817Y-74763152D01*
X126873000Y-75544913D01*
X105666873Y-75544913D01*
X105709970Y-65718913D01*
X112173000Y-65718913D01*
X112173000Y-66565087D01*
X112496817Y-67346848D01*
X113095152Y-67945183D01*
X113876913Y-68269000D01*
X114723087Y-68269000D01*
X115504848Y-67945183D01*
X116103183Y-67346848D01*
X116427000Y-66565087D01*
X116427000Y-65718913D01*
X118673000Y-65718913D01*
X118673000Y-66565087D01*
X118996817Y-67346848D01*
X119595152Y-67945183D01*
X120376913Y-68269000D01*
X121223087Y-68269000D01*
X122004848Y-67945183D01*
X122603183Y-67346848D01*
X122927000Y-66565087D01*
X122927000Y-65718913D01*
X142143000Y-65718913D01*
X142143000Y-66565087D01*
X142466817Y-67346848D01*
X143065152Y-67945183D01*
X143846913Y-68269000D01*
X144693087Y-68269000D01*
X145474848Y-67945183D01*
X146073183Y-67346848D01*
X146397000Y-66565087D01*
X146397000Y-65718913D01*
X148643000Y-65718913D01*
X148643000Y-66565087D01*
X148966817Y-67346848D01*
X149565152Y-67945183D01*
X150346913Y-68269000D01*
X151193087Y-68269000D01*
X151974848Y-67945183D01*
X152573183Y-67346848D01*
X152897000Y-66565087D01*
X152897000Y-65718913D01*
X152573183Y-64937152D01*
X151974848Y-64338817D01*
X151193087Y-64015000D01*
X150346913Y-64015000D01*
X149565152Y-64338817D01*
X148966817Y-64937152D01*
X148643000Y-65718913D01*
X146397000Y-65718913D01*
X146073183Y-64937152D01*
X145474848Y-64338817D01*
X144693087Y-64015000D01*
X143846913Y-64015000D01*
X143065152Y-64338817D01*
X142466817Y-64937152D01*
X142143000Y-65718913D01*
X122927000Y-65718913D01*
X122603183Y-64937152D01*
X122004848Y-64338817D01*
X121223087Y-64015000D01*
X120376913Y-64015000D01*
X119595152Y-64338817D01*
X118996817Y-64937152D01*
X118673000Y-65718913D01*
X116427000Y-65718913D01*
X116103183Y-64937152D01*
X115504848Y-64338817D01*
X114723087Y-64015000D01*
X113876913Y-64015000D01*
X113095152Y-64338817D01*
X112496817Y-64937152D01*
X112173000Y-65718913D01*
X105709970Y-65718913D01*
X105729707Y-61218913D01*
X112173000Y-61218913D01*
X112173000Y-62065087D01*
X112496817Y-62846848D01*
X113095152Y-63445183D01*
X113876913Y-63769000D01*
X114723087Y-63769000D01*
X115504848Y-63445183D01*
X116103183Y-62846848D01*
X116427000Y-62065087D01*
X116427000Y-61218913D01*
X118673000Y-61218913D01*
X118673000Y-62065087D01*
X118996817Y-62846848D01*
X119595152Y-63445183D01*
X120376913Y-63769000D01*
X121223087Y-63769000D01*
X122004848Y-63445183D01*
X122603183Y-62846848D01*
X122927000Y-62065087D01*
X122927000Y-61218913D01*
X142143000Y-61218913D01*
X142143000Y-62065087D01*
X142466817Y-62846848D01*
X143065152Y-63445183D01*
X143846913Y-63769000D01*
X144693087Y-63769000D01*
X145474848Y-63445183D01*
X146073183Y-62846848D01*
X146397000Y-62065087D01*
X146397000Y-61218913D01*
X148643000Y-61218913D01*
X148643000Y-62065087D01*
X148966817Y-62846848D01*
X149565152Y-63445183D01*
X150346913Y-63769000D01*
X151193087Y-63769000D01*
X151974848Y-63445183D01*
X152573183Y-62846848D01*
X152897000Y-62065087D01*
X152897000Y-61218913D01*
X152573183Y-60437152D01*
X151974848Y-59838817D01*
X151193087Y-59515000D01*
X150346913Y-59515000D01*
X149565152Y-59838817D01*
X148966817Y-60437152D01*
X148643000Y-61218913D01*
X146397000Y-61218913D01*
X146073183Y-60437152D01*
X145474848Y-59838817D01*
X144693087Y-59515000D01*
X143846913Y-59515000D01*
X143065152Y-59838817D01*
X142466817Y-60437152D01*
X142143000Y-61218913D01*
X122927000Y-61218913D01*
X122603183Y-60437152D01*
X122004848Y-59838817D01*
X121223087Y-59515000D01*
X120376913Y-59515000D01*
X119595152Y-59838817D01*
X118996817Y-60437152D01*
X118673000Y-61218913D01*
X116427000Y-61218913D01*
X116103183Y-60437152D01*
X115504848Y-59838817D01*
X114723087Y-59515000D01*
X113876913Y-59515000D01*
X113095152Y-59838817D01*
X112496817Y-60437152D01*
X112173000Y-61218913D01*
X105729707Y-61218913D01*
X105756646Y-55076913D01*
X127473000Y-55076913D01*
X127473000Y-55923087D01*
X127796817Y-56704848D01*
X128395152Y-57303183D01*
X129176913Y-57627000D01*
X130023087Y-57627000D01*
X130804848Y-57303183D01*
X131403183Y-56704848D01*
X131727000Y-55923087D01*
X131727000Y-55076913D01*
X133973000Y-55076913D01*
X133973000Y-55923087D01*
X134296817Y-56704848D01*
X134895152Y-57303183D01*
X135676913Y-57627000D01*
X136523087Y-57627000D01*
X137304848Y-57303183D01*
X137903183Y-56704848D01*
X138227000Y-55923087D01*
X138227000Y-55076913D01*
X137903183Y-54295152D01*
X137304848Y-53696817D01*
X136523087Y-53373000D01*
X135676913Y-53373000D01*
X134895152Y-53696817D01*
X134296817Y-54295152D01*
X133973000Y-55076913D01*
X131727000Y-55076913D01*
X131403183Y-54295152D01*
X130804848Y-53696817D01*
X130023087Y-53373000D01*
X129176913Y-53373000D01*
X128395152Y-53696817D01*
X127796817Y-54295152D01*
X127473000Y-55076913D01*
X105756646Y-55076913D01*
X105776383Y-50576913D01*
X127473000Y-50576913D01*
X127473000Y-51423087D01*
X127796817Y-52204848D01*
X128395152Y-52803183D01*
X129176913Y-53127000D01*
X130023087Y-53127000D01*
X130804848Y-52803183D01*
X131403183Y-52204848D01*
X131727000Y-51423087D01*
X131727000Y-50576913D01*
X133973000Y-50576913D01*
X133973000Y-51423087D01*
X134296817Y-52204848D01*
X134895152Y-52803183D01*
X135676913Y-53127000D01*
X136523087Y-53127000D01*
X137304848Y-52803183D01*
X137903183Y-52204848D01*
X138227000Y-51423087D01*
X138227000Y-50576913D01*
X137903183Y-49795152D01*
X137304848Y-49196817D01*
X136523087Y-48873000D01*
X135676913Y-48873000D01*
X134895152Y-49196817D01*
X134296817Y-49795152D01*
X133973000Y-50576913D01*
X131727000Y-50576913D01*
X131403183Y-49795152D01*
X130804848Y-49196817D01*
X130023087Y-48873000D01*
X129176913Y-48873000D01*
X128395152Y-49196817D01*
X127796817Y-49795152D01*
X127473000Y-50576913D01*
X105776383Y-50576913D01*
X105790447Y-47370405D01*
X159385000Y-47117601D01*
X159385000Y-104775594D01*
G04 #@! TD*
M02*
