M48
; DRILL file {KiCad 5.1.2-f72e74a~84~ubuntu18.04.1} date jue 12 sep 2019 15:32:46 -03
; FORMAT={-:-/ absolute / metric / decimal}
; #@! TF.CreationDate,2019-09-12T15:32:46-03:00
; #@! TF.GenerationSoftware,Kicad,Pcbnew,5.1.2-f72e74a~84~ubuntu18.04.1
FMAT,2
METRIC
T1C0.900
T2C1.000
T3C1.100
T4C1.200
%
G90
G05
T1
X137.668Y-98.552
X140.208Y-98.552
X147.32Y-98.298
X149.86Y-98.298
T2
X109.728Y-99.06
X117.602Y-72.898
X118.0Y-52.0
X132.0Y-68.0
X132.0Y-87.0
X146.304Y-73.66
X147.0Y-52.0
X155.956Y-99.06
T3
X144.254Y-86.618
X144.254Y-91.118
X150.754Y-86.618
X150.754Y-91.118
X129.0Y-75.968
X129.0Y-80.468
X135.5Y-75.968
X135.5Y-80.468
X114.254Y-86.614
X114.254Y-91.114
X120.754Y-86.614
X120.754Y-91.114
X144.27Y-61.642
X144.27Y-66.142
X150.77Y-61.642
X150.77Y-66.142
X129.6Y-51.0
X129.6Y-55.5
X136.1Y-51.0
X136.1Y-55.5
X114.3Y-61.642
X114.3Y-66.142
X120.8Y-61.642
X120.8Y-66.142
T4
X120.65Y-98.806
X123.19Y-98.806
X125.73Y-98.806
X128.27Y-98.806
X130.81Y-98.806
T0
M30
