G04 #@! TF.GenerationSoftware,KiCad,Pcbnew,5.1.2-f72e74a~84~ubuntu18.04.1*
G04 #@! TF.CreationDate,2019-09-12T15:37:42-03:00*
G04 #@! TF.ProjectId,teclado_contador_geiger,7465636c-6164-46f5-9f63-6f6e7461646f,rev?*
G04 #@! TF.SameCoordinates,Original*
G04 #@! TF.FileFunction,Copper,L1,Top*
G04 #@! TF.FilePolarity,Positive*
%FSLAX46Y46*%
G04 Gerber Fmt 4.6, Leading zero omitted, Abs format (unit mm)*
G04 Created by KiCad (PCBNEW 5.1.2-f72e74a~84~ubuntu18.04.1) date 2019-09-12 15:37:42*
%MOMM*%
%LPD*%
G04 APERTURE LIST*
%ADD10C,2.000000*%
%ADD11R,1.800000X1.800000*%
%ADD12C,1.800000*%
%ADD13R,2.000000X2.600000*%
%ADD14O,2.000000X2.600000*%
%ADD15C,3.746000*%
%ADD16C,0.254000*%
G04 APERTURE END LIST*
D10*
X135500000Y-75968000D03*
X135500000Y-80468000D03*
X129000000Y-75968000D03*
X129000000Y-80468000D03*
X150754000Y-86618000D03*
X150754000Y-91118000D03*
X144254000Y-86618000D03*
X144254000Y-91118000D03*
D11*
X137668000Y-98552000D03*
D12*
X140208000Y-98552000D03*
D10*
X114254000Y-91114000D03*
X114254000Y-86614000D03*
X120754000Y-91114000D03*
X120754000Y-86614000D03*
X144270000Y-66142000D03*
X144270000Y-61642000D03*
X150770000Y-66142000D03*
X150770000Y-61642000D03*
X129600000Y-55500000D03*
X129600000Y-51000000D03*
X136100000Y-55500000D03*
X136100000Y-51000000D03*
X114300000Y-66142000D03*
X114300000Y-61642000D03*
X120800000Y-66142000D03*
X120800000Y-61642000D03*
D11*
X147320000Y-98298000D03*
D12*
X149860000Y-98298000D03*
D13*
X120650000Y-98806000D03*
D14*
X123190000Y-98806000D03*
X125730000Y-98806000D03*
X128270000Y-98806000D03*
X130810000Y-98806000D03*
D15*
X109728000Y-99060000D03*
X132000000Y-68000000D03*
X147000000Y-52000000D03*
X155956000Y-99060000D03*
X117602000Y-72898000D03*
X146304000Y-73660000D03*
X118000000Y-52000000D03*
X132000000Y-87000000D03*
D16*
G36*
X159265001Y-104769000D02*
G01*
X105735000Y-104769000D01*
X105735000Y-98802977D01*
X107118400Y-98802977D01*
X107118400Y-99317023D01*
X107218685Y-99821192D01*
X107415402Y-100296109D01*
X107700991Y-100723523D01*
X108064477Y-101087009D01*
X108491891Y-101372598D01*
X108966808Y-101569315D01*
X109470977Y-101669600D01*
X109985023Y-101669600D01*
X110489192Y-101569315D01*
X110964109Y-101372598D01*
X111391523Y-101087009D01*
X111755009Y-100723523D01*
X112040598Y-100296109D01*
X112237315Y-99821192D01*
X112337600Y-99317023D01*
X112337600Y-98802977D01*
X112237315Y-98298808D01*
X112040598Y-97823891D01*
X111828190Y-97506000D01*
X118909836Y-97506000D01*
X118909836Y-100106000D01*
X118924058Y-100250399D01*
X118966178Y-100389249D01*
X119034576Y-100517213D01*
X119126625Y-100629375D01*
X119238787Y-100721424D01*
X119366751Y-100789822D01*
X119505601Y-100831942D01*
X119650000Y-100846164D01*
X121650000Y-100846164D01*
X121794399Y-100831942D01*
X121933249Y-100789822D01*
X122061213Y-100721424D01*
X122173375Y-100629375D01*
X122229087Y-100561490D01*
X122522218Y-100718172D01*
X122849568Y-100817472D01*
X123190000Y-100851002D01*
X123530433Y-100817472D01*
X123857783Y-100718172D01*
X124159471Y-100556916D01*
X124423903Y-100339903D01*
X124529126Y-100211688D01*
X124663683Y-100351922D01*
X124927239Y-100536010D01*
X125221645Y-100665144D01*
X125349566Y-100696124D01*
X125603000Y-100576777D01*
X125603000Y-98933000D01*
X125583000Y-98933000D01*
X125583000Y-98679000D01*
X125603000Y-98679000D01*
X125603000Y-97035223D01*
X125857000Y-97035223D01*
X125857000Y-98679000D01*
X125877000Y-98679000D01*
X125877000Y-98933000D01*
X125857000Y-98933000D01*
X125857000Y-100576777D01*
X126110434Y-100696124D01*
X126238355Y-100665144D01*
X126532761Y-100536010D01*
X126796317Y-100351922D01*
X126930874Y-100211688D01*
X127036097Y-100339903D01*
X127300530Y-100556916D01*
X127602218Y-100718172D01*
X127929568Y-100817472D01*
X128270000Y-100851002D01*
X128610433Y-100817472D01*
X128937783Y-100718172D01*
X129239471Y-100556916D01*
X129503903Y-100339903D01*
X129540000Y-100295919D01*
X129576097Y-100339903D01*
X129840530Y-100556916D01*
X130142218Y-100718172D01*
X130469568Y-100817472D01*
X130810000Y-100851002D01*
X131150433Y-100817472D01*
X131477783Y-100718172D01*
X131779471Y-100556916D01*
X132043903Y-100339903D01*
X132260916Y-100075471D01*
X132422172Y-99773783D01*
X132521472Y-99446432D01*
X132546600Y-99191305D01*
X132546600Y-98420694D01*
X132521472Y-98165567D01*
X132422172Y-97838217D01*
X132322637Y-97652000D01*
X136027836Y-97652000D01*
X136027836Y-99452000D01*
X136042058Y-99596399D01*
X136084178Y-99735249D01*
X136152576Y-99863213D01*
X136244625Y-99975375D01*
X136356787Y-100067424D01*
X136484751Y-100135822D01*
X136623601Y-100177942D01*
X136768000Y-100192164D01*
X138568000Y-100192164D01*
X138712399Y-100177942D01*
X138851249Y-100135822D01*
X138979213Y-100067424D01*
X139091375Y-99975375D01*
X139183424Y-99863213D01*
X139194251Y-99842957D01*
X139432779Y-100002336D01*
X139730621Y-100125707D01*
X140046809Y-100188600D01*
X140369191Y-100188600D01*
X140685379Y-100125707D01*
X140983221Y-100002336D01*
X141251272Y-99823230D01*
X141479230Y-99595272D01*
X141658336Y-99327221D01*
X141711861Y-99198000D01*
X145781928Y-99198000D01*
X145794188Y-99322482D01*
X145830498Y-99442180D01*
X145889463Y-99552494D01*
X145968815Y-99649185D01*
X146065506Y-99728537D01*
X146175820Y-99787502D01*
X146295518Y-99823812D01*
X146420000Y-99836072D01*
X147034250Y-99833000D01*
X147193000Y-99674250D01*
X147193000Y-98425000D01*
X145943750Y-98425000D01*
X145785000Y-98583750D01*
X145781928Y-99198000D01*
X141711861Y-99198000D01*
X141781707Y-99029379D01*
X141844600Y-98713191D01*
X141844600Y-98390809D01*
X141781707Y-98074621D01*
X141658336Y-97776779D01*
X141479230Y-97508728D01*
X141368502Y-97398000D01*
X145781928Y-97398000D01*
X145785000Y-98012250D01*
X145943750Y-98171000D01*
X147193000Y-98171000D01*
X147193000Y-96921750D01*
X147447000Y-96921750D01*
X147447000Y-98171000D01*
X147467000Y-98171000D01*
X147467000Y-98425000D01*
X147447000Y-98425000D01*
X147447000Y-99674250D01*
X147605750Y-99833000D01*
X148220000Y-99836072D01*
X148344482Y-99823812D01*
X148464180Y-99787502D01*
X148574494Y-99728537D01*
X148671185Y-99649185D01*
X148750537Y-99552494D01*
X148767764Y-99520266D01*
X148816728Y-99569230D01*
X149084779Y-99748336D01*
X149382621Y-99871707D01*
X149698809Y-99934600D01*
X150021191Y-99934600D01*
X150337379Y-99871707D01*
X150635221Y-99748336D01*
X150903272Y-99569230D01*
X151131230Y-99341272D01*
X151310336Y-99073221D01*
X151422275Y-98802977D01*
X153346400Y-98802977D01*
X153346400Y-99317023D01*
X153446685Y-99821192D01*
X153643402Y-100296109D01*
X153928991Y-100723523D01*
X154292477Y-101087009D01*
X154719891Y-101372598D01*
X155194808Y-101569315D01*
X155698977Y-101669600D01*
X156213023Y-101669600D01*
X156717192Y-101569315D01*
X157192109Y-101372598D01*
X157619523Y-101087009D01*
X157983009Y-100723523D01*
X158268598Y-100296109D01*
X158465315Y-99821192D01*
X158565600Y-99317023D01*
X158565600Y-98802977D01*
X158465315Y-98298808D01*
X158268598Y-97823891D01*
X157983009Y-97396477D01*
X157619523Y-97032991D01*
X157192109Y-96747402D01*
X156717192Y-96550685D01*
X156213023Y-96450400D01*
X155698977Y-96450400D01*
X155194808Y-96550685D01*
X154719891Y-96747402D01*
X154292477Y-97032991D01*
X153928991Y-97396477D01*
X153643402Y-97823891D01*
X153446685Y-98298808D01*
X153346400Y-98802977D01*
X151422275Y-98802977D01*
X151433707Y-98775379D01*
X151496600Y-98459191D01*
X151496600Y-98136809D01*
X151433707Y-97820621D01*
X151310336Y-97522779D01*
X151131230Y-97254728D01*
X150903272Y-97026770D01*
X150635221Y-96847664D01*
X150337379Y-96724293D01*
X150021191Y-96661400D01*
X149698809Y-96661400D01*
X149382621Y-96724293D01*
X149084779Y-96847664D01*
X148816728Y-97026770D01*
X148767764Y-97075734D01*
X148750537Y-97043506D01*
X148671185Y-96946815D01*
X148574494Y-96867463D01*
X148464180Y-96808498D01*
X148344482Y-96772188D01*
X148220000Y-96759928D01*
X147605750Y-96763000D01*
X147447000Y-96921750D01*
X147193000Y-96921750D01*
X147034250Y-96763000D01*
X146420000Y-96759928D01*
X146295518Y-96772188D01*
X146175820Y-96808498D01*
X146065506Y-96867463D01*
X145968815Y-96946815D01*
X145889463Y-97043506D01*
X145830498Y-97153820D01*
X145794188Y-97273518D01*
X145781928Y-97398000D01*
X141368502Y-97398000D01*
X141251272Y-97280770D01*
X140983221Y-97101664D01*
X140685379Y-96978293D01*
X140369191Y-96915400D01*
X140046809Y-96915400D01*
X139730621Y-96978293D01*
X139432779Y-97101664D01*
X139194251Y-97261043D01*
X139183424Y-97240787D01*
X139091375Y-97128625D01*
X138979213Y-97036576D01*
X138851249Y-96968178D01*
X138712399Y-96926058D01*
X138568000Y-96911836D01*
X136768000Y-96911836D01*
X136623601Y-96926058D01*
X136484751Y-96968178D01*
X136356787Y-97036576D01*
X136244625Y-97128625D01*
X136152576Y-97240787D01*
X136084178Y-97368751D01*
X136042058Y-97507601D01*
X136027836Y-97652000D01*
X132322637Y-97652000D01*
X132260916Y-97536529D01*
X132043903Y-97272097D01*
X131779470Y-97055084D01*
X131477782Y-96893828D01*
X131150432Y-96794528D01*
X130810000Y-96760998D01*
X130469567Y-96794528D01*
X130142217Y-96893828D01*
X129840529Y-97055084D01*
X129576097Y-97272097D01*
X129540000Y-97316082D01*
X129503903Y-97272097D01*
X129239470Y-97055084D01*
X128937782Y-96893828D01*
X128610432Y-96794528D01*
X128270000Y-96760998D01*
X127929567Y-96794528D01*
X127602217Y-96893828D01*
X127300529Y-97055084D01*
X127036097Y-97272097D01*
X126930874Y-97400312D01*
X126796317Y-97260078D01*
X126532761Y-97075990D01*
X126238355Y-96946856D01*
X126110434Y-96915876D01*
X125857000Y-97035223D01*
X125603000Y-97035223D01*
X125349566Y-96915876D01*
X125221645Y-96946856D01*
X124927239Y-97075990D01*
X124663683Y-97260078D01*
X124529126Y-97400312D01*
X124423903Y-97272097D01*
X124159470Y-97055084D01*
X123857782Y-96893828D01*
X123530432Y-96794528D01*
X123190000Y-96760998D01*
X122849567Y-96794528D01*
X122522217Y-96893828D01*
X122229087Y-97050510D01*
X122173375Y-96982625D01*
X122061213Y-96890576D01*
X121933249Y-96822178D01*
X121794399Y-96780058D01*
X121650000Y-96765836D01*
X119650000Y-96765836D01*
X119505601Y-96780058D01*
X119366751Y-96822178D01*
X119238787Y-96890576D01*
X119126625Y-96982625D01*
X119034576Y-97094787D01*
X118966178Y-97222751D01*
X118924058Y-97361601D01*
X118909836Y-97506000D01*
X111828190Y-97506000D01*
X111755009Y-97396477D01*
X111391523Y-97032991D01*
X110964109Y-96747402D01*
X110489192Y-96550685D01*
X109985023Y-96450400D01*
X109470977Y-96450400D01*
X108966808Y-96550685D01*
X108491891Y-96747402D01*
X108064477Y-97032991D01*
X107700991Y-97396477D01*
X107415402Y-97823891D01*
X107218685Y-98298808D01*
X107118400Y-98802977D01*
X105735000Y-98802977D01*
X105735000Y-90942960D01*
X112517400Y-90942960D01*
X112517400Y-91285040D01*
X112584136Y-91620548D01*
X112715045Y-91936589D01*
X112905094Y-92221018D01*
X113146982Y-92462906D01*
X113431411Y-92652955D01*
X113747452Y-92783864D01*
X114082960Y-92850600D01*
X114425040Y-92850600D01*
X114760548Y-92783864D01*
X115076589Y-92652955D01*
X115361018Y-92462906D01*
X115602906Y-92221018D01*
X115792955Y-91936589D01*
X115923864Y-91620548D01*
X115990600Y-91285040D01*
X115990600Y-90942960D01*
X119017400Y-90942960D01*
X119017400Y-91285040D01*
X119084136Y-91620548D01*
X119215045Y-91936589D01*
X119405094Y-92221018D01*
X119646982Y-92462906D01*
X119931411Y-92652955D01*
X120247452Y-92783864D01*
X120582960Y-92850600D01*
X120925040Y-92850600D01*
X121260548Y-92783864D01*
X121576589Y-92652955D01*
X121861018Y-92462906D01*
X122102906Y-92221018D01*
X122292955Y-91936589D01*
X122423864Y-91620548D01*
X122490600Y-91285040D01*
X122490600Y-90946960D01*
X142517400Y-90946960D01*
X142517400Y-91289040D01*
X142584136Y-91624548D01*
X142715045Y-91940589D01*
X142905094Y-92225018D01*
X143146982Y-92466906D01*
X143431411Y-92656955D01*
X143747452Y-92787864D01*
X144082960Y-92854600D01*
X144425040Y-92854600D01*
X144760548Y-92787864D01*
X145076589Y-92656955D01*
X145361018Y-92466906D01*
X145602906Y-92225018D01*
X145792955Y-91940589D01*
X145923864Y-91624548D01*
X145990600Y-91289040D01*
X145990600Y-90946960D01*
X149017400Y-90946960D01*
X149017400Y-91289040D01*
X149084136Y-91624548D01*
X149215045Y-91940589D01*
X149405094Y-92225018D01*
X149646982Y-92466906D01*
X149931411Y-92656955D01*
X150247452Y-92787864D01*
X150582960Y-92854600D01*
X150925040Y-92854600D01*
X151260548Y-92787864D01*
X151576589Y-92656955D01*
X151861018Y-92466906D01*
X152102906Y-92225018D01*
X152292955Y-91940589D01*
X152423864Y-91624548D01*
X152490600Y-91289040D01*
X152490600Y-90946960D01*
X152423864Y-90611452D01*
X152292955Y-90295411D01*
X152102906Y-90010982D01*
X151861018Y-89769094D01*
X151576589Y-89579045D01*
X151260548Y-89448136D01*
X150925040Y-89381400D01*
X150582960Y-89381400D01*
X150247452Y-89448136D01*
X149931411Y-89579045D01*
X149646982Y-89769094D01*
X149405094Y-90010982D01*
X149215045Y-90295411D01*
X149084136Y-90611452D01*
X149017400Y-90946960D01*
X145990600Y-90946960D01*
X145923864Y-90611452D01*
X145792955Y-90295411D01*
X145602906Y-90010982D01*
X145361018Y-89769094D01*
X145076589Y-89579045D01*
X144760548Y-89448136D01*
X144425040Y-89381400D01*
X144082960Y-89381400D01*
X143747452Y-89448136D01*
X143431411Y-89579045D01*
X143146982Y-89769094D01*
X142905094Y-90010982D01*
X142715045Y-90295411D01*
X142584136Y-90611452D01*
X142517400Y-90946960D01*
X122490600Y-90946960D01*
X122490600Y-90942960D01*
X122423864Y-90607452D01*
X122292955Y-90291411D01*
X122102906Y-90006982D01*
X121861018Y-89765094D01*
X121576589Y-89575045D01*
X121260548Y-89444136D01*
X120925040Y-89377400D01*
X120582960Y-89377400D01*
X120247452Y-89444136D01*
X119931411Y-89575045D01*
X119646982Y-89765094D01*
X119405094Y-90006982D01*
X119215045Y-90291411D01*
X119084136Y-90607452D01*
X119017400Y-90942960D01*
X115990600Y-90942960D01*
X115923864Y-90607452D01*
X115792955Y-90291411D01*
X115602906Y-90006982D01*
X115361018Y-89765094D01*
X115076589Y-89575045D01*
X114760548Y-89444136D01*
X114425040Y-89377400D01*
X114082960Y-89377400D01*
X113747452Y-89444136D01*
X113431411Y-89575045D01*
X113146982Y-89765094D01*
X112905094Y-90006982D01*
X112715045Y-90291411D01*
X112584136Y-90607452D01*
X112517400Y-90942960D01*
X105735000Y-90942960D01*
X105735000Y-86442960D01*
X112517400Y-86442960D01*
X112517400Y-86785040D01*
X112584136Y-87120548D01*
X112715045Y-87436589D01*
X112905094Y-87721018D01*
X113146982Y-87962906D01*
X113431411Y-88152955D01*
X113747452Y-88283864D01*
X114082960Y-88350600D01*
X114425040Y-88350600D01*
X114760548Y-88283864D01*
X115076589Y-88152955D01*
X115361018Y-87962906D01*
X115602906Y-87721018D01*
X115792955Y-87436589D01*
X115923864Y-87120548D01*
X115990600Y-86785040D01*
X115990600Y-86442960D01*
X119017400Y-86442960D01*
X119017400Y-86785040D01*
X119084136Y-87120548D01*
X119215045Y-87436589D01*
X119405094Y-87721018D01*
X119646982Y-87962906D01*
X119931411Y-88152955D01*
X120247452Y-88283864D01*
X120582960Y-88350600D01*
X120925040Y-88350600D01*
X121260548Y-88283864D01*
X121576589Y-88152955D01*
X121861018Y-87962906D01*
X122102906Y-87721018D01*
X122292955Y-87436589D01*
X122423864Y-87120548D01*
X122490600Y-86785040D01*
X122490600Y-86742977D01*
X129390400Y-86742977D01*
X129390400Y-87257023D01*
X129490685Y-87761192D01*
X129687402Y-88236109D01*
X129972991Y-88663523D01*
X130336477Y-89027009D01*
X130763891Y-89312598D01*
X131238808Y-89509315D01*
X131742977Y-89609600D01*
X132257023Y-89609600D01*
X132761192Y-89509315D01*
X133236109Y-89312598D01*
X133663523Y-89027009D01*
X134027009Y-88663523D01*
X134312598Y-88236109D01*
X134509315Y-87761192D01*
X134609600Y-87257023D01*
X134609600Y-86742977D01*
X134550719Y-86446960D01*
X142517400Y-86446960D01*
X142517400Y-86789040D01*
X142584136Y-87124548D01*
X142715045Y-87440589D01*
X142905094Y-87725018D01*
X143146982Y-87966906D01*
X143431411Y-88156955D01*
X143747452Y-88287864D01*
X144082960Y-88354600D01*
X144425040Y-88354600D01*
X144760548Y-88287864D01*
X145076589Y-88156955D01*
X145361018Y-87966906D01*
X145602906Y-87725018D01*
X145792955Y-87440589D01*
X145923864Y-87124548D01*
X145990600Y-86789040D01*
X145990600Y-86446960D01*
X149017400Y-86446960D01*
X149017400Y-86789040D01*
X149084136Y-87124548D01*
X149215045Y-87440589D01*
X149405094Y-87725018D01*
X149646982Y-87966906D01*
X149931411Y-88156955D01*
X150247452Y-88287864D01*
X150582960Y-88354600D01*
X150925040Y-88354600D01*
X151260548Y-88287864D01*
X151576589Y-88156955D01*
X151861018Y-87966906D01*
X152102906Y-87725018D01*
X152292955Y-87440589D01*
X152423864Y-87124548D01*
X152490600Y-86789040D01*
X152490600Y-86446960D01*
X152423864Y-86111452D01*
X152292955Y-85795411D01*
X152102906Y-85510982D01*
X151861018Y-85269094D01*
X151576589Y-85079045D01*
X151260548Y-84948136D01*
X150925040Y-84881400D01*
X150582960Y-84881400D01*
X150247452Y-84948136D01*
X149931411Y-85079045D01*
X149646982Y-85269094D01*
X149405094Y-85510982D01*
X149215045Y-85795411D01*
X149084136Y-86111452D01*
X149017400Y-86446960D01*
X145990600Y-86446960D01*
X145923864Y-86111452D01*
X145792955Y-85795411D01*
X145602906Y-85510982D01*
X145361018Y-85269094D01*
X145076589Y-85079045D01*
X144760548Y-84948136D01*
X144425040Y-84881400D01*
X144082960Y-84881400D01*
X143747452Y-84948136D01*
X143431411Y-85079045D01*
X143146982Y-85269094D01*
X142905094Y-85510982D01*
X142715045Y-85795411D01*
X142584136Y-86111452D01*
X142517400Y-86446960D01*
X134550719Y-86446960D01*
X134509315Y-86238808D01*
X134312598Y-85763891D01*
X134027009Y-85336477D01*
X133663523Y-84972991D01*
X133236109Y-84687402D01*
X132761192Y-84490685D01*
X132257023Y-84390400D01*
X131742977Y-84390400D01*
X131238808Y-84490685D01*
X130763891Y-84687402D01*
X130336477Y-84972991D01*
X129972991Y-85336477D01*
X129687402Y-85763891D01*
X129490685Y-86238808D01*
X129390400Y-86742977D01*
X122490600Y-86742977D01*
X122490600Y-86442960D01*
X122423864Y-86107452D01*
X122292955Y-85791411D01*
X122102906Y-85506982D01*
X121861018Y-85265094D01*
X121576589Y-85075045D01*
X121260548Y-84944136D01*
X120925040Y-84877400D01*
X120582960Y-84877400D01*
X120247452Y-84944136D01*
X119931411Y-85075045D01*
X119646982Y-85265094D01*
X119405094Y-85506982D01*
X119215045Y-85791411D01*
X119084136Y-86107452D01*
X119017400Y-86442960D01*
X115990600Y-86442960D01*
X115923864Y-86107452D01*
X115792955Y-85791411D01*
X115602906Y-85506982D01*
X115361018Y-85265094D01*
X115076589Y-85075045D01*
X114760548Y-84944136D01*
X114425040Y-84877400D01*
X114082960Y-84877400D01*
X113747452Y-84944136D01*
X113431411Y-85075045D01*
X113146982Y-85265094D01*
X112905094Y-85506982D01*
X112715045Y-85791411D01*
X112584136Y-86107452D01*
X112517400Y-86442960D01*
X105735000Y-86442960D01*
X105735000Y-80296960D01*
X127263400Y-80296960D01*
X127263400Y-80639040D01*
X127330136Y-80974548D01*
X127461045Y-81290589D01*
X127651094Y-81575018D01*
X127892982Y-81816906D01*
X128177411Y-82006955D01*
X128493452Y-82137864D01*
X128828960Y-82204600D01*
X129171040Y-82204600D01*
X129506548Y-82137864D01*
X129822589Y-82006955D01*
X130107018Y-81816906D01*
X130348906Y-81575018D01*
X130538955Y-81290589D01*
X130669864Y-80974548D01*
X130736600Y-80639040D01*
X130736600Y-80296960D01*
X133763400Y-80296960D01*
X133763400Y-80639040D01*
X133830136Y-80974548D01*
X133961045Y-81290589D01*
X134151094Y-81575018D01*
X134392982Y-81816906D01*
X134677411Y-82006955D01*
X134993452Y-82137864D01*
X135328960Y-82204600D01*
X135671040Y-82204600D01*
X136006548Y-82137864D01*
X136322589Y-82006955D01*
X136607018Y-81816906D01*
X136848906Y-81575018D01*
X137038955Y-81290589D01*
X137169864Y-80974548D01*
X137236600Y-80639040D01*
X137236600Y-80296960D01*
X137169864Y-79961452D01*
X137038955Y-79645411D01*
X136848906Y-79360982D01*
X136607018Y-79119094D01*
X136322589Y-78929045D01*
X136006548Y-78798136D01*
X135671040Y-78731400D01*
X135328960Y-78731400D01*
X134993452Y-78798136D01*
X134677411Y-78929045D01*
X134392982Y-79119094D01*
X134151094Y-79360982D01*
X133961045Y-79645411D01*
X133830136Y-79961452D01*
X133763400Y-80296960D01*
X130736600Y-80296960D01*
X130669864Y-79961452D01*
X130538955Y-79645411D01*
X130348906Y-79360982D01*
X130107018Y-79119094D01*
X129822589Y-78929045D01*
X129506548Y-78798136D01*
X129171040Y-78731400D01*
X128828960Y-78731400D01*
X128493452Y-78798136D01*
X128177411Y-78929045D01*
X127892982Y-79119094D01*
X127651094Y-79360982D01*
X127461045Y-79645411D01*
X127330136Y-79961452D01*
X127263400Y-80296960D01*
X105735000Y-80296960D01*
X105735000Y-75796960D01*
X127263400Y-75796960D01*
X127263400Y-76139040D01*
X127330136Y-76474548D01*
X127461045Y-76790589D01*
X127651094Y-77075018D01*
X127892982Y-77316906D01*
X128177411Y-77506955D01*
X128493452Y-77637864D01*
X128828960Y-77704600D01*
X129171040Y-77704600D01*
X129506548Y-77637864D01*
X129822589Y-77506955D01*
X130107018Y-77316906D01*
X130348906Y-77075018D01*
X130538955Y-76790589D01*
X130669864Y-76474548D01*
X130736600Y-76139040D01*
X130736600Y-75796960D01*
X133763400Y-75796960D01*
X133763400Y-76139040D01*
X133830136Y-76474548D01*
X133961045Y-76790589D01*
X134151094Y-77075018D01*
X134392982Y-77316906D01*
X134677411Y-77506955D01*
X134993452Y-77637864D01*
X135328960Y-77704600D01*
X135671040Y-77704600D01*
X136006548Y-77637864D01*
X136322589Y-77506955D01*
X136607018Y-77316906D01*
X136848906Y-77075018D01*
X137038955Y-76790589D01*
X137169864Y-76474548D01*
X137236600Y-76139040D01*
X137236600Y-75796960D01*
X137169864Y-75461452D01*
X137038955Y-75145411D01*
X136848906Y-74860982D01*
X136607018Y-74619094D01*
X136322589Y-74429045D01*
X136006548Y-74298136D01*
X135671040Y-74231400D01*
X135328960Y-74231400D01*
X134993452Y-74298136D01*
X134677411Y-74429045D01*
X134392982Y-74619094D01*
X134151094Y-74860982D01*
X133961045Y-75145411D01*
X133830136Y-75461452D01*
X133763400Y-75796960D01*
X130736600Y-75796960D01*
X130669864Y-75461452D01*
X130538955Y-75145411D01*
X130348906Y-74860982D01*
X130107018Y-74619094D01*
X129822589Y-74429045D01*
X129506548Y-74298136D01*
X129171040Y-74231400D01*
X128828960Y-74231400D01*
X128493452Y-74298136D01*
X128177411Y-74429045D01*
X127892982Y-74619094D01*
X127651094Y-74860982D01*
X127461045Y-75145411D01*
X127330136Y-75461452D01*
X127263400Y-75796960D01*
X105735000Y-75796960D01*
X105735000Y-72640977D01*
X114992400Y-72640977D01*
X114992400Y-73155023D01*
X115092685Y-73659192D01*
X115289402Y-74134109D01*
X115574991Y-74561523D01*
X115938477Y-74925009D01*
X116365891Y-75210598D01*
X116840808Y-75407315D01*
X117344977Y-75507600D01*
X117859023Y-75507600D01*
X118363192Y-75407315D01*
X118838109Y-75210598D01*
X119265523Y-74925009D01*
X119629009Y-74561523D01*
X119914598Y-74134109D01*
X120111315Y-73659192D01*
X120162279Y-73402977D01*
X143694400Y-73402977D01*
X143694400Y-73917023D01*
X143794685Y-74421192D01*
X143991402Y-74896109D01*
X144276991Y-75323523D01*
X144640477Y-75687009D01*
X145067891Y-75972598D01*
X145542808Y-76169315D01*
X146046977Y-76269600D01*
X146561023Y-76269600D01*
X147065192Y-76169315D01*
X147540109Y-75972598D01*
X147967523Y-75687009D01*
X148331009Y-75323523D01*
X148616598Y-74896109D01*
X148813315Y-74421192D01*
X148913600Y-73917023D01*
X148913600Y-73402977D01*
X148813315Y-72898808D01*
X148616598Y-72423891D01*
X148331009Y-71996477D01*
X147967523Y-71632991D01*
X147540109Y-71347402D01*
X147065192Y-71150685D01*
X146561023Y-71050400D01*
X146046977Y-71050400D01*
X145542808Y-71150685D01*
X145067891Y-71347402D01*
X144640477Y-71632991D01*
X144276991Y-71996477D01*
X143991402Y-72423891D01*
X143794685Y-72898808D01*
X143694400Y-73402977D01*
X120162279Y-73402977D01*
X120211600Y-73155023D01*
X120211600Y-72640977D01*
X120111315Y-72136808D01*
X119914598Y-71661891D01*
X119629009Y-71234477D01*
X119265523Y-70870991D01*
X118838109Y-70585402D01*
X118363192Y-70388685D01*
X117859023Y-70288400D01*
X117344977Y-70288400D01*
X116840808Y-70388685D01*
X116365891Y-70585402D01*
X115938477Y-70870991D01*
X115574991Y-71234477D01*
X115289402Y-71661891D01*
X115092685Y-72136808D01*
X114992400Y-72640977D01*
X105735000Y-72640977D01*
X105735000Y-65970960D01*
X112563400Y-65970960D01*
X112563400Y-66313040D01*
X112630136Y-66648548D01*
X112761045Y-66964589D01*
X112951094Y-67249018D01*
X113192982Y-67490906D01*
X113477411Y-67680955D01*
X113793452Y-67811864D01*
X114128960Y-67878600D01*
X114471040Y-67878600D01*
X114806548Y-67811864D01*
X115122589Y-67680955D01*
X115407018Y-67490906D01*
X115648906Y-67249018D01*
X115838955Y-66964589D01*
X115969864Y-66648548D01*
X116036600Y-66313040D01*
X116036600Y-65970960D01*
X119063400Y-65970960D01*
X119063400Y-66313040D01*
X119130136Y-66648548D01*
X119261045Y-66964589D01*
X119451094Y-67249018D01*
X119692982Y-67490906D01*
X119977411Y-67680955D01*
X120293452Y-67811864D01*
X120628960Y-67878600D01*
X120971040Y-67878600D01*
X121306548Y-67811864D01*
X121472855Y-67742977D01*
X129390400Y-67742977D01*
X129390400Y-68257023D01*
X129490685Y-68761192D01*
X129687402Y-69236109D01*
X129972991Y-69663523D01*
X130336477Y-70027009D01*
X130763891Y-70312598D01*
X131238808Y-70509315D01*
X131742977Y-70609600D01*
X132257023Y-70609600D01*
X132761192Y-70509315D01*
X133236109Y-70312598D01*
X133663523Y-70027009D01*
X134027009Y-69663523D01*
X134312598Y-69236109D01*
X134509315Y-68761192D01*
X134609600Y-68257023D01*
X134609600Y-67742977D01*
X134509315Y-67238808D01*
X134312598Y-66763891D01*
X134027009Y-66336477D01*
X133663523Y-65972991D01*
X133660484Y-65970960D01*
X142533400Y-65970960D01*
X142533400Y-66313040D01*
X142600136Y-66648548D01*
X142731045Y-66964589D01*
X142921094Y-67249018D01*
X143162982Y-67490906D01*
X143447411Y-67680955D01*
X143763452Y-67811864D01*
X144098960Y-67878600D01*
X144441040Y-67878600D01*
X144776548Y-67811864D01*
X145092589Y-67680955D01*
X145377018Y-67490906D01*
X145618906Y-67249018D01*
X145808955Y-66964589D01*
X145939864Y-66648548D01*
X146006600Y-66313040D01*
X146006600Y-65970960D01*
X149033400Y-65970960D01*
X149033400Y-66313040D01*
X149100136Y-66648548D01*
X149231045Y-66964589D01*
X149421094Y-67249018D01*
X149662982Y-67490906D01*
X149947411Y-67680955D01*
X150263452Y-67811864D01*
X150598960Y-67878600D01*
X150941040Y-67878600D01*
X151276548Y-67811864D01*
X151592589Y-67680955D01*
X151877018Y-67490906D01*
X152118906Y-67249018D01*
X152308955Y-66964589D01*
X152439864Y-66648548D01*
X152506600Y-66313040D01*
X152506600Y-65970960D01*
X152439864Y-65635452D01*
X152308955Y-65319411D01*
X152118906Y-65034982D01*
X151877018Y-64793094D01*
X151592589Y-64603045D01*
X151276548Y-64472136D01*
X150941040Y-64405400D01*
X150598960Y-64405400D01*
X150263452Y-64472136D01*
X149947411Y-64603045D01*
X149662982Y-64793094D01*
X149421094Y-65034982D01*
X149231045Y-65319411D01*
X149100136Y-65635452D01*
X149033400Y-65970960D01*
X146006600Y-65970960D01*
X145939864Y-65635452D01*
X145808955Y-65319411D01*
X145618906Y-65034982D01*
X145377018Y-64793094D01*
X145092589Y-64603045D01*
X144776548Y-64472136D01*
X144441040Y-64405400D01*
X144098960Y-64405400D01*
X143763452Y-64472136D01*
X143447411Y-64603045D01*
X143162982Y-64793094D01*
X142921094Y-65034982D01*
X142731045Y-65319411D01*
X142600136Y-65635452D01*
X142533400Y-65970960D01*
X133660484Y-65970960D01*
X133236109Y-65687402D01*
X132761192Y-65490685D01*
X132257023Y-65390400D01*
X131742977Y-65390400D01*
X131238808Y-65490685D01*
X130763891Y-65687402D01*
X130336477Y-65972991D01*
X129972991Y-66336477D01*
X129687402Y-66763891D01*
X129490685Y-67238808D01*
X129390400Y-67742977D01*
X121472855Y-67742977D01*
X121622589Y-67680955D01*
X121907018Y-67490906D01*
X122148906Y-67249018D01*
X122338955Y-66964589D01*
X122469864Y-66648548D01*
X122536600Y-66313040D01*
X122536600Y-65970960D01*
X122469864Y-65635452D01*
X122338955Y-65319411D01*
X122148906Y-65034982D01*
X121907018Y-64793094D01*
X121622589Y-64603045D01*
X121306548Y-64472136D01*
X120971040Y-64405400D01*
X120628960Y-64405400D01*
X120293452Y-64472136D01*
X119977411Y-64603045D01*
X119692982Y-64793094D01*
X119451094Y-65034982D01*
X119261045Y-65319411D01*
X119130136Y-65635452D01*
X119063400Y-65970960D01*
X116036600Y-65970960D01*
X115969864Y-65635452D01*
X115838955Y-65319411D01*
X115648906Y-65034982D01*
X115407018Y-64793094D01*
X115122589Y-64603045D01*
X114806548Y-64472136D01*
X114471040Y-64405400D01*
X114128960Y-64405400D01*
X113793452Y-64472136D01*
X113477411Y-64603045D01*
X113192982Y-64793094D01*
X112951094Y-65034982D01*
X112761045Y-65319411D01*
X112630136Y-65635452D01*
X112563400Y-65970960D01*
X105735000Y-65970960D01*
X105735000Y-61470960D01*
X112563400Y-61470960D01*
X112563400Y-61813040D01*
X112630136Y-62148548D01*
X112761045Y-62464589D01*
X112951094Y-62749018D01*
X113192982Y-62990906D01*
X113477411Y-63180955D01*
X113793452Y-63311864D01*
X114128960Y-63378600D01*
X114471040Y-63378600D01*
X114806548Y-63311864D01*
X115122589Y-63180955D01*
X115407018Y-62990906D01*
X115648906Y-62749018D01*
X115838955Y-62464589D01*
X115969864Y-62148548D01*
X116036600Y-61813040D01*
X116036600Y-61470960D01*
X119063400Y-61470960D01*
X119063400Y-61813040D01*
X119130136Y-62148548D01*
X119261045Y-62464589D01*
X119451094Y-62749018D01*
X119692982Y-62990906D01*
X119977411Y-63180955D01*
X120293452Y-63311864D01*
X120628960Y-63378600D01*
X120971040Y-63378600D01*
X121306548Y-63311864D01*
X121622589Y-63180955D01*
X121907018Y-62990906D01*
X122148906Y-62749018D01*
X122338955Y-62464589D01*
X122469864Y-62148548D01*
X122536600Y-61813040D01*
X122536600Y-61470960D01*
X142533400Y-61470960D01*
X142533400Y-61813040D01*
X142600136Y-62148548D01*
X142731045Y-62464589D01*
X142921094Y-62749018D01*
X143162982Y-62990906D01*
X143447411Y-63180955D01*
X143763452Y-63311864D01*
X144098960Y-63378600D01*
X144441040Y-63378600D01*
X144776548Y-63311864D01*
X145092589Y-63180955D01*
X145377018Y-62990906D01*
X145618906Y-62749018D01*
X145808955Y-62464589D01*
X145939864Y-62148548D01*
X146006600Y-61813040D01*
X146006600Y-61470960D01*
X149033400Y-61470960D01*
X149033400Y-61813040D01*
X149100136Y-62148548D01*
X149231045Y-62464589D01*
X149421094Y-62749018D01*
X149662982Y-62990906D01*
X149947411Y-63180955D01*
X150263452Y-63311864D01*
X150598960Y-63378600D01*
X150941040Y-63378600D01*
X151276548Y-63311864D01*
X151592589Y-63180955D01*
X151877018Y-62990906D01*
X152118906Y-62749018D01*
X152308955Y-62464589D01*
X152439864Y-62148548D01*
X152506600Y-61813040D01*
X152506600Y-61470960D01*
X152439864Y-61135452D01*
X152308955Y-60819411D01*
X152118906Y-60534982D01*
X151877018Y-60293094D01*
X151592589Y-60103045D01*
X151276548Y-59972136D01*
X150941040Y-59905400D01*
X150598960Y-59905400D01*
X150263452Y-59972136D01*
X149947411Y-60103045D01*
X149662982Y-60293094D01*
X149421094Y-60534982D01*
X149231045Y-60819411D01*
X149100136Y-61135452D01*
X149033400Y-61470960D01*
X146006600Y-61470960D01*
X145939864Y-61135452D01*
X145808955Y-60819411D01*
X145618906Y-60534982D01*
X145377018Y-60293094D01*
X145092589Y-60103045D01*
X144776548Y-59972136D01*
X144441040Y-59905400D01*
X144098960Y-59905400D01*
X143763452Y-59972136D01*
X143447411Y-60103045D01*
X143162982Y-60293094D01*
X142921094Y-60534982D01*
X142731045Y-60819411D01*
X142600136Y-61135452D01*
X142533400Y-61470960D01*
X122536600Y-61470960D01*
X122469864Y-61135452D01*
X122338955Y-60819411D01*
X122148906Y-60534982D01*
X121907018Y-60293094D01*
X121622589Y-60103045D01*
X121306548Y-59972136D01*
X120971040Y-59905400D01*
X120628960Y-59905400D01*
X120293452Y-59972136D01*
X119977411Y-60103045D01*
X119692982Y-60293094D01*
X119451094Y-60534982D01*
X119261045Y-60819411D01*
X119130136Y-61135452D01*
X119063400Y-61470960D01*
X116036600Y-61470960D01*
X115969864Y-61135452D01*
X115838955Y-60819411D01*
X115648906Y-60534982D01*
X115407018Y-60293094D01*
X115122589Y-60103045D01*
X114806548Y-59972136D01*
X114471040Y-59905400D01*
X114128960Y-59905400D01*
X113793452Y-59972136D01*
X113477411Y-60103045D01*
X113192982Y-60293094D01*
X112951094Y-60534982D01*
X112761045Y-60819411D01*
X112630136Y-61135452D01*
X112563400Y-61470960D01*
X105735000Y-61470960D01*
X105735000Y-60012270D01*
X105755540Y-55328960D01*
X127863400Y-55328960D01*
X127863400Y-55671040D01*
X127930136Y-56006548D01*
X128061045Y-56322589D01*
X128251094Y-56607018D01*
X128492982Y-56848906D01*
X128777411Y-57038955D01*
X129093452Y-57169864D01*
X129428960Y-57236600D01*
X129771040Y-57236600D01*
X130106548Y-57169864D01*
X130422589Y-57038955D01*
X130707018Y-56848906D01*
X130948906Y-56607018D01*
X131138955Y-56322589D01*
X131269864Y-56006548D01*
X131336600Y-55671040D01*
X131336600Y-55328960D01*
X134363400Y-55328960D01*
X134363400Y-55671040D01*
X134430136Y-56006548D01*
X134561045Y-56322589D01*
X134751094Y-56607018D01*
X134992982Y-56848906D01*
X135277411Y-57038955D01*
X135593452Y-57169864D01*
X135928960Y-57236600D01*
X136271040Y-57236600D01*
X136606548Y-57169864D01*
X136922589Y-57038955D01*
X137207018Y-56848906D01*
X137448906Y-56607018D01*
X137638955Y-56322589D01*
X137769864Y-56006548D01*
X137836600Y-55671040D01*
X137836600Y-55328960D01*
X137769864Y-54993452D01*
X137638955Y-54677411D01*
X137448906Y-54392982D01*
X137207018Y-54151094D01*
X136922589Y-53961045D01*
X136606548Y-53830136D01*
X136271040Y-53763400D01*
X135928960Y-53763400D01*
X135593452Y-53830136D01*
X135277411Y-53961045D01*
X134992982Y-54151094D01*
X134751094Y-54392982D01*
X134561045Y-54677411D01*
X134430136Y-54993452D01*
X134363400Y-55328960D01*
X131336600Y-55328960D01*
X131269864Y-54993452D01*
X131138955Y-54677411D01*
X130948906Y-54392982D01*
X130707018Y-54151094D01*
X130422589Y-53961045D01*
X130106548Y-53830136D01*
X129771040Y-53763400D01*
X129428960Y-53763400D01*
X129093452Y-53830136D01*
X128777411Y-53961045D01*
X128492982Y-54151094D01*
X128251094Y-54392982D01*
X128061045Y-54677411D01*
X127930136Y-54993452D01*
X127863400Y-55328960D01*
X105755540Y-55328960D01*
X105771268Y-51742977D01*
X115390400Y-51742977D01*
X115390400Y-52257023D01*
X115490685Y-52761192D01*
X115687402Y-53236109D01*
X115972991Y-53663523D01*
X116336477Y-54027009D01*
X116763891Y-54312598D01*
X117238808Y-54509315D01*
X117742977Y-54609600D01*
X118257023Y-54609600D01*
X118761192Y-54509315D01*
X119236109Y-54312598D01*
X119663523Y-54027009D01*
X120027009Y-53663523D01*
X120312598Y-53236109D01*
X120509315Y-52761192D01*
X120609600Y-52257023D01*
X120609600Y-51742977D01*
X120509315Y-51238808D01*
X120339551Y-50828960D01*
X127863400Y-50828960D01*
X127863400Y-51171040D01*
X127930136Y-51506548D01*
X128061045Y-51822589D01*
X128251094Y-52107018D01*
X128492982Y-52348906D01*
X128777411Y-52538955D01*
X129093452Y-52669864D01*
X129428960Y-52736600D01*
X129771040Y-52736600D01*
X130106548Y-52669864D01*
X130422589Y-52538955D01*
X130707018Y-52348906D01*
X130948906Y-52107018D01*
X131138955Y-51822589D01*
X131269864Y-51506548D01*
X131336600Y-51171040D01*
X131336600Y-50828960D01*
X134363400Y-50828960D01*
X134363400Y-51171040D01*
X134430136Y-51506548D01*
X134561045Y-51822589D01*
X134751094Y-52107018D01*
X134992982Y-52348906D01*
X135277411Y-52538955D01*
X135593452Y-52669864D01*
X135928960Y-52736600D01*
X136271040Y-52736600D01*
X136606548Y-52669864D01*
X136922589Y-52538955D01*
X137207018Y-52348906D01*
X137448906Y-52107018D01*
X137638955Y-51822589D01*
X137671931Y-51742977D01*
X144390400Y-51742977D01*
X144390400Y-52257023D01*
X144490685Y-52761192D01*
X144687402Y-53236109D01*
X144972991Y-53663523D01*
X145336477Y-54027009D01*
X145763891Y-54312598D01*
X146238808Y-54509315D01*
X146742977Y-54609600D01*
X147257023Y-54609600D01*
X147761192Y-54509315D01*
X148236109Y-54312598D01*
X148663523Y-54027009D01*
X149027009Y-53663523D01*
X149312598Y-53236109D01*
X149509315Y-52761192D01*
X149609600Y-52257023D01*
X149609600Y-51742977D01*
X149509315Y-51238808D01*
X149312598Y-50763891D01*
X149027009Y-50336477D01*
X148663523Y-49972991D01*
X148236109Y-49687402D01*
X147761192Y-49490685D01*
X147257023Y-49390400D01*
X146742977Y-49390400D01*
X146238808Y-49490685D01*
X145763891Y-49687402D01*
X145336477Y-49972991D01*
X144972991Y-50336477D01*
X144687402Y-50763891D01*
X144490685Y-51238808D01*
X144390400Y-51742977D01*
X137671931Y-51742977D01*
X137769864Y-51506548D01*
X137836600Y-51171040D01*
X137836600Y-50828960D01*
X137769864Y-50493452D01*
X137638955Y-50177411D01*
X137448906Y-49892982D01*
X137207018Y-49651094D01*
X136922589Y-49461045D01*
X136606548Y-49330136D01*
X136271040Y-49263400D01*
X135928960Y-49263400D01*
X135593452Y-49330136D01*
X135277411Y-49461045D01*
X134992982Y-49651094D01*
X134751094Y-49892982D01*
X134561045Y-50177411D01*
X134430136Y-50493452D01*
X134363400Y-50828960D01*
X131336600Y-50828960D01*
X131269864Y-50493452D01*
X131138955Y-50177411D01*
X130948906Y-49892982D01*
X130707018Y-49651094D01*
X130422589Y-49461045D01*
X130106548Y-49330136D01*
X129771040Y-49263400D01*
X129428960Y-49263400D01*
X129093452Y-49330136D01*
X128777411Y-49461045D01*
X128492982Y-49651094D01*
X128251094Y-49892982D01*
X128061045Y-50177411D01*
X127930136Y-50493452D01*
X127863400Y-50828960D01*
X120339551Y-50828960D01*
X120312598Y-50763891D01*
X120027009Y-50336477D01*
X119663523Y-49972991D01*
X119236109Y-49687402D01*
X118761192Y-49490685D01*
X118257023Y-49390400D01*
X117742977Y-49390400D01*
X117238808Y-49490685D01*
X116763891Y-49687402D01*
X116336477Y-49972991D01*
X115972991Y-50336477D01*
X115687402Y-50763891D01*
X115490685Y-51238808D01*
X115390400Y-51742977D01*
X105771268Y-51742977D01*
X105790445Y-47370762D01*
X159265000Y-47269819D01*
X159265001Y-104769000D01*
X159265001Y-104769000D01*
G37*
X159265001Y-104769000D02*
X105735000Y-104769000D01*
X105735000Y-98802977D01*
X107118400Y-98802977D01*
X107118400Y-99317023D01*
X107218685Y-99821192D01*
X107415402Y-100296109D01*
X107700991Y-100723523D01*
X108064477Y-101087009D01*
X108491891Y-101372598D01*
X108966808Y-101569315D01*
X109470977Y-101669600D01*
X109985023Y-101669600D01*
X110489192Y-101569315D01*
X110964109Y-101372598D01*
X111391523Y-101087009D01*
X111755009Y-100723523D01*
X112040598Y-100296109D01*
X112237315Y-99821192D01*
X112337600Y-99317023D01*
X112337600Y-98802977D01*
X112237315Y-98298808D01*
X112040598Y-97823891D01*
X111828190Y-97506000D01*
X118909836Y-97506000D01*
X118909836Y-100106000D01*
X118924058Y-100250399D01*
X118966178Y-100389249D01*
X119034576Y-100517213D01*
X119126625Y-100629375D01*
X119238787Y-100721424D01*
X119366751Y-100789822D01*
X119505601Y-100831942D01*
X119650000Y-100846164D01*
X121650000Y-100846164D01*
X121794399Y-100831942D01*
X121933249Y-100789822D01*
X122061213Y-100721424D01*
X122173375Y-100629375D01*
X122229087Y-100561490D01*
X122522218Y-100718172D01*
X122849568Y-100817472D01*
X123190000Y-100851002D01*
X123530433Y-100817472D01*
X123857783Y-100718172D01*
X124159471Y-100556916D01*
X124423903Y-100339903D01*
X124529126Y-100211688D01*
X124663683Y-100351922D01*
X124927239Y-100536010D01*
X125221645Y-100665144D01*
X125349566Y-100696124D01*
X125603000Y-100576777D01*
X125603000Y-98933000D01*
X125583000Y-98933000D01*
X125583000Y-98679000D01*
X125603000Y-98679000D01*
X125603000Y-97035223D01*
X125857000Y-97035223D01*
X125857000Y-98679000D01*
X125877000Y-98679000D01*
X125877000Y-98933000D01*
X125857000Y-98933000D01*
X125857000Y-100576777D01*
X126110434Y-100696124D01*
X126238355Y-100665144D01*
X126532761Y-100536010D01*
X126796317Y-100351922D01*
X126930874Y-100211688D01*
X127036097Y-100339903D01*
X127300530Y-100556916D01*
X127602218Y-100718172D01*
X127929568Y-100817472D01*
X128270000Y-100851002D01*
X128610433Y-100817472D01*
X128937783Y-100718172D01*
X129239471Y-100556916D01*
X129503903Y-100339903D01*
X129540000Y-100295919D01*
X129576097Y-100339903D01*
X129840530Y-100556916D01*
X130142218Y-100718172D01*
X130469568Y-100817472D01*
X130810000Y-100851002D01*
X131150433Y-100817472D01*
X131477783Y-100718172D01*
X131779471Y-100556916D01*
X132043903Y-100339903D01*
X132260916Y-100075471D01*
X132422172Y-99773783D01*
X132521472Y-99446432D01*
X132546600Y-99191305D01*
X132546600Y-98420694D01*
X132521472Y-98165567D01*
X132422172Y-97838217D01*
X132322637Y-97652000D01*
X136027836Y-97652000D01*
X136027836Y-99452000D01*
X136042058Y-99596399D01*
X136084178Y-99735249D01*
X136152576Y-99863213D01*
X136244625Y-99975375D01*
X136356787Y-100067424D01*
X136484751Y-100135822D01*
X136623601Y-100177942D01*
X136768000Y-100192164D01*
X138568000Y-100192164D01*
X138712399Y-100177942D01*
X138851249Y-100135822D01*
X138979213Y-100067424D01*
X139091375Y-99975375D01*
X139183424Y-99863213D01*
X139194251Y-99842957D01*
X139432779Y-100002336D01*
X139730621Y-100125707D01*
X140046809Y-100188600D01*
X140369191Y-100188600D01*
X140685379Y-100125707D01*
X140983221Y-100002336D01*
X141251272Y-99823230D01*
X141479230Y-99595272D01*
X141658336Y-99327221D01*
X141711861Y-99198000D01*
X145781928Y-99198000D01*
X145794188Y-99322482D01*
X145830498Y-99442180D01*
X145889463Y-99552494D01*
X145968815Y-99649185D01*
X146065506Y-99728537D01*
X146175820Y-99787502D01*
X146295518Y-99823812D01*
X146420000Y-99836072D01*
X147034250Y-99833000D01*
X147193000Y-99674250D01*
X147193000Y-98425000D01*
X145943750Y-98425000D01*
X145785000Y-98583750D01*
X145781928Y-99198000D01*
X141711861Y-99198000D01*
X141781707Y-99029379D01*
X141844600Y-98713191D01*
X141844600Y-98390809D01*
X141781707Y-98074621D01*
X141658336Y-97776779D01*
X141479230Y-97508728D01*
X141368502Y-97398000D01*
X145781928Y-97398000D01*
X145785000Y-98012250D01*
X145943750Y-98171000D01*
X147193000Y-98171000D01*
X147193000Y-96921750D01*
X147447000Y-96921750D01*
X147447000Y-98171000D01*
X147467000Y-98171000D01*
X147467000Y-98425000D01*
X147447000Y-98425000D01*
X147447000Y-99674250D01*
X147605750Y-99833000D01*
X148220000Y-99836072D01*
X148344482Y-99823812D01*
X148464180Y-99787502D01*
X148574494Y-99728537D01*
X148671185Y-99649185D01*
X148750537Y-99552494D01*
X148767764Y-99520266D01*
X148816728Y-99569230D01*
X149084779Y-99748336D01*
X149382621Y-99871707D01*
X149698809Y-99934600D01*
X150021191Y-99934600D01*
X150337379Y-99871707D01*
X150635221Y-99748336D01*
X150903272Y-99569230D01*
X151131230Y-99341272D01*
X151310336Y-99073221D01*
X151422275Y-98802977D01*
X153346400Y-98802977D01*
X153346400Y-99317023D01*
X153446685Y-99821192D01*
X153643402Y-100296109D01*
X153928991Y-100723523D01*
X154292477Y-101087009D01*
X154719891Y-101372598D01*
X155194808Y-101569315D01*
X155698977Y-101669600D01*
X156213023Y-101669600D01*
X156717192Y-101569315D01*
X157192109Y-101372598D01*
X157619523Y-101087009D01*
X157983009Y-100723523D01*
X158268598Y-100296109D01*
X158465315Y-99821192D01*
X158565600Y-99317023D01*
X158565600Y-98802977D01*
X158465315Y-98298808D01*
X158268598Y-97823891D01*
X157983009Y-97396477D01*
X157619523Y-97032991D01*
X157192109Y-96747402D01*
X156717192Y-96550685D01*
X156213023Y-96450400D01*
X155698977Y-96450400D01*
X155194808Y-96550685D01*
X154719891Y-96747402D01*
X154292477Y-97032991D01*
X153928991Y-97396477D01*
X153643402Y-97823891D01*
X153446685Y-98298808D01*
X153346400Y-98802977D01*
X151422275Y-98802977D01*
X151433707Y-98775379D01*
X151496600Y-98459191D01*
X151496600Y-98136809D01*
X151433707Y-97820621D01*
X151310336Y-97522779D01*
X151131230Y-97254728D01*
X150903272Y-97026770D01*
X150635221Y-96847664D01*
X150337379Y-96724293D01*
X150021191Y-96661400D01*
X149698809Y-96661400D01*
X149382621Y-96724293D01*
X149084779Y-96847664D01*
X148816728Y-97026770D01*
X148767764Y-97075734D01*
X148750537Y-97043506D01*
X148671185Y-96946815D01*
X148574494Y-96867463D01*
X148464180Y-96808498D01*
X148344482Y-96772188D01*
X148220000Y-96759928D01*
X147605750Y-96763000D01*
X147447000Y-96921750D01*
X147193000Y-96921750D01*
X147034250Y-96763000D01*
X146420000Y-96759928D01*
X146295518Y-96772188D01*
X146175820Y-96808498D01*
X146065506Y-96867463D01*
X145968815Y-96946815D01*
X145889463Y-97043506D01*
X145830498Y-97153820D01*
X145794188Y-97273518D01*
X145781928Y-97398000D01*
X141368502Y-97398000D01*
X141251272Y-97280770D01*
X140983221Y-97101664D01*
X140685379Y-96978293D01*
X140369191Y-96915400D01*
X140046809Y-96915400D01*
X139730621Y-96978293D01*
X139432779Y-97101664D01*
X139194251Y-97261043D01*
X139183424Y-97240787D01*
X139091375Y-97128625D01*
X138979213Y-97036576D01*
X138851249Y-96968178D01*
X138712399Y-96926058D01*
X138568000Y-96911836D01*
X136768000Y-96911836D01*
X136623601Y-96926058D01*
X136484751Y-96968178D01*
X136356787Y-97036576D01*
X136244625Y-97128625D01*
X136152576Y-97240787D01*
X136084178Y-97368751D01*
X136042058Y-97507601D01*
X136027836Y-97652000D01*
X132322637Y-97652000D01*
X132260916Y-97536529D01*
X132043903Y-97272097D01*
X131779470Y-97055084D01*
X131477782Y-96893828D01*
X131150432Y-96794528D01*
X130810000Y-96760998D01*
X130469567Y-96794528D01*
X130142217Y-96893828D01*
X129840529Y-97055084D01*
X129576097Y-97272097D01*
X129540000Y-97316082D01*
X129503903Y-97272097D01*
X129239470Y-97055084D01*
X128937782Y-96893828D01*
X128610432Y-96794528D01*
X128270000Y-96760998D01*
X127929567Y-96794528D01*
X127602217Y-96893828D01*
X127300529Y-97055084D01*
X127036097Y-97272097D01*
X126930874Y-97400312D01*
X126796317Y-97260078D01*
X126532761Y-97075990D01*
X126238355Y-96946856D01*
X126110434Y-96915876D01*
X125857000Y-97035223D01*
X125603000Y-97035223D01*
X125349566Y-96915876D01*
X125221645Y-96946856D01*
X124927239Y-97075990D01*
X124663683Y-97260078D01*
X124529126Y-97400312D01*
X124423903Y-97272097D01*
X124159470Y-97055084D01*
X123857782Y-96893828D01*
X123530432Y-96794528D01*
X123190000Y-96760998D01*
X122849567Y-96794528D01*
X122522217Y-96893828D01*
X122229087Y-97050510D01*
X122173375Y-96982625D01*
X122061213Y-96890576D01*
X121933249Y-96822178D01*
X121794399Y-96780058D01*
X121650000Y-96765836D01*
X119650000Y-96765836D01*
X119505601Y-96780058D01*
X119366751Y-96822178D01*
X119238787Y-96890576D01*
X119126625Y-96982625D01*
X119034576Y-97094787D01*
X118966178Y-97222751D01*
X118924058Y-97361601D01*
X118909836Y-97506000D01*
X111828190Y-97506000D01*
X111755009Y-97396477D01*
X111391523Y-97032991D01*
X110964109Y-96747402D01*
X110489192Y-96550685D01*
X109985023Y-96450400D01*
X109470977Y-96450400D01*
X108966808Y-96550685D01*
X108491891Y-96747402D01*
X108064477Y-97032991D01*
X107700991Y-97396477D01*
X107415402Y-97823891D01*
X107218685Y-98298808D01*
X107118400Y-98802977D01*
X105735000Y-98802977D01*
X105735000Y-90942960D01*
X112517400Y-90942960D01*
X112517400Y-91285040D01*
X112584136Y-91620548D01*
X112715045Y-91936589D01*
X112905094Y-92221018D01*
X113146982Y-92462906D01*
X113431411Y-92652955D01*
X113747452Y-92783864D01*
X114082960Y-92850600D01*
X114425040Y-92850600D01*
X114760548Y-92783864D01*
X115076589Y-92652955D01*
X115361018Y-92462906D01*
X115602906Y-92221018D01*
X115792955Y-91936589D01*
X115923864Y-91620548D01*
X115990600Y-91285040D01*
X115990600Y-90942960D01*
X119017400Y-90942960D01*
X119017400Y-91285040D01*
X119084136Y-91620548D01*
X119215045Y-91936589D01*
X119405094Y-92221018D01*
X119646982Y-92462906D01*
X119931411Y-92652955D01*
X120247452Y-92783864D01*
X120582960Y-92850600D01*
X120925040Y-92850600D01*
X121260548Y-92783864D01*
X121576589Y-92652955D01*
X121861018Y-92462906D01*
X122102906Y-92221018D01*
X122292955Y-91936589D01*
X122423864Y-91620548D01*
X122490600Y-91285040D01*
X122490600Y-90946960D01*
X142517400Y-90946960D01*
X142517400Y-91289040D01*
X142584136Y-91624548D01*
X142715045Y-91940589D01*
X142905094Y-92225018D01*
X143146982Y-92466906D01*
X143431411Y-92656955D01*
X143747452Y-92787864D01*
X144082960Y-92854600D01*
X144425040Y-92854600D01*
X144760548Y-92787864D01*
X145076589Y-92656955D01*
X145361018Y-92466906D01*
X145602906Y-92225018D01*
X145792955Y-91940589D01*
X145923864Y-91624548D01*
X145990600Y-91289040D01*
X145990600Y-90946960D01*
X149017400Y-90946960D01*
X149017400Y-91289040D01*
X149084136Y-91624548D01*
X149215045Y-91940589D01*
X149405094Y-92225018D01*
X149646982Y-92466906D01*
X149931411Y-92656955D01*
X150247452Y-92787864D01*
X150582960Y-92854600D01*
X150925040Y-92854600D01*
X151260548Y-92787864D01*
X151576589Y-92656955D01*
X151861018Y-92466906D01*
X152102906Y-92225018D01*
X152292955Y-91940589D01*
X152423864Y-91624548D01*
X152490600Y-91289040D01*
X152490600Y-90946960D01*
X152423864Y-90611452D01*
X152292955Y-90295411D01*
X152102906Y-90010982D01*
X151861018Y-89769094D01*
X151576589Y-89579045D01*
X151260548Y-89448136D01*
X150925040Y-89381400D01*
X150582960Y-89381400D01*
X150247452Y-89448136D01*
X149931411Y-89579045D01*
X149646982Y-89769094D01*
X149405094Y-90010982D01*
X149215045Y-90295411D01*
X149084136Y-90611452D01*
X149017400Y-90946960D01*
X145990600Y-90946960D01*
X145923864Y-90611452D01*
X145792955Y-90295411D01*
X145602906Y-90010982D01*
X145361018Y-89769094D01*
X145076589Y-89579045D01*
X144760548Y-89448136D01*
X144425040Y-89381400D01*
X144082960Y-89381400D01*
X143747452Y-89448136D01*
X143431411Y-89579045D01*
X143146982Y-89769094D01*
X142905094Y-90010982D01*
X142715045Y-90295411D01*
X142584136Y-90611452D01*
X142517400Y-90946960D01*
X122490600Y-90946960D01*
X122490600Y-90942960D01*
X122423864Y-90607452D01*
X122292955Y-90291411D01*
X122102906Y-90006982D01*
X121861018Y-89765094D01*
X121576589Y-89575045D01*
X121260548Y-89444136D01*
X120925040Y-89377400D01*
X120582960Y-89377400D01*
X120247452Y-89444136D01*
X119931411Y-89575045D01*
X119646982Y-89765094D01*
X119405094Y-90006982D01*
X119215045Y-90291411D01*
X119084136Y-90607452D01*
X119017400Y-90942960D01*
X115990600Y-90942960D01*
X115923864Y-90607452D01*
X115792955Y-90291411D01*
X115602906Y-90006982D01*
X115361018Y-89765094D01*
X115076589Y-89575045D01*
X114760548Y-89444136D01*
X114425040Y-89377400D01*
X114082960Y-89377400D01*
X113747452Y-89444136D01*
X113431411Y-89575045D01*
X113146982Y-89765094D01*
X112905094Y-90006982D01*
X112715045Y-90291411D01*
X112584136Y-90607452D01*
X112517400Y-90942960D01*
X105735000Y-90942960D01*
X105735000Y-86442960D01*
X112517400Y-86442960D01*
X112517400Y-86785040D01*
X112584136Y-87120548D01*
X112715045Y-87436589D01*
X112905094Y-87721018D01*
X113146982Y-87962906D01*
X113431411Y-88152955D01*
X113747452Y-88283864D01*
X114082960Y-88350600D01*
X114425040Y-88350600D01*
X114760548Y-88283864D01*
X115076589Y-88152955D01*
X115361018Y-87962906D01*
X115602906Y-87721018D01*
X115792955Y-87436589D01*
X115923864Y-87120548D01*
X115990600Y-86785040D01*
X115990600Y-86442960D01*
X119017400Y-86442960D01*
X119017400Y-86785040D01*
X119084136Y-87120548D01*
X119215045Y-87436589D01*
X119405094Y-87721018D01*
X119646982Y-87962906D01*
X119931411Y-88152955D01*
X120247452Y-88283864D01*
X120582960Y-88350600D01*
X120925040Y-88350600D01*
X121260548Y-88283864D01*
X121576589Y-88152955D01*
X121861018Y-87962906D01*
X122102906Y-87721018D01*
X122292955Y-87436589D01*
X122423864Y-87120548D01*
X122490600Y-86785040D01*
X122490600Y-86742977D01*
X129390400Y-86742977D01*
X129390400Y-87257023D01*
X129490685Y-87761192D01*
X129687402Y-88236109D01*
X129972991Y-88663523D01*
X130336477Y-89027009D01*
X130763891Y-89312598D01*
X131238808Y-89509315D01*
X131742977Y-89609600D01*
X132257023Y-89609600D01*
X132761192Y-89509315D01*
X133236109Y-89312598D01*
X133663523Y-89027009D01*
X134027009Y-88663523D01*
X134312598Y-88236109D01*
X134509315Y-87761192D01*
X134609600Y-87257023D01*
X134609600Y-86742977D01*
X134550719Y-86446960D01*
X142517400Y-86446960D01*
X142517400Y-86789040D01*
X142584136Y-87124548D01*
X142715045Y-87440589D01*
X142905094Y-87725018D01*
X143146982Y-87966906D01*
X143431411Y-88156955D01*
X143747452Y-88287864D01*
X144082960Y-88354600D01*
X144425040Y-88354600D01*
X144760548Y-88287864D01*
X145076589Y-88156955D01*
X145361018Y-87966906D01*
X145602906Y-87725018D01*
X145792955Y-87440589D01*
X145923864Y-87124548D01*
X145990600Y-86789040D01*
X145990600Y-86446960D01*
X149017400Y-86446960D01*
X149017400Y-86789040D01*
X149084136Y-87124548D01*
X149215045Y-87440589D01*
X149405094Y-87725018D01*
X149646982Y-87966906D01*
X149931411Y-88156955D01*
X150247452Y-88287864D01*
X150582960Y-88354600D01*
X150925040Y-88354600D01*
X151260548Y-88287864D01*
X151576589Y-88156955D01*
X151861018Y-87966906D01*
X152102906Y-87725018D01*
X152292955Y-87440589D01*
X152423864Y-87124548D01*
X152490600Y-86789040D01*
X152490600Y-86446960D01*
X152423864Y-86111452D01*
X152292955Y-85795411D01*
X152102906Y-85510982D01*
X151861018Y-85269094D01*
X151576589Y-85079045D01*
X151260548Y-84948136D01*
X150925040Y-84881400D01*
X150582960Y-84881400D01*
X150247452Y-84948136D01*
X149931411Y-85079045D01*
X149646982Y-85269094D01*
X149405094Y-85510982D01*
X149215045Y-85795411D01*
X149084136Y-86111452D01*
X149017400Y-86446960D01*
X145990600Y-86446960D01*
X145923864Y-86111452D01*
X145792955Y-85795411D01*
X145602906Y-85510982D01*
X145361018Y-85269094D01*
X145076589Y-85079045D01*
X144760548Y-84948136D01*
X144425040Y-84881400D01*
X144082960Y-84881400D01*
X143747452Y-84948136D01*
X143431411Y-85079045D01*
X143146982Y-85269094D01*
X142905094Y-85510982D01*
X142715045Y-85795411D01*
X142584136Y-86111452D01*
X142517400Y-86446960D01*
X134550719Y-86446960D01*
X134509315Y-86238808D01*
X134312598Y-85763891D01*
X134027009Y-85336477D01*
X133663523Y-84972991D01*
X133236109Y-84687402D01*
X132761192Y-84490685D01*
X132257023Y-84390400D01*
X131742977Y-84390400D01*
X131238808Y-84490685D01*
X130763891Y-84687402D01*
X130336477Y-84972991D01*
X129972991Y-85336477D01*
X129687402Y-85763891D01*
X129490685Y-86238808D01*
X129390400Y-86742977D01*
X122490600Y-86742977D01*
X122490600Y-86442960D01*
X122423864Y-86107452D01*
X122292955Y-85791411D01*
X122102906Y-85506982D01*
X121861018Y-85265094D01*
X121576589Y-85075045D01*
X121260548Y-84944136D01*
X120925040Y-84877400D01*
X120582960Y-84877400D01*
X120247452Y-84944136D01*
X119931411Y-85075045D01*
X119646982Y-85265094D01*
X119405094Y-85506982D01*
X119215045Y-85791411D01*
X119084136Y-86107452D01*
X119017400Y-86442960D01*
X115990600Y-86442960D01*
X115923864Y-86107452D01*
X115792955Y-85791411D01*
X115602906Y-85506982D01*
X115361018Y-85265094D01*
X115076589Y-85075045D01*
X114760548Y-84944136D01*
X114425040Y-84877400D01*
X114082960Y-84877400D01*
X113747452Y-84944136D01*
X113431411Y-85075045D01*
X113146982Y-85265094D01*
X112905094Y-85506982D01*
X112715045Y-85791411D01*
X112584136Y-86107452D01*
X112517400Y-86442960D01*
X105735000Y-86442960D01*
X105735000Y-80296960D01*
X127263400Y-80296960D01*
X127263400Y-80639040D01*
X127330136Y-80974548D01*
X127461045Y-81290589D01*
X127651094Y-81575018D01*
X127892982Y-81816906D01*
X128177411Y-82006955D01*
X128493452Y-82137864D01*
X128828960Y-82204600D01*
X129171040Y-82204600D01*
X129506548Y-82137864D01*
X129822589Y-82006955D01*
X130107018Y-81816906D01*
X130348906Y-81575018D01*
X130538955Y-81290589D01*
X130669864Y-80974548D01*
X130736600Y-80639040D01*
X130736600Y-80296960D01*
X133763400Y-80296960D01*
X133763400Y-80639040D01*
X133830136Y-80974548D01*
X133961045Y-81290589D01*
X134151094Y-81575018D01*
X134392982Y-81816906D01*
X134677411Y-82006955D01*
X134993452Y-82137864D01*
X135328960Y-82204600D01*
X135671040Y-82204600D01*
X136006548Y-82137864D01*
X136322589Y-82006955D01*
X136607018Y-81816906D01*
X136848906Y-81575018D01*
X137038955Y-81290589D01*
X137169864Y-80974548D01*
X137236600Y-80639040D01*
X137236600Y-80296960D01*
X137169864Y-79961452D01*
X137038955Y-79645411D01*
X136848906Y-79360982D01*
X136607018Y-79119094D01*
X136322589Y-78929045D01*
X136006548Y-78798136D01*
X135671040Y-78731400D01*
X135328960Y-78731400D01*
X134993452Y-78798136D01*
X134677411Y-78929045D01*
X134392982Y-79119094D01*
X134151094Y-79360982D01*
X133961045Y-79645411D01*
X133830136Y-79961452D01*
X133763400Y-80296960D01*
X130736600Y-80296960D01*
X130669864Y-79961452D01*
X130538955Y-79645411D01*
X130348906Y-79360982D01*
X130107018Y-79119094D01*
X129822589Y-78929045D01*
X129506548Y-78798136D01*
X129171040Y-78731400D01*
X128828960Y-78731400D01*
X128493452Y-78798136D01*
X128177411Y-78929045D01*
X127892982Y-79119094D01*
X127651094Y-79360982D01*
X127461045Y-79645411D01*
X127330136Y-79961452D01*
X127263400Y-80296960D01*
X105735000Y-80296960D01*
X105735000Y-75796960D01*
X127263400Y-75796960D01*
X127263400Y-76139040D01*
X127330136Y-76474548D01*
X127461045Y-76790589D01*
X127651094Y-77075018D01*
X127892982Y-77316906D01*
X128177411Y-77506955D01*
X128493452Y-77637864D01*
X128828960Y-77704600D01*
X129171040Y-77704600D01*
X129506548Y-77637864D01*
X129822589Y-77506955D01*
X130107018Y-77316906D01*
X130348906Y-77075018D01*
X130538955Y-76790589D01*
X130669864Y-76474548D01*
X130736600Y-76139040D01*
X130736600Y-75796960D01*
X133763400Y-75796960D01*
X133763400Y-76139040D01*
X133830136Y-76474548D01*
X133961045Y-76790589D01*
X134151094Y-77075018D01*
X134392982Y-77316906D01*
X134677411Y-77506955D01*
X134993452Y-77637864D01*
X135328960Y-77704600D01*
X135671040Y-77704600D01*
X136006548Y-77637864D01*
X136322589Y-77506955D01*
X136607018Y-77316906D01*
X136848906Y-77075018D01*
X137038955Y-76790589D01*
X137169864Y-76474548D01*
X137236600Y-76139040D01*
X137236600Y-75796960D01*
X137169864Y-75461452D01*
X137038955Y-75145411D01*
X136848906Y-74860982D01*
X136607018Y-74619094D01*
X136322589Y-74429045D01*
X136006548Y-74298136D01*
X135671040Y-74231400D01*
X135328960Y-74231400D01*
X134993452Y-74298136D01*
X134677411Y-74429045D01*
X134392982Y-74619094D01*
X134151094Y-74860982D01*
X133961045Y-75145411D01*
X133830136Y-75461452D01*
X133763400Y-75796960D01*
X130736600Y-75796960D01*
X130669864Y-75461452D01*
X130538955Y-75145411D01*
X130348906Y-74860982D01*
X130107018Y-74619094D01*
X129822589Y-74429045D01*
X129506548Y-74298136D01*
X129171040Y-74231400D01*
X128828960Y-74231400D01*
X128493452Y-74298136D01*
X128177411Y-74429045D01*
X127892982Y-74619094D01*
X127651094Y-74860982D01*
X127461045Y-75145411D01*
X127330136Y-75461452D01*
X127263400Y-75796960D01*
X105735000Y-75796960D01*
X105735000Y-72640977D01*
X114992400Y-72640977D01*
X114992400Y-73155023D01*
X115092685Y-73659192D01*
X115289402Y-74134109D01*
X115574991Y-74561523D01*
X115938477Y-74925009D01*
X116365891Y-75210598D01*
X116840808Y-75407315D01*
X117344977Y-75507600D01*
X117859023Y-75507600D01*
X118363192Y-75407315D01*
X118838109Y-75210598D01*
X119265523Y-74925009D01*
X119629009Y-74561523D01*
X119914598Y-74134109D01*
X120111315Y-73659192D01*
X120162279Y-73402977D01*
X143694400Y-73402977D01*
X143694400Y-73917023D01*
X143794685Y-74421192D01*
X143991402Y-74896109D01*
X144276991Y-75323523D01*
X144640477Y-75687009D01*
X145067891Y-75972598D01*
X145542808Y-76169315D01*
X146046977Y-76269600D01*
X146561023Y-76269600D01*
X147065192Y-76169315D01*
X147540109Y-75972598D01*
X147967523Y-75687009D01*
X148331009Y-75323523D01*
X148616598Y-74896109D01*
X148813315Y-74421192D01*
X148913600Y-73917023D01*
X148913600Y-73402977D01*
X148813315Y-72898808D01*
X148616598Y-72423891D01*
X148331009Y-71996477D01*
X147967523Y-71632991D01*
X147540109Y-71347402D01*
X147065192Y-71150685D01*
X146561023Y-71050400D01*
X146046977Y-71050400D01*
X145542808Y-71150685D01*
X145067891Y-71347402D01*
X144640477Y-71632991D01*
X144276991Y-71996477D01*
X143991402Y-72423891D01*
X143794685Y-72898808D01*
X143694400Y-73402977D01*
X120162279Y-73402977D01*
X120211600Y-73155023D01*
X120211600Y-72640977D01*
X120111315Y-72136808D01*
X119914598Y-71661891D01*
X119629009Y-71234477D01*
X119265523Y-70870991D01*
X118838109Y-70585402D01*
X118363192Y-70388685D01*
X117859023Y-70288400D01*
X117344977Y-70288400D01*
X116840808Y-70388685D01*
X116365891Y-70585402D01*
X115938477Y-70870991D01*
X115574991Y-71234477D01*
X115289402Y-71661891D01*
X115092685Y-72136808D01*
X114992400Y-72640977D01*
X105735000Y-72640977D01*
X105735000Y-65970960D01*
X112563400Y-65970960D01*
X112563400Y-66313040D01*
X112630136Y-66648548D01*
X112761045Y-66964589D01*
X112951094Y-67249018D01*
X113192982Y-67490906D01*
X113477411Y-67680955D01*
X113793452Y-67811864D01*
X114128960Y-67878600D01*
X114471040Y-67878600D01*
X114806548Y-67811864D01*
X115122589Y-67680955D01*
X115407018Y-67490906D01*
X115648906Y-67249018D01*
X115838955Y-66964589D01*
X115969864Y-66648548D01*
X116036600Y-66313040D01*
X116036600Y-65970960D01*
X119063400Y-65970960D01*
X119063400Y-66313040D01*
X119130136Y-66648548D01*
X119261045Y-66964589D01*
X119451094Y-67249018D01*
X119692982Y-67490906D01*
X119977411Y-67680955D01*
X120293452Y-67811864D01*
X120628960Y-67878600D01*
X120971040Y-67878600D01*
X121306548Y-67811864D01*
X121472855Y-67742977D01*
X129390400Y-67742977D01*
X129390400Y-68257023D01*
X129490685Y-68761192D01*
X129687402Y-69236109D01*
X129972991Y-69663523D01*
X130336477Y-70027009D01*
X130763891Y-70312598D01*
X131238808Y-70509315D01*
X131742977Y-70609600D01*
X132257023Y-70609600D01*
X132761192Y-70509315D01*
X133236109Y-70312598D01*
X133663523Y-70027009D01*
X134027009Y-69663523D01*
X134312598Y-69236109D01*
X134509315Y-68761192D01*
X134609600Y-68257023D01*
X134609600Y-67742977D01*
X134509315Y-67238808D01*
X134312598Y-66763891D01*
X134027009Y-66336477D01*
X133663523Y-65972991D01*
X133660484Y-65970960D01*
X142533400Y-65970960D01*
X142533400Y-66313040D01*
X142600136Y-66648548D01*
X142731045Y-66964589D01*
X142921094Y-67249018D01*
X143162982Y-67490906D01*
X143447411Y-67680955D01*
X143763452Y-67811864D01*
X144098960Y-67878600D01*
X144441040Y-67878600D01*
X144776548Y-67811864D01*
X145092589Y-67680955D01*
X145377018Y-67490906D01*
X145618906Y-67249018D01*
X145808955Y-66964589D01*
X145939864Y-66648548D01*
X146006600Y-66313040D01*
X146006600Y-65970960D01*
X149033400Y-65970960D01*
X149033400Y-66313040D01*
X149100136Y-66648548D01*
X149231045Y-66964589D01*
X149421094Y-67249018D01*
X149662982Y-67490906D01*
X149947411Y-67680955D01*
X150263452Y-67811864D01*
X150598960Y-67878600D01*
X150941040Y-67878600D01*
X151276548Y-67811864D01*
X151592589Y-67680955D01*
X151877018Y-67490906D01*
X152118906Y-67249018D01*
X152308955Y-66964589D01*
X152439864Y-66648548D01*
X152506600Y-66313040D01*
X152506600Y-65970960D01*
X152439864Y-65635452D01*
X152308955Y-65319411D01*
X152118906Y-65034982D01*
X151877018Y-64793094D01*
X151592589Y-64603045D01*
X151276548Y-64472136D01*
X150941040Y-64405400D01*
X150598960Y-64405400D01*
X150263452Y-64472136D01*
X149947411Y-64603045D01*
X149662982Y-64793094D01*
X149421094Y-65034982D01*
X149231045Y-65319411D01*
X149100136Y-65635452D01*
X149033400Y-65970960D01*
X146006600Y-65970960D01*
X145939864Y-65635452D01*
X145808955Y-65319411D01*
X145618906Y-65034982D01*
X145377018Y-64793094D01*
X145092589Y-64603045D01*
X144776548Y-64472136D01*
X144441040Y-64405400D01*
X144098960Y-64405400D01*
X143763452Y-64472136D01*
X143447411Y-64603045D01*
X143162982Y-64793094D01*
X142921094Y-65034982D01*
X142731045Y-65319411D01*
X142600136Y-65635452D01*
X142533400Y-65970960D01*
X133660484Y-65970960D01*
X133236109Y-65687402D01*
X132761192Y-65490685D01*
X132257023Y-65390400D01*
X131742977Y-65390400D01*
X131238808Y-65490685D01*
X130763891Y-65687402D01*
X130336477Y-65972991D01*
X129972991Y-66336477D01*
X129687402Y-66763891D01*
X129490685Y-67238808D01*
X129390400Y-67742977D01*
X121472855Y-67742977D01*
X121622589Y-67680955D01*
X121907018Y-67490906D01*
X122148906Y-67249018D01*
X122338955Y-66964589D01*
X122469864Y-66648548D01*
X122536600Y-66313040D01*
X122536600Y-65970960D01*
X122469864Y-65635452D01*
X122338955Y-65319411D01*
X122148906Y-65034982D01*
X121907018Y-64793094D01*
X121622589Y-64603045D01*
X121306548Y-64472136D01*
X120971040Y-64405400D01*
X120628960Y-64405400D01*
X120293452Y-64472136D01*
X119977411Y-64603045D01*
X119692982Y-64793094D01*
X119451094Y-65034982D01*
X119261045Y-65319411D01*
X119130136Y-65635452D01*
X119063400Y-65970960D01*
X116036600Y-65970960D01*
X115969864Y-65635452D01*
X115838955Y-65319411D01*
X115648906Y-65034982D01*
X115407018Y-64793094D01*
X115122589Y-64603045D01*
X114806548Y-64472136D01*
X114471040Y-64405400D01*
X114128960Y-64405400D01*
X113793452Y-64472136D01*
X113477411Y-64603045D01*
X113192982Y-64793094D01*
X112951094Y-65034982D01*
X112761045Y-65319411D01*
X112630136Y-65635452D01*
X112563400Y-65970960D01*
X105735000Y-65970960D01*
X105735000Y-61470960D01*
X112563400Y-61470960D01*
X112563400Y-61813040D01*
X112630136Y-62148548D01*
X112761045Y-62464589D01*
X112951094Y-62749018D01*
X113192982Y-62990906D01*
X113477411Y-63180955D01*
X113793452Y-63311864D01*
X114128960Y-63378600D01*
X114471040Y-63378600D01*
X114806548Y-63311864D01*
X115122589Y-63180955D01*
X115407018Y-62990906D01*
X115648906Y-62749018D01*
X115838955Y-62464589D01*
X115969864Y-62148548D01*
X116036600Y-61813040D01*
X116036600Y-61470960D01*
X119063400Y-61470960D01*
X119063400Y-61813040D01*
X119130136Y-62148548D01*
X119261045Y-62464589D01*
X119451094Y-62749018D01*
X119692982Y-62990906D01*
X119977411Y-63180955D01*
X120293452Y-63311864D01*
X120628960Y-63378600D01*
X120971040Y-63378600D01*
X121306548Y-63311864D01*
X121622589Y-63180955D01*
X121907018Y-62990906D01*
X122148906Y-62749018D01*
X122338955Y-62464589D01*
X122469864Y-62148548D01*
X122536600Y-61813040D01*
X122536600Y-61470960D01*
X142533400Y-61470960D01*
X142533400Y-61813040D01*
X142600136Y-62148548D01*
X142731045Y-62464589D01*
X142921094Y-62749018D01*
X143162982Y-62990906D01*
X143447411Y-63180955D01*
X143763452Y-63311864D01*
X144098960Y-63378600D01*
X144441040Y-63378600D01*
X144776548Y-63311864D01*
X145092589Y-63180955D01*
X145377018Y-62990906D01*
X145618906Y-62749018D01*
X145808955Y-62464589D01*
X145939864Y-62148548D01*
X146006600Y-61813040D01*
X146006600Y-61470960D01*
X149033400Y-61470960D01*
X149033400Y-61813040D01*
X149100136Y-62148548D01*
X149231045Y-62464589D01*
X149421094Y-62749018D01*
X149662982Y-62990906D01*
X149947411Y-63180955D01*
X150263452Y-63311864D01*
X150598960Y-63378600D01*
X150941040Y-63378600D01*
X151276548Y-63311864D01*
X151592589Y-63180955D01*
X151877018Y-62990906D01*
X152118906Y-62749018D01*
X152308955Y-62464589D01*
X152439864Y-62148548D01*
X152506600Y-61813040D01*
X152506600Y-61470960D01*
X152439864Y-61135452D01*
X152308955Y-60819411D01*
X152118906Y-60534982D01*
X151877018Y-60293094D01*
X151592589Y-60103045D01*
X151276548Y-59972136D01*
X150941040Y-59905400D01*
X150598960Y-59905400D01*
X150263452Y-59972136D01*
X149947411Y-60103045D01*
X149662982Y-60293094D01*
X149421094Y-60534982D01*
X149231045Y-60819411D01*
X149100136Y-61135452D01*
X149033400Y-61470960D01*
X146006600Y-61470960D01*
X145939864Y-61135452D01*
X145808955Y-60819411D01*
X145618906Y-60534982D01*
X145377018Y-60293094D01*
X145092589Y-60103045D01*
X144776548Y-59972136D01*
X144441040Y-59905400D01*
X144098960Y-59905400D01*
X143763452Y-59972136D01*
X143447411Y-60103045D01*
X143162982Y-60293094D01*
X142921094Y-60534982D01*
X142731045Y-60819411D01*
X142600136Y-61135452D01*
X142533400Y-61470960D01*
X122536600Y-61470960D01*
X122469864Y-61135452D01*
X122338955Y-60819411D01*
X122148906Y-60534982D01*
X121907018Y-60293094D01*
X121622589Y-60103045D01*
X121306548Y-59972136D01*
X120971040Y-59905400D01*
X120628960Y-59905400D01*
X120293452Y-59972136D01*
X119977411Y-60103045D01*
X119692982Y-60293094D01*
X119451094Y-60534982D01*
X119261045Y-60819411D01*
X119130136Y-61135452D01*
X119063400Y-61470960D01*
X116036600Y-61470960D01*
X115969864Y-61135452D01*
X115838955Y-60819411D01*
X115648906Y-60534982D01*
X115407018Y-60293094D01*
X115122589Y-60103045D01*
X114806548Y-59972136D01*
X114471040Y-59905400D01*
X114128960Y-59905400D01*
X113793452Y-59972136D01*
X113477411Y-60103045D01*
X113192982Y-60293094D01*
X112951094Y-60534982D01*
X112761045Y-60819411D01*
X112630136Y-61135452D01*
X112563400Y-61470960D01*
X105735000Y-61470960D01*
X105735000Y-60012270D01*
X105755540Y-55328960D01*
X127863400Y-55328960D01*
X127863400Y-55671040D01*
X127930136Y-56006548D01*
X128061045Y-56322589D01*
X128251094Y-56607018D01*
X128492982Y-56848906D01*
X128777411Y-57038955D01*
X129093452Y-57169864D01*
X129428960Y-57236600D01*
X129771040Y-57236600D01*
X130106548Y-57169864D01*
X130422589Y-57038955D01*
X130707018Y-56848906D01*
X130948906Y-56607018D01*
X131138955Y-56322589D01*
X131269864Y-56006548D01*
X131336600Y-55671040D01*
X131336600Y-55328960D01*
X134363400Y-55328960D01*
X134363400Y-55671040D01*
X134430136Y-56006548D01*
X134561045Y-56322589D01*
X134751094Y-56607018D01*
X134992982Y-56848906D01*
X135277411Y-57038955D01*
X135593452Y-57169864D01*
X135928960Y-57236600D01*
X136271040Y-57236600D01*
X136606548Y-57169864D01*
X136922589Y-57038955D01*
X137207018Y-56848906D01*
X137448906Y-56607018D01*
X137638955Y-56322589D01*
X137769864Y-56006548D01*
X137836600Y-55671040D01*
X137836600Y-55328960D01*
X137769864Y-54993452D01*
X137638955Y-54677411D01*
X137448906Y-54392982D01*
X137207018Y-54151094D01*
X136922589Y-53961045D01*
X136606548Y-53830136D01*
X136271040Y-53763400D01*
X135928960Y-53763400D01*
X135593452Y-53830136D01*
X135277411Y-53961045D01*
X134992982Y-54151094D01*
X134751094Y-54392982D01*
X134561045Y-54677411D01*
X134430136Y-54993452D01*
X134363400Y-55328960D01*
X131336600Y-55328960D01*
X131269864Y-54993452D01*
X131138955Y-54677411D01*
X130948906Y-54392982D01*
X130707018Y-54151094D01*
X130422589Y-53961045D01*
X130106548Y-53830136D01*
X129771040Y-53763400D01*
X129428960Y-53763400D01*
X129093452Y-53830136D01*
X128777411Y-53961045D01*
X128492982Y-54151094D01*
X128251094Y-54392982D01*
X128061045Y-54677411D01*
X127930136Y-54993452D01*
X127863400Y-55328960D01*
X105755540Y-55328960D01*
X105771268Y-51742977D01*
X115390400Y-51742977D01*
X115390400Y-52257023D01*
X115490685Y-52761192D01*
X115687402Y-53236109D01*
X115972991Y-53663523D01*
X116336477Y-54027009D01*
X116763891Y-54312598D01*
X117238808Y-54509315D01*
X117742977Y-54609600D01*
X118257023Y-54609600D01*
X118761192Y-54509315D01*
X119236109Y-54312598D01*
X119663523Y-54027009D01*
X120027009Y-53663523D01*
X120312598Y-53236109D01*
X120509315Y-52761192D01*
X120609600Y-52257023D01*
X120609600Y-51742977D01*
X120509315Y-51238808D01*
X120339551Y-50828960D01*
X127863400Y-50828960D01*
X127863400Y-51171040D01*
X127930136Y-51506548D01*
X128061045Y-51822589D01*
X128251094Y-52107018D01*
X128492982Y-52348906D01*
X128777411Y-52538955D01*
X129093452Y-52669864D01*
X129428960Y-52736600D01*
X129771040Y-52736600D01*
X130106548Y-52669864D01*
X130422589Y-52538955D01*
X130707018Y-52348906D01*
X130948906Y-52107018D01*
X131138955Y-51822589D01*
X131269864Y-51506548D01*
X131336600Y-51171040D01*
X131336600Y-50828960D01*
X134363400Y-50828960D01*
X134363400Y-51171040D01*
X134430136Y-51506548D01*
X134561045Y-51822589D01*
X134751094Y-52107018D01*
X134992982Y-52348906D01*
X135277411Y-52538955D01*
X135593452Y-52669864D01*
X135928960Y-52736600D01*
X136271040Y-52736600D01*
X136606548Y-52669864D01*
X136922589Y-52538955D01*
X137207018Y-52348906D01*
X137448906Y-52107018D01*
X137638955Y-51822589D01*
X137671931Y-51742977D01*
X144390400Y-51742977D01*
X144390400Y-52257023D01*
X144490685Y-52761192D01*
X144687402Y-53236109D01*
X144972991Y-53663523D01*
X145336477Y-54027009D01*
X145763891Y-54312598D01*
X146238808Y-54509315D01*
X146742977Y-54609600D01*
X147257023Y-54609600D01*
X147761192Y-54509315D01*
X148236109Y-54312598D01*
X148663523Y-54027009D01*
X149027009Y-53663523D01*
X149312598Y-53236109D01*
X149509315Y-52761192D01*
X149609600Y-52257023D01*
X149609600Y-51742977D01*
X149509315Y-51238808D01*
X149312598Y-50763891D01*
X149027009Y-50336477D01*
X148663523Y-49972991D01*
X148236109Y-49687402D01*
X147761192Y-49490685D01*
X147257023Y-49390400D01*
X146742977Y-49390400D01*
X146238808Y-49490685D01*
X145763891Y-49687402D01*
X145336477Y-49972991D01*
X144972991Y-50336477D01*
X144687402Y-50763891D01*
X144490685Y-51238808D01*
X144390400Y-51742977D01*
X137671931Y-51742977D01*
X137769864Y-51506548D01*
X137836600Y-51171040D01*
X137836600Y-50828960D01*
X137769864Y-50493452D01*
X137638955Y-50177411D01*
X137448906Y-49892982D01*
X137207018Y-49651094D01*
X136922589Y-49461045D01*
X136606548Y-49330136D01*
X136271040Y-49263400D01*
X135928960Y-49263400D01*
X135593452Y-49330136D01*
X135277411Y-49461045D01*
X134992982Y-49651094D01*
X134751094Y-49892982D01*
X134561045Y-50177411D01*
X134430136Y-50493452D01*
X134363400Y-50828960D01*
X131336600Y-50828960D01*
X131269864Y-50493452D01*
X131138955Y-50177411D01*
X130948906Y-49892982D01*
X130707018Y-49651094D01*
X130422589Y-49461045D01*
X130106548Y-49330136D01*
X129771040Y-49263400D01*
X129428960Y-49263400D01*
X129093452Y-49330136D01*
X128777411Y-49461045D01*
X128492982Y-49651094D01*
X128251094Y-49892982D01*
X128061045Y-50177411D01*
X127930136Y-50493452D01*
X127863400Y-50828960D01*
X120339551Y-50828960D01*
X120312598Y-50763891D01*
X120027009Y-50336477D01*
X119663523Y-49972991D01*
X119236109Y-49687402D01*
X118761192Y-49490685D01*
X118257023Y-49390400D01*
X117742977Y-49390400D01*
X117238808Y-49490685D01*
X116763891Y-49687402D01*
X116336477Y-49972991D01*
X115972991Y-50336477D01*
X115687402Y-50763891D01*
X115490685Y-51238808D01*
X115390400Y-51742977D01*
X105771268Y-51742977D01*
X105790445Y-47370762D01*
X159265000Y-47269819D01*
X159265001Y-104769000D01*
M02*
