M48
; DRILL file {KiCad 5.1.2-f72e74a~84~ubuntu18.04.1} date jue 12 sep 2019 15:30:23 -03
; FORMAT={-:-/ absolute / metric / decimal}
; #@! TF.CreationDate,2019-09-12T15:30:23-03:00
; #@! TF.GenerationSoftware,Kicad,Pcbnew,5.1.2-f72e74a~84~ubuntu18.04.1
FMAT,2
METRIC
T1C0.800
T2C0.991
T3C1.000
T4C1.016
T5C1.200
T6C1.800
T7C3.000
%
G90
G05
T1
X144.78Y-114.427
X147.32Y-114.427
X149.86Y-114.427
X153.79Y-108.077
X161.29Y-108.077
X174.498Y-110.109
X174.498Y-120.269
X151.892Y-104.013
X162.052Y-104.013
X168.402Y-97.663
X168.402Y-100.203
X168.402Y-102.743
X135.636Y-110.109
X135.636Y-120.269
X156.718Y-93.853
X156.718Y-98.933
X161.798Y-96.393
X171.958Y-105.791
X174.498Y-105.791
X177.038Y-105.791
X141.732Y-101.727
X141.732Y-106.807
X146.812Y-104.267
X150.368Y-120.015
X160.528Y-120.015
T2
X143.764Y-83.185
T3
X120.65Y-116.459
X128.25Y-116.459
T4
X156.718Y-75.565
X159.258Y-75.565
X161.798Y-75.565
X164.338Y-75.565
X166.878Y-75.565
X169.418Y-75.565
X171.958Y-75.565
X174.498Y-75.565
X129.794Y-75.565
X132.334Y-75.565
X134.874Y-75.565
X137.414Y-75.565
X139.954Y-75.565
X142.494Y-75.565
X145.034Y-75.565
X147.574Y-75.565
X150.114Y-75.565
X152.654Y-75.565
X156.718Y-84.455
X156.718Y-86.995
X159.258Y-84.455
X159.258Y-86.995
X161.798Y-84.455
X161.798Y-86.995
X164.338Y-84.455
X164.338Y-86.995
X166.878Y-84.455
X166.878Y-86.995
X169.418Y-84.455
X169.418Y-86.995
X171.958Y-84.455
X171.958Y-86.995
X138.938Y-123.825
X141.478Y-123.825
X144.018Y-123.825
X146.558Y-123.825
X149.098Y-123.825
X151.638Y-123.825
X154.178Y-123.825
X156.718Y-123.825
X161.798Y-123.825
X164.338Y-123.825
X166.878Y-123.825
X169.418Y-123.825
X171.958Y-123.825
X174.498Y-123.825
T5
X154.98Y-114.173
X157.52Y-114.173
X160.06Y-114.173
X162.6Y-114.173
X165.14Y-114.173
T6
X120.65Y-83.357
X120.65Y-89.057
X120.65Y-94.757
X120.65Y-100.457
X126.15Y-83.357
X126.15Y-89.057
X126.15Y-94.757
X126.15Y-100.457
T7
X113.35Y-83.357
X113.35Y-100.457
T0
M30
