G04 #@! TF.GenerationSoftware,KiCad,Pcbnew,5.0.2+dfsg1-1*
G04 #@! TF.CreationDate,2019-08-29T13:22:36-03:00*
G04 #@! TF.ProjectId,teclado_contador_geiger,7465636c-6164-46f5-9f63-6f6e7461646f,rev?*
G04 #@! TF.SameCoordinates,Original*
G04 #@! TF.FileFunction,Soldermask,Top*
G04 #@! TF.FilePolarity,Negative*
%FSLAX46Y46*%
G04 Gerber Fmt 4.6, Leading zero omitted, Abs format (unit mm)*
G04 Created by KiCad (PCBNEW 5.0.2+dfsg1-1) date jue 29 ago 2019 13:22:36 -03*
%MOMM*%
%LPD*%
G01*
G04 APERTURE LIST*
%ADD10C,0.100000*%
G04 APERTURE END LIST*
D10*
G36*
X131016031Y-97470207D02*
X131214145Y-97530305D01*
X131396729Y-97627897D01*
X131556765Y-97759235D01*
X131556766Y-97759237D01*
X131556768Y-97759238D01*
X131601143Y-97813310D01*
X131688103Y-97919271D01*
X131785695Y-98101854D01*
X131845793Y-98299968D01*
X131861000Y-98454370D01*
X131861000Y-99157629D01*
X131845793Y-99312031D01*
X131820695Y-99394766D01*
X131785695Y-99510147D01*
X131733531Y-99607739D01*
X131688103Y-99692729D01*
X131556765Y-99852765D01*
X131396729Y-99984103D01*
X131214146Y-100081695D01*
X131016032Y-100141793D01*
X130810000Y-100162085D01*
X130603969Y-100141793D01*
X130405855Y-100081695D01*
X130223272Y-99984103D01*
X130063236Y-99852765D01*
X129931899Y-99692731D01*
X129834306Y-99510148D01*
X129799305Y-99394765D01*
X129774207Y-99312032D01*
X129759000Y-99157630D01*
X129759000Y-98454371D01*
X129774207Y-98299969D01*
X129834305Y-98101855D01*
X129931897Y-97919271D01*
X130063235Y-97759235D01*
X130063237Y-97759234D01*
X130063238Y-97759232D01*
X130159257Y-97680432D01*
X130223271Y-97627897D01*
X130405854Y-97530305D01*
X130603968Y-97470207D01*
X130810000Y-97449915D01*
X131016031Y-97470207D01*
X131016031Y-97470207D01*
G37*
G36*
X128476031Y-97470207D02*
X128674145Y-97530305D01*
X128856729Y-97627897D01*
X129016765Y-97759235D01*
X129016766Y-97759237D01*
X129016768Y-97759238D01*
X129061143Y-97813310D01*
X129148103Y-97919271D01*
X129245695Y-98101854D01*
X129305793Y-98299968D01*
X129321000Y-98454370D01*
X129321000Y-99157629D01*
X129305793Y-99312031D01*
X129280695Y-99394766D01*
X129245695Y-99510147D01*
X129193531Y-99607739D01*
X129148103Y-99692729D01*
X129016765Y-99852765D01*
X128856729Y-99984103D01*
X128674146Y-100081695D01*
X128476032Y-100141793D01*
X128270000Y-100162085D01*
X128063969Y-100141793D01*
X127865855Y-100081695D01*
X127683272Y-99984103D01*
X127523236Y-99852765D01*
X127391899Y-99692731D01*
X127294306Y-99510148D01*
X127259305Y-99394765D01*
X127234207Y-99312032D01*
X127219000Y-99157630D01*
X127219000Y-98454371D01*
X127234207Y-98299969D01*
X127294305Y-98101855D01*
X127391897Y-97919271D01*
X127523235Y-97759235D01*
X127523237Y-97759234D01*
X127523238Y-97759232D01*
X127619257Y-97680432D01*
X127683271Y-97627897D01*
X127865854Y-97530305D01*
X128063968Y-97470207D01*
X128270000Y-97449915D01*
X128476031Y-97470207D01*
X128476031Y-97470207D01*
G37*
G36*
X123396031Y-97470207D02*
X123594145Y-97530305D01*
X123776729Y-97627897D01*
X123936765Y-97759235D01*
X123936766Y-97759237D01*
X123936768Y-97759238D01*
X123981143Y-97813310D01*
X124068103Y-97919271D01*
X124165695Y-98101854D01*
X124225793Y-98299968D01*
X124241000Y-98454370D01*
X124241000Y-99157629D01*
X124225793Y-99312031D01*
X124200695Y-99394766D01*
X124165695Y-99510147D01*
X124113531Y-99607739D01*
X124068103Y-99692729D01*
X123936765Y-99852765D01*
X123776729Y-99984103D01*
X123594146Y-100081695D01*
X123396032Y-100141793D01*
X123190000Y-100162085D01*
X122983969Y-100141793D01*
X122785855Y-100081695D01*
X122603272Y-99984103D01*
X122443236Y-99852765D01*
X122311899Y-99692731D01*
X122214306Y-99510148D01*
X122179305Y-99394765D01*
X122154207Y-99312032D01*
X122139000Y-99157630D01*
X122139000Y-98454371D01*
X122154207Y-98299969D01*
X122214305Y-98101855D01*
X122311897Y-97919271D01*
X122443235Y-97759235D01*
X122443237Y-97759234D01*
X122443238Y-97759232D01*
X122539257Y-97680432D01*
X122603271Y-97627897D01*
X122785854Y-97530305D01*
X122983968Y-97470207D01*
X123190000Y-97449915D01*
X123396031Y-97470207D01*
X123396031Y-97470207D01*
G37*
G36*
X125936031Y-97470207D02*
X126134145Y-97530305D01*
X126316729Y-97627897D01*
X126476765Y-97759235D01*
X126476766Y-97759237D01*
X126476768Y-97759238D01*
X126521143Y-97813310D01*
X126608103Y-97919271D01*
X126705695Y-98101854D01*
X126765793Y-98299968D01*
X126781000Y-98454370D01*
X126781000Y-99157629D01*
X126765793Y-99312031D01*
X126740695Y-99394766D01*
X126705695Y-99510147D01*
X126653531Y-99607739D01*
X126608103Y-99692729D01*
X126476765Y-99852765D01*
X126316729Y-99984103D01*
X126134146Y-100081695D01*
X125936032Y-100141793D01*
X125730000Y-100162085D01*
X125523969Y-100141793D01*
X125325855Y-100081695D01*
X125143272Y-99984103D01*
X124983236Y-99852765D01*
X124851899Y-99692731D01*
X124754306Y-99510148D01*
X124719305Y-99394765D01*
X124694207Y-99312032D01*
X124679000Y-99157630D01*
X124679000Y-98454371D01*
X124694207Y-98299969D01*
X124754305Y-98101855D01*
X124851897Y-97919271D01*
X124983235Y-97759235D01*
X124983237Y-97759234D01*
X124983238Y-97759232D01*
X125079257Y-97680432D01*
X125143271Y-97627897D01*
X125325854Y-97530305D01*
X125523968Y-97470207D01*
X125730000Y-97449915D01*
X125936031Y-97470207D01*
X125936031Y-97470207D01*
G37*
G36*
X121701000Y-100157000D02*
X119599000Y-100157000D01*
X119599000Y-97455000D01*
X121701000Y-97455000D01*
X121701000Y-100157000D01*
X121701000Y-100157000D01*
G37*
G36*
X138619000Y-99503000D02*
X136717000Y-99503000D01*
X136717000Y-97601000D01*
X138619000Y-97601000D01*
X138619000Y-99503000D01*
X138619000Y-99503000D01*
G37*
G36*
X140485396Y-97637546D02*
X140658466Y-97709234D01*
X140814230Y-97813312D01*
X140946688Y-97945770D01*
X141050766Y-98101534D01*
X141122454Y-98274604D01*
X141159000Y-98458333D01*
X141159000Y-98645667D01*
X141122454Y-98829396D01*
X141050766Y-99002466D01*
X140946688Y-99158230D01*
X140814230Y-99290688D01*
X140658466Y-99394766D01*
X140485396Y-99466454D01*
X140301667Y-99503000D01*
X140114333Y-99503000D01*
X139930604Y-99466454D01*
X139757534Y-99394766D01*
X139601770Y-99290688D01*
X139469312Y-99158230D01*
X139365234Y-99002466D01*
X139293546Y-98829396D01*
X139257000Y-98645667D01*
X139257000Y-98458333D01*
X139293546Y-98274604D01*
X139365234Y-98101534D01*
X139469312Y-97945770D01*
X139601770Y-97813312D01*
X139757534Y-97709234D01*
X139930604Y-97637546D01*
X140114333Y-97601000D01*
X140301667Y-97601000D01*
X140485396Y-97637546D01*
X140485396Y-97637546D01*
G37*
G36*
X150137396Y-97383546D02*
X150310466Y-97455234D01*
X150466230Y-97559312D01*
X150598688Y-97691770D01*
X150702766Y-97847534D01*
X150774454Y-98020604D01*
X150811000Y-98204333D01*
X150811000Y-98391667D01*
X150774454Y-98575396D01*
X150702766Y-98748466D01*
X150598688Y-98904230D01*
X150466230Y-99036688D01*
X150310466Y-99140766D01*
X150137396Y-99212454D01*
X149953667Y-99249000D01*
X149766333Y-99249000D01*
X149582604Y-99212454D01*
X149409534Y-99140766D01*
X149253770Y-99036688D01*
X149121312Y-98904230D01*
X149017234Y-98748466D01*
X148945546Y-98575396D01*
X148909000Y-98391667D01*
X148909000Y-98204333D01*
X148945546Y-98020604D01*
X149017234Y-97847534D01*
X149121312Y-97691770D01*
X149253770Y-97559312D01*
X149409534Y-97455234D01*
X149582604Y-97383546D01*
X149766333Y-97347000D01*
X149953667Y-97347000D01*
X150137396Y-97383546D01*
X150137396Y-97383546D01*
G37*
G36*
X148271000Y-99249000D02*
X146369000Y-99249000D01*
X146369000Y-97347000D01*
X148271000Y-97347000D01*
X148271000Y-99249000D01*
X148271000Y-99249000D01*
G37*
G36*
X151060565Y-90107389D02*
X151251834Y-90186615D01*
X151423976Y-90301637D01*
X151570363Y-90448024D01*
X151685385Y-90620166D01*
X151764611Y-90811435D01*
X151805000Y-91014484D01*
X151805000Y-91221516D01*
X151764611Y-91424565D01*
X151685385Y-91615834D01*
X151570363Y-91787976D01*
X151423976Y-91934363D01*
X151251834Y-92049385D01*
X151060565Y-92128611D01*
X150857516Y-92169000D01*
X150650484Y-92169000D01*
X150447435Y-92128611D01*
X150256166Y-92049385D01*
X150084024Y-91934363D01*
X149937637Y-91787976D01*
X149822615Y-91615834D01*
X149743389Y-91424565D01*
X149703000Y-91221516D01*
X149703000Y-91014484D01*
X149743389Y-90811435D01*
X149822615Y-90620166D01*
X149937637Y-90448024D01*
X150084024Y-90301637D01*
X150256166Y-90186615D01*
X150447435Y-90107389D01*
X150650484Y-90067000D01*
X150857516Y-90067000D01*
X151060565Y-90107389D01*
X151060565Y-90107389D01*
G37*
G36*
X144560565Y-90107389D02*
X144751834Y-90186615D01*
X144923976Y-90301637D01*
X145070363Y-90448024D01*
X145185385Y-90620166D01*
X145264611Y-90811435D01*
X145305000Y-91014484D01*
X145305000Y-91221516D01*
X145264611Y-91424565D01*
X145185385Y-91615834D01*
X145070363Y-91787976D01*
X144923976Y-91934363D01*
X144751834Y-92049385D01*
X144560565Y-92128611D01*
X144357516Y-92169000D01*
X144150484Y-92169000D01*
X143947435Y-92128611D01*
X143756166Y-92049385D01*
X143584024Y-91934363D01*
X143437637Y-91787976D01*
X143322615Y-91615834D01*
X143243389Y-91424565D01*
X143203000Y-91221516D01*
X143203000Y-91014484D01*
X143243389Y-90811435D01*
X143322615Y-90620166D01*
X143437637Y-90448024D01*
X143584024Y-90301637D01*
X143756166Y-90186615D01*
X143947435Y-90107389D01*
X144150484Y-90067000D01*
X144357516Y-90067000D01*
X144560565Y-90107389D01*
X144560565Y-90107389D01*
G37*
G36*
X121060565Y-90103389D02*
X121251834Y-90182615D01*
X121423976Y-90297637D01*
X121570363Y-90444024D01*
X121685385Y-90616166D01*
X121764611Y-90807435D01*
X121805000Y-91010484D01*
X121805000Y-91217516D01*
X121764611Y-91420565D01*
X121685385Y-91611834D01*
X121570363Y-91783976D01*
X121423976Y-91930363D01*
X121251834Y-92045385D01*
X121060565Y-92124611D01*
X120857516Y-92165000D01*
X120650484Y-92165000D01*
X120447435Y-92124611D01*
X120256166Y-92045385D01*
X120084024Y-91930363D01*
X119937637Y-91783976D01*
X119822615Y-91611834D01*
X119743389Y-91420565D01*
X119703000Y-91217516D01*
X119703000Y-91010484D01*
X119743389Y-90807435D01*
X119822615Y-90616166D01*
X119937637Y-90444024D01*
X120084024Y-90297637D01*
X120256166Y-90182615D01*
X120447435Y-90103389D01*
X120650484Y-90063000D01*
X120857516Y-90063000D01*
X121060565Y-90103389D01*
X121060565Y-90103389D01*
G37*
G36*
X114560565Y-90103389D02*
X114751834Y-90182615D01*
X114923976Y-90297637D01*
X115070363Y-90444024D01*
X115185385Y-90616166D01*
X115264611Y-90807435D01*
X115305000Y-91010484D01*
X115305000Y-91217516D01*
X115264611Y-91420565D01*
X115185385Y-91611834D01*
X115070363Y-91783976D01*
X114923976Y-91930363D01*
X114751834Y-92045385D01*
X114560565Y-92124611D01*
X114357516Y-92165000D01*
X114150484Y-92165000D01*
X113947435Y-92124611D01*
X113756166Y-92045385D01*
X113584024Y-91930363D01*
X113437637Y-91783976D01*
X113322615Y-91611834D01*
X113243389Y-91420565D01*
X113203000Y-91217516D01*
X113203000Y-91010484D01*
X113243389Y-90807435D01*
X113322615Y-90616166D01*
X113437637Y-90444024D01*
X113584024Y-90297637D01*
X113756166Y-90182615D01*
X113947435Y-90103389D01*
X114150484Y-90063000D01*
X114357516Y-90063000D01*
X114560565Y-90103389D01*
X114560565Y-90103389D01*
G37*
G36*
X144560565Y-85607389D02*
X144751834Y-85686615D01*
X144923976Y-85801637D01*
X145070363Y-85948024D01*
X145185385Y-86120166D01*
X145264611Y-86311435D01*
X145305000Y-86514484D01*
X145305000Y-86721516D01*
X145264611Y-86924565D01*
X145185385Y-87115834D01*
X145070363Y-87287976D01*
X144923976Y-87434363D01*
X144751834Y-87549385D01*
X144560565Y-87628611D01*
X144357516Y-87669000D01*
X144150484Y-87669000D01*
X143947435Y-87628611D01*
X143756166Y-87549385D01*
X143584024Y-87434363D01*
X143437637Y-87287976D01*
X143322615Y-87115834D01*
X143243389Y-86924565D01*
X143203000Y-86721516D01*
X143203000Y-86514484D01*
X143243389Y-86311435D01*
X143322615Y-86120166D01*
X143437637Y-85948024D01*
X143584024Y-85801637D01*
X143756166Y-85686615D01*
X143947435Y-85607389D01*
X144150484Y-85567000D01*
X144357516Y-85567000D01*
X144560565Y-85607389D01*
X144560565Y-85607389D01*
G37*
G36*
X151060565Y-85607389D02*
X151251834Y-85686615D01*
X151423976Y-85801637D01*
X151570363Y-85948024D01*
X151685385Y-86120166D01*
X151764611Y-86311435D01*
X151805000Y-86514484D01*
X151805000Y-86721516D01*
X151764611Y-86924565D01*
X151685385Y-87115834D01*
X151570363Y-87287976D01*
X151423976Y-87434363D01*
X151251834Y-87549385D01*
X151060565Y-87628611D01*
X150857516Y-87669000D01*
X150650484Y-87669000D01*
X150447435Y-87628611D01*
X150256166Y-87549385D01*
X150084024Y-87434363D01*
X149937637Y-87287976D01*
X149822615Y-87115834D01*
X149743389Y-86924565D01*
X149703000Y-86721516D01*
X149703000Y-86514484D01*
X149743389Y-86311435D01*
X149822615Y-86120166D01*
X149937637Y-85948024D01*
X150084024Y-85801637D01*
X150256166Y-85686615D01*
X150447435Y-85607389D01*
X150650484Y-85567000D01*
X150857516Y-85567000D01*
X151060565Y-85607389D01*
X151060565Y-85607389D01*
G37*
G36*
X114560565Y-85603389D02*
X114751834Y-85682615D01*
X114923976Y-85797637D01*
X115070363Y-85944024D01*
X115185385Y-86116166D01*
X115264611Y-86307435D01*
X115305000Y-86510484D01*
X115305000Y-86717516D01*
X115264611Y-86920565D01*
X115185385Y-87111834D01*
X115070363Y-87283976D01*
X114923976Y-87430363D01*
X114751834Y-87545385D01*
X114560565Y-87624611D01*
X114357516Y-87665000D01*
X114150484Y-87665000D01*
X113947435Y-87624611D01*
X113756166Y-87545385D01*
X113584024Y-87430363D01*
X113437637Y-87283976D01*
X113322615Y-87111834D01*
X113243389Y-86920565D01*
X113203000Y-86717516D01*
X113203000Y-86510484D01*
X113243389Y-86307435D01*
X113322615Y-86116166D01*
X113437637Y-85944024D01*
X113584024Y-85797637D01*
X113756166Y-85682615D01*
X113947435Y-85603389D01*
X114150484Y-85563000D01*
X114357516Y-85563000D01*
X114560565Y-85603389D01*
X114560565Y-85603389D01*
G37*
G36*
X121060565Y-85603389D02*
X121251834Y-85682615D01*
X121423976Y-85797637D01*
X121570363Y-85944024D01*
X121685385Y-86116166D01*
X121764611Y-86307435D01*
X121805000Y-86510484D01*
X121805000Y-86717516D01*
X121764611Y-86920565D01*
X121685385Y-87111834D01*
X121570363Y-87283976D01*
X121423976Y-87430363D01*
X121251834Y-87545385D01*
X121060565Y-87624611D01*
X120857516Y-87665000D01*
X120650484Y-87665000D01*
X120447435Y-87624611D01*
X120256166Y-87545385D01*
X120084024Y-87430363D01*
X119937637Y-87283976D01*
X119822615Y-87111834D01*
X119743389Y-86920565D01*
X119703000Y-86717516D01*
X119703000Y-86510484D01*
X119743389Y-86307435D01*
X119822615Y-86116166D01*
X119937637Y-85944024D01*
X120084024Y-85797637D01*
X120256166Y-85682615D01*
X120447435Y-85603389D01*
X120650484Y-85563000D01*
X120857516Y-85563000D01*
X121060565Y-85603389D01*
X121060565Y-85603389D01*
G37*
G36*
X135806565Y-79457389D02*
X135997834Y-79536615D01*
X136169976Y-79651637D01*
X136316363Y-79798024D01*
X136431385Y-79970166D01*
X136510611Y-80161435D01*
X136551000Y-80364484D01*
X136551000Y-80571516D01*
X136510611Y-80774565D01*
X136431385Y-80965834D01*
X136316363Y-81137976D01*
X136169976Y-81284363D01*
X135997834Y-81399385D01*
X135806565Y-81478611D01*
X135603516Y-81519000D01*
X135396484Y-81519000D01*
X135193435Y-81478611D01*
X135002166Y-81399385D01*
X134830024Y-81284363D01*
X134683637Y-81137976D01*
X134568615Y-80965834D01*
X134489389Y-80774565D01*
X134449000Y-80571516D01*
X134449000Y-80364484D01*
X134489389Y-80161435D01*
X134568615Y-79970166D01*
X134683637Y-79798024D01*
X134830024Y-79651637D01*
X135002166Y-79536615D01*
X135193435Y-79457389D01*
X135396484Y-79417000D01*
X135603516Y-79417000D01*
X135806565Y-79457389D01*
X135806565Y-79457389D01*
G37*
G36*
X129306565Y-79457389D02*
X129497834Y-79536615D01*
X129669976Y-79651637D01*
X129816363Y-79798024D01*
X129931385Y-79970166D01*
X130010611Y-80161435D01*
X130051000Y-80364484D01*
X130051000Y-80571516D01*
X130010611Y-80774565D01*
X129931385Y-80965834D01*
X129816363Y-81137976D01*
X129669976Y-81284363D01*
X129497834Y-81399385D01*
X129306565Y-81478611D01*
X129103516Y-81519000D01*
X128896484Y-81519000D01*
X128693435Y-81478611D01*
X128502166Y-81399385D01*
X128330024Y-81284363D01*
X128183637Y-81137976D01*
X128068615Y-80965834D01*
X127989389Y-80774565D01*
X127949000Y-80571516D01*
X127949000Y-80364484D01*
X127989389Y-80161435D01*
X128068615Y-79970166D01*
X128183637Y-79798024D01*
X128330024Y-79651637D01*
X128502166Y-79536615D01*
X128693435Y-79457389D01*
X128896484Y-79417000D01*
X129103516Y-79417000D01*
X129306565Y-79457389D01*
X129306565Y-79457389D01*
G37*
G36*
X135806565Y-74957389D02*
X135997834Y-75036615D01*
X136169976Y-75151637D01*
X136316363Y-75298024D01*
X136431385Y-75470166D01*
X136510611Y-75661435D01*
X136551000Y-75864484D01*
X136551000Y-76071516D01*
X136510611Y-76274565D01*
X136431385Y-76465834D01*
X136316363Y-76637976D01*
X136169976Y-76784363D01*
X135997834Y-76899385D01*
X135806565Y-76978611D01*
X135603516Y-77019000D01*
X135396484Y-77019000D01*
X135193435Y-76978611D01*
X135002166Y-76899385D01*
X134830024Y-76784363D01*
X134683637Y-76637976D01*
X134568615Y-76465834D01*
X134489389Y-76274565D01*
X134449000Y-76071516D01*
X134449000Y-75864484D01*
X134489389Y-75661435D01*
X134568615Y-75470166D01*
X134683637Y-75298024D01*
X134830024Y-75151637D01*
X135002166Y-75036615D01*
X135193435Y-74957389D01*
X135396484Y-74917000D01*
X135603516Y-74917000D01*
X135806565Y-74957389D01*
X135806565Y-74957389D01*
G37*
G36*
X129306565Y-74957389D02*
X129497834Y-75036615D01*
X129669976Y-75151637D01*
X129816363Y-75298024D01*
X129931385Y-75470166D01*
X130010611Y-75661435D01*
X130051000Y-75864484D01*
X130051000Y-76071516D01*
X130010611Y-76274565D01*
X129931385Y-76465834D01*
X129816363Y-76637976D01*
X129669976Y-76784363D01*
X129497834Y-76899385D01*
X129306565Y-76978611D01*
X129103516Y-77019000D01*
X128896484Y-77019000D01*
X128693435Y-76978611D01*
X128502166Y-76899385D01*
X128330024Y-76784363D01*
X128183637Y-76637976D01*
X128068615Y-76465834D01*
X127989389Y-76274565D01*
X127949000Y-76071516D01*
X127949000Y-75864484D01*
X127989389Y-75661435D01*
X128068615Y-75470166D01*
X128183637Y-75298024D01*
X128330024Y-75151637D01*
X128502166Y-75036615D01*
X128693435Y-74957389D01*
X128896484Y-74917000D01*
X129103516Y-74917000D01*
X129306565Y-74957389D01*
X129306565Y-74957389D01*
G37*
G36*
X144576565Y-65131389D02*
X144767834Y-65210615D01*
X144939976Y-65325637D01*
X145086363Y-65472024D01*
X145201385Y-65644166D01*
X145280611Y-65835435D01*
X145321000Y-66038484D01*
X145321000Y-66245516D01*
X145280611Y-66448565D01*
X145201385Y-66639834D01*
X145086363Y-66811976D01*
X144939976Y-66958363D01*
X144767834Y-67073385D01*
X144576565Y-67152611D01*
X144373516Y-67193000D01*
X144166484Y-67193000D01*
X143963435Y-67152611D01*
X143772166Y-67073385D01*
X143600024Y-66958363D01*
X143453637Y-66811976D01*
X143338615Y-66639834D01*
X143259389Y-66448565D01*
X143219000Y-66245516D01*
X143219000Y-66038484D01*
X143259389Y-65835435D01*
X143338615Y-65644166D01*
X143453637Y-65472024D01*
X143600024Y-65325637D01*
X143772166Y-65210615D01*
X143963435Y-65131389D01*
X144166484Y-65091000D01*
X144373516Y-65091000D01*
X144576565Y-65131389D01*
X144576565Y-65131389D01*
G37*
G36*
X151076565Y-65131389D02*
X151267834Y-65210615D01*
X151439976Y-65325637D01*
X151586363Y-65472024D01*
X151701385Y-65644166D01*
X151780611Y-65835435D01*
X151821000Y-66038484D01*
X151821000Y-66245516D01*
X151780611Y-66448565D01*
X151701385Y-66639834D01*
X151586363Y-66811976D01*
X151439976Y-66958363D01*
X151267834Y-67073385D01*
X151076565Y-67152611D01*
X150873516Y-67193000D01*
X150666484Y-67193000D01*
X150463435Y-67152611D01*
X150272166Y-67073385D01*
X150100024Y-66958363D01*
X149953637Y-66811976D01*
X149838615Y-66639834D01*
X149759389Y-66448565D01*
X149719000Y-66245516D01*
X149719000Y-66038484D01*
X149759389Y-65835435D01*
X149838615Y-65644166D01*
X149953637Y-65472024D01*
X150100024Y-65325637D01*
X150272166Y-65210615D01*
X150463435Y-65131389D01*
X150666484Y-65091000D01*
X150873516Y-65091000D01*
X151076565Y-65131389D01*
X151076565Y-65131389D01*
G37*
G36*
X114606565Y-65131389D02*
X114797834Y-65210615D01*
X114969976Y-65325637D01*
X115116363Y-65472024D01*
X115231385Y-65644166D01*
X115310611Y-65835435D01*
X115351000Y-66038484D01*
X115351000Y-66245516D01*
X115310611Y-66448565D01*
X115231385Y-66639834D01*
X115116363Y-66811976D01*
X114969976Y-66958363D01*
X114797834Y-67073385D01*
X114606565Y-67152611D01*
X114403516Y-67193000D01*
X114196484Y-67193000D01*
X113993435Y-67152611D01*
X113802166Y-67073385D01*
X113630024Y-66958363D01*
X113483637Y-66811976D01*
X113368615Y-66639834D01*
X113289389Y-66448565D01*
X113249000Y-66245516D01*
X113249000Y-66038484D01*
X113289389Y-65835435D01*
X113368615Y-65644166D01*
X113483637Y-65472024D01*
X113630024Y-65325637D01*
X113802166Y-65210615D01*
X113993435Y-65131389D01*
X114196484Y-65091000D01*
X114403516Y-65091000D01*
X114606565Y-65131389D01*
X114606565Y-65131389D01*
G37*
G36*
X121106565Y-65131389D02*
X121297834Y-65210615D01*
X121469976Y-65325637D01*
X121616363Y-65472024D01*
X121731385Y-65644166D01*
X121810611Y-65835435D01*
X121851000Y-66038484D01*
X121851000Y-66245516D01*
X121810611Y-66448565D01*
X121731385Y-66639834D01*
X121616363Y-66811976D01*
X121469976Y-66958363D01*
X121297834Y-67073385D01*
X121106565Y-67152611D01*
X120903516Y-67193000D01*
X120696484Y-67193000D01*
X120493435Y-67152611D01*
X120302166Y-67073385D01*
X120130024Y-66958363D01*
X119983637Y-66811976D01*
X119868615Y-66639834D01*
X119789389Y-66448565D01*
X119749000Y-66245516D01*
X119749000Y-66038484D01*
X119789389Y-65835435D01*
X119868615Y-65644166D01*
X119983637Y-65472024D01*
X120130024Y-65325637D01*
X120302166Y-65210615D01*
X120493435Y-65131389D01*
X120696484Y-65091000D01*
X120903516Y-65091000D01*
X121106565Y-65131389D01*
X121106565Y-65131389D01*
G37*
G36*
X144576565Y-60631389D02*
X144767834Y-60710615D01*
X144939976Y-60825637D01*
X145086363Y-60972024D01*
X145201385Y-61144166D01*
X145280611Y-61335435D01*
X145321000Y-61538484D01*
X145321000Y-61745516D01*
X145280611Y-61948565D01*
X145201385Y-62139834D01*
X145086363Y-62311976D01*
X144939976Y-62458363D01*
X144767834Y-62573385D01*
X144576565Y-62652611D01*
X144373516Y-62693000D01*
X144166484Y-62693000D01*
X143963435Y-62652611D01*
X143772166Y-62573385D01*
X143600024Y-62458363D01*
X143453637Y-62311976D01*
X143338615Y-62139834D01*
X143259389Y-61948565D01*
X143219000Y-61745516D01*
X143219000Y-61538484D01*
X143259389Y-61335435D01*
X143338615Y-61144166D01*
X143453637Y-60972024D01*
X143600024Y-60825637D01*
X143772166Y-60710615D01*
X143963435Y-60631389D01*
X144166484Y-60591000D01*
X144373516Y-60591000D01*
X144576565Y-60631389D01*
X144576565Y-60631389D01*
G37*
G36*
X151076565Y-60631389D02*
X151267834Y-60710615D01*
X151439976Y-60825637D01*
X151586363Y-60972024D01*
X151701385Y-61144166D01*
X151780611Y-61335435D01*
X151821000Y-61538484D01*
X151821000Y-61745516D01*
X151780611Y-61948565D01*
X151701385Y-62139834D01*
X151586363Y-62311976D01*
X151439976Y-62458363D01*
X151267834Y-62573385D01*
X151076565Y-62652611D01*
X150873516Y-62693000D01*
X150666484Y-62693000D01*
X150463435Y-62652611D01*
X150272166Y-62573385D01*
X150100024Y-62458363D01*
X149953637Y-62311976D01*
X149838615Y-62139834D01*
X149759389Y-61948565D01*
X149719000Y-61745516D01*
X149719000Y-61538484D01*
X149759389Y-61335435D01*
X149838615Y-61144166D01*
X149953637Y-60972024D01*
X150100024Y-60825637D01*
X150272166Y-60710615D01*
X150463435Y-60631389D01*
X150666484Y-60591000D01*
X150873516Y-60591000D01*
X151076565Y-60631389D01*
X151076565Y-60631389D01*
G37*
G36*
X114606565Y-60631389D02*
X114797834Y-60710615D01*
X114969976Y-60825637D01*
X115116363Y-60972024D01*
X115231385Y-61144166D01*
X115310611Y-61335435D01*
X115351000Y-61538484D01*
X115351000Y-61745516D01*
X115310611Y-61948565D01*
X115231385Y-62139834D01*
X115116363Y-62311976D01*
X114969976Y-62458363D01*
X114797834Y-62573385D01*
X114606565Y-62652611D01*
X114403516Y-62693000D01*
X114196484Y-62693000D01*
X113993435Y-62652611D01*
X113802166Y-62573385D01*
X113630024Y-62458363D01*
X113483637Y-62311976D01*
X113368615Y-62139834D01*
X113289389Y-61948565D01*
X113249000Y-61745516D01*
X113249000Y-61538484D01*
X113289389Y-61335435D01*
X113368615Y-61144166D01*
X113483637Y-60972024D01*
X113630024Y-60825637D01*
X113802166Y-60710615D01*
X113993435Y-60631389D01*
X114196484Y-60591000D01*
X114403516Y-60591000D01*
X114606565Y-60631389D01*
X114606565Y-60631389D01*
G37*
G36*
X121106565Y-60631389D02*
X121297834Y-60710615D01*
X121469976Y-60825637D01*
X121616363Y-60972024D01*
X121731385Y-61144166D01*
X121810611Y-61335435D01*
X121851000Y-61538484D01*
X121851000Y-61745516D01*
X121810611Y-61948565D01*
X121731385Y-62139834D01*
X121616363Y-62311976D01*
X121469976Y-62458363D01*
X121297834Y-62573385D01*
X121106565Y-62652611D01*
X120903516Y-62693000D01*
X120696484Y-62693000D01*
X120493435Y-62652611D01*
X120302166Y-62573385D01*
X120130024Y-62458363D01*
X119983637Y-62311976D01*
X119868615Y-62139834D01*
X119789389Y-61948565D01*
X119749000Y-61745516D01*
X119749000Y-61538484D01*
X119789389Y-61335435D01*
X119868615Y-61144166D01*
X119983637Y-60972024D01*
X120130024Y-60825637D01*
X120302166Y-60710615D01*
X120493435Y-60631389D01*
X120696484Y-60591000D01*
X120903516Y-60591000D01*
X121106565Y-60631389D01*
X121106565Y-60631389D01*
G37*
G36*
X129906565Y-54489389D02*
X130097834Y-54568615D01*
X130269976Y-54683637D01*
X130416363Y-54830024D01*
X130531385Y-55002166D01*
X130610611Y-55193435D01*
X130651000Y-55396484D01*
X130651000Y-55603516D01*
X130610611Y-55806565D01*
X130531385Y-55997834D01*
X130416363Y-56169976D01*
X130269976Y-56316363D01*
X130097834Y-56431385D01*
X129906565Y-56510611D01*
X129703516Y-56551000D01*
X129496484Y-56551000D01*
X129293435Y-56510611D01*
X129102166Y-56431385D01*
X128930024Y-56316363D01*
X128783637Y-56169976D01*
X128668615Y-55997834D01*
X128589389Y-55806565D01*
X128549000Y-55603516D01*
X128549000Y-55396484D01*
X128589389Y-55193435D01*
X128668615Y-55002166D01*
X128783637Y-54830024D01*
X128930024Y-54683637D01*
X129102166Y-54568615D01*
X129293435Y-54489389D01*
X129496484Y-54449000D01*
X129703516Y-54449000D01*
X129906565Y-54489389D01*
X129906565Y-54489389D01*
G37*
G36*
X136406565Y-54489389D02*
X136597834Y-54568615D01*
X136769976Y-54683637D01*
X136916363Y-54830024D01*
X137031385Y-55002166D01*
X137110611Y-55193435D01*
X137151000Y-55396484D01*
X137151000Y-55603516D01*
X137110611Y-55806565D01*
X137031385Y-55997834D01*
X136916363Y-56169976D01*
X136769976Y-56316363D01*
X136597834Y-56431385D01*
X136406565Y-56510611D01*
X136203516Y-56551000D01*
X135996484Y-56551000D01*
X135793435Y-56510611D01*
X135602166Y-56431385D01*
X135430024Y-56316363D01*
X135283637Y-56169976D01*
X135168615Y-55997834D01*
X135089389Y-55806565D01*
X135049000Y-55603516D01*
X135049000Y-55396484D01*
X135089389Y-55193435D01*
X135168615Y-55002166D01*
X135283637Y-54830024D01*
X135430024Y-54683637D01*
X135602166Y-54568615D01*
X135793435Y-54489389D01*
X135996484Y-54449000D01*
X136203516Y-54449000D01*
X136406565Y-54489389D01*
X136406565Y-54489389D01*
G37*
G36*
X136406565Y-49989389D02*
X136597834Y-50068615D01*
X136769976Y-50183637D01*
X136916363Y-50330024D01*
X137031385Y-50502166D01*
X137110611Y-50693435D01*
X137151000Y-50896484D01*
X137151000Y-51103516D01*
X137110611Y-51306565D01*
X137031385Y-51497834D01*
X136916363Y-51669976D01*
X136769976Y-51816363D01*
X136597834Y-51931385D01*
X136406565Y-52010611D01*
X136203516Y-52051000D01*
X135996484Y-52051000D01*
X135793435Y-52010611D01*
X135602166Y-51931385D01*
X135430024Y-51816363D01*
X135283637Y-51669976D01*
X135168615Y-51497834D01*
X135089389Y-51306565D01*
X135049000Y-51103516D01*
X135049000Y-50896484D01*
X135089389Y-50693435D01*
X135168615Y-50502166D01*
X135283637Y-50330024D01*
X135430024Y-50183637D01*
X135602166Y-50068615D01*
X135793435Y-49989389D01*
X135996484Y-49949000D01*
X136203516Y-49949000D01*
X136406565Y-49989389D01*
X136406565Y-49989389D01*
G37*
G36*
X129906565Y-49989389D02*
X130097834Y-50068615D01*
X130269976Y-50183637D01*
X130416363Y-50330024D01*
X130531385Y-50502166D01*
X130610611Y-50693435D01*
X130651000Y-50896484D01*
X130651000Y-51103516D01*
X130610611Y-51306565D01*
X130531385Y-51497834D01*
X130416363Y-51669976D01*
X130269976Y-51816363D01*
X130097834Y-51931385D01*
X129906565Y-52010611D01*
X129703516Y-52051000D01*
X129496484Y-52051000D01*
X129293435Y-52010611D01*
X129102166Y-51931385D01*
X128930024Y-51816363D01*
X128783637Y-51669976D01*
X128668615Y-51497834D01*
X128589389Y-51306565D01*
X128549000Y-51103516D01*
X128549000Y-50896484D01*
X128589389Y-50693435D01*
X128668615Y-50502166D01*
X128783637Y-50330024D01*
X128930024Y-50183637D01*
X129102166Y-50068615D01*
X129293435Y-49989389D01*
X129496484Y-49949000D01*
X129703516Y-49949000D01*
X129906565Y-49989389D01*
X129906565Y-49989389D01*
G37*
M02*
