G04 #@! TF.GenerationSoftware,KiCad,Pcbnew,5.0.2+dfsg1-1*
G04 #@! TF.CreationDate,2019-08-29T13:22:36-03:00*
G04 #@! TF.ProjectId,teclado_contador_geiger,7465636c-6164-46f5-9f63-6f6e7461646f,rev?*
G04 #@! TF.SameCoordinates,Original*
G04 #@! TF.FileFunction,Copper,L2,Bot*
G04 #@! TF.FilePolarity,Positive*
%FSLAX46Y46*%
G04 Gerber Fmt 4.6, Leading zero omitted, Abs format (unit mm)*
G04 Created by KiCad (PCBNEW 5.0.2+dfsg1-1) date jue 29 ago 2019 13:22:36 -03*
%MOMM*%
%LPD*%
G01*
G04 APERTURE LIST*
G04 #@! TA.AperFunction,Conductor*
%ADD10C,0.100000*%
G04 #@! TD*
G04 #@! TA.AperFunction,SMDPad,CuDef*
%ADD11C,1.150000*%
G04 #@! TD*
G04 #@! TA.AperFunction,ComponentPad*
%ADD12C,2.000000*%
G04 #@! TD*
G04 #@! TA.AperFunction,ComponentPad*
%ADD13R,1.800000X1.800000*%
G04 #@! TD*
G04 #@! TA.AperFunction,ComponentPad*
%ADD14C,1.800000*%
G04 #@! TD*
G04 #@! TA.AperFunction,ComponentPad*
%ADD15R,2.000000X2.600000*%
G04 #@! TD*
G04 #@! TA.AperFunction,ComponentPad*
%ADD16O,2.000000X2.600000*%
G04 #@! TD*
G04 #@! TA.AperFunction,ViaPad*
%ADD17C,2.000000*%
G04 #@! TD*
G04 #@! TA.AperFunction,Conductor*
%ADD18C,1.270000*%
G04 #@! TD*
G04 #@! TA.AperFunction,Conductor*
%ADD19C,1.016000*%
G04 #@! TD*
G04 #@! TA.AperFunction,Conductor*
%ADD20C,0.254000*%
G04 #@! TD*
G04 APERTURE END LIST*
D10*
G04 #@! TO.N,Net-(R3-Pad2)*
G04 #@! TO.C,R3*
G36*
X140321505Y-65747604D02*
X140345773Y-65751204D01*
X140369572Y-65757165D01*
X140392671Y-65765430D01*
X140414850Y-65775920D01*
X140435893Y-65788532D01*
X140455599Y-65803147D01*
X140473777Y-65819623D01*
X140490253Y-65837801D01*
X140504868Y-65857507D01*
X140517480Y-65878550D01*
X140527970Y-65900729D01*
X140536235Y-65923828D01*
X140542196Y-65947627D01*
X140545796Y-65971895D01*
X140547000Y-65996399D01*
X140547000Y-66896401D01*
X140545796Y-66920905D01*
X140542196Y-66945173D01*
X140536235Y-66968972D01*
X140527970Y-66992071D01*
X140517480Y-67014250D01*
X140504868Y-67035293D01*
X140490253Y-67054999D01*
X140473777Y-67073177D01*
X140455599Y-67089653D01*
X140435893Y-67104268D01*
X140414850Y-67116880D01*
X140392671Y-67127370D01*
X140369572Y-67135635D01*
X140345773Y-67141596D01*
X140321505Y-67145196D01*
X140297001Y-67146400D01*
X139646999Y-67146400D01*
X139622495Y-67145196D01*
X139598227Y-67141596D01*
X139574428Y-67135635D01*
X139551329Y-67127370D01*
X139529150Y-67116880D01*
X139508107Y-67104268D01*
X139488401Y-67089653D01*
X139470223Y-67073177D01*
X139453747Y-67054999D01*
X139439132Y-67035293D01*
X139426520Y-67014250D01*
X139416030Y-66992071D01*
X139407765Y-66968972D01*
X139401804Y-66945173D01*
X139398204Y-66920905D01*
X139397000Y-66896401D01*
X139397000Y-65996399D01*
X139398204Y-65971895D01*
X139401804Y-65947627D01*
X139407765Y-65923828D01*
X139416030Y-65900729D01*
X139426520Y-65878550D01*
X139439132Y-65857507D01*
X139453747Y-65837801D01*
X139470223Y-65819623D01*
X139488401Y-65803147D01*
X139508107Y-65788532D01*
X139529150Y-65775920D01*
X139551329Y-65765430D01*
X139574428Y-65757165D01*
X139598227Y-65751204D01*
X139622495Y-65747604D01*
X139646999Y-65746400D01*
X140297001Y-65746400D01*
X140321505Y-65747604D01*
X140321505Y-65747604D01*
G37*
D11*
G04 #@! TD*
G04 #@! TO.P,R3,2*
G04 #@! TO.N,Net-(R3-Pad2)*
X139972000Y-66446400D03*
D10*
G04 #@! TO.N,Net-(R2-Pad2)*
G04 #@! TO.C,R3*
G36*
X138271505Y-65747604D02*
X138295773Y-65751204D01*
X138319572Y-65757165D01*
X138342671Y-65765430D01*
X138364850Y-65775920D01*
X138385893Y-65788532D01*
X138405599Y-65803147D01*
X138423777Y-65819623D01*
X138440253Y-65837801D01*
X138454868Y-65857507D01*
X138467480Y-65878550D01*
X138477970Y-65900729D01*
X138486235Y-65923828D01*
X138492196Y-65947627D01*
X138495796Y-65971895D01*
X138497000Y-65996399D01*
X138497000Y-66896401D01*
X138495796Y-66920905D01*
X138492196Y-66945173D01*
X138486235Y-66968972D01*
X138477970Y-66992071D01*
X138467480Y-67014250D01*
X138454868Y-67035293D01*
X138440253Y-67054999D01*
X138423777Y-67073177D01*
X138405599Y-67089653D01*
X138385893Y-67104268D01*
X138364850Y-67116880D01*
X138342671Y-67127370D01*
X138319572Y-67135635D01*
X138295773Y-67141596D01*
X138271505Y-67145196D01*
X138247001Y-67146400D01*
X137596999Y-67146400D01*
X137572495Y-67145196D01*
X137548227Y-67141596D01*
X137524428Y-67135635D01*
X137501329Y-67127370D01*
X137479150Y-67116880D01*
X137458107Y-67104268D01*
X137438401Y-67089653D01*
X137420223Y-67073177D01*
X137403747Y-67054999D01*
X137389132Y-67035293D01*
X137376520Y-67014250D01*
X137366030Y-66992071D01*
X137357765Y-66968972D01*
X137351804Y-66945173D01*
X137348204Y-66920905D01*
X137347000Y-66896401D01*
X137347000Y-65996399D01*
X137348204Y-65971895D01*
X137351804Y-65947627D01*
X137357765Y-65923828D01*
X137366030Y-65900729D01*
X137376520Y-65878550D01*
X137389132Y-65857507D01*
X137403747Y-65837801D01*
X137420223Y-65819623D01*
X137438401Y-65803147D01*
X137458107Y-65788532D01*
X137479150Y-65775920D01*
X137501329Y-65765430D01*
X137524428Y-65757165D01*
X137548227Y-65751204D01*
X137572495Y-65747604D01*
X137596999Y-65746400D01*
X138247001Y-65746400D01*
X138271505Y-65747604D01*
X138271505Y-65747604D01*
G37*
D11*
G04 #@! TD*
G04 #@! TO.P,R3,1*
G04 #@! TO.N,Net-(R2-Pad2)*
X137922000Y-66446400D03*
D12*
G04 #@! TO.P,SW3,1*
G04 #@! TO.N,Net-(R2-Pad2)*
X135500000Y-75968000D03*
G04 #@! TO.P,SW3,2*
G04 #@! TO.N,+5V*
X135500000Y-80468000D03*
G04 #@! TO.P,SW3,1*
G04 #@! TO.N,Net-(R2-Pad2)*
X129000000Y-75968000D03*
G04 #@! TO.P,SW3,2*
G04 #@! TO.N,+5V*
X129000000Y-80468000D03*
G04 #@! TD*
G04 #@! TO.P,SW1,1*
G04 #@! TO.N,Net-(R1-Pad1)*
X150754000Y-86618000D03*
G04 #@! TO.P,SW1,2*
G04 #@! TO.N,+5V*
X150754000Y-91118000D03*
G04 #@! TO.P,SW1,1*
G04 #@! TO.N,Net-(R1-Pad1)*
X144254000Y-86618000D03*
G04 #@! TO.P,SW1,2*
G04 #@! TO.N,+5V*
X144254000Y-91118000D03*
G04 #@! TD*
D13*
G04 #@! TO.P,D1,1*
G04 #@! TO.N,Net-(D1-Pad1)*
X137668000Y-98552000D03*
D14*
G04 #@! TO.P,D1,2*
G04 #@! TO.N,Net-(D1-Pad2)*
X140208000Y-98552000D03*
G04 #@! TD*
D10*
G04 #@! TO.N,Net-(R1-Pad2)*
G04 #@! TO.C,R1*
G36*
X146653505Y-80835204D02*
X146677773Y-80838804D01*
X146701572Y-80844765D01*
X146724671Y-80853030D01*
X146746850Y-80863520D01*
X146767893Y-80876132D01*
X146787599Y-80890747D01*
X146805777Y-80907223D01*
X146822253Y-80925401D01*
X146836868Y-80945107D01*
X146849480Y-80966150D01*
X146859970Y-80988329D01*
X146868235Y-81011428D01*
X146874196Y-81035227D01*
X146877796Y-81059495D01*
X146879000Y-81083999D01*
X146879000Y-81984001D01*
X146877796Y-82008505D01*
X146874196Y-82032773D01*
X146868235Y-82056572D01*
X146859970Y-82079671D01*
X146849480Y-82101850D01*
X146836868Y-82122893D01*
X146822253Y-82142599D01*
X146805777Y-82160777D01*
X146787599Y-82177253D01*
X146767893Y-82191868D01*
X146746850Y-82204480D01*
X146724671Y-82214970D01*
X146701572Y-82223235D01*
X146677773Y-82229196D01*
X146653505Y-82232796D01*
X146629001Y-82234000D01*
X145978999Y-82234000D01*
X145954495Y-82232796D01*
X145930227Y-82229196D01*
X145906428Y-82223235D01*
X145883329Y-82214970D01*
X145861150Y-82204480D01*
X145840107Y-82191868D01*
X145820401Y-82177253D01*
X145802223Y-82160777D01*
X145785747Y-82142599D01*
X145771132Y-82122893D01*
X145758520Y-82101850D01*
X145748030Y-82079671D01*
X145739765Y-82056572D01*
X145733804Y-82032773D01*
X145730204Y-82008505D01*
X145729000Y-81984001D01*
X145729000Y-81083999D01*
X145730204Y-81059495D01*
X145733804Y-81035227D01*
X145739765Y-81011428D01*
X145748030Y-80988329D01*
X145758520Y-80966150D01*
X145771132Y-80945107D01*
X145785747Y-80925401D01*
X145802223Y-80907223D01*
X145820401Y-80890747D01*
X145840107Y-80876132D01*
X145861150Y-80863520D01*
X145883329Y-80853030D01*
X145906428Y-80844765D01*
X145930227Y-80838804D01*
X145954495Y-80835204D01*
X145978999Y-80834000D01*
X146629001Y-80834000D01*
X146653505Y-80835204D01*
X146653505Y-80835204D01*
G37*
D11*
G04 #@! TD*
G04 #@! TO.P,R1,2*
G04 #@! TO.N,Net-(R1-Pad2)*
X146304000Y-81534000D03*
D10*
G04 #@! TO.N,Net-(R1-Pad1)*
G04 #@! TO.C,R1*
G36*
X148703505Y-80835204D02*
X148727773Y-80838804D01*
X148751572Y-80844765D01*
X148774671Y-80853030D01*
X148796850Y-80863520D01*
X148817893Y-80876132D01*
X148837599Y-80890747D01*
X148855777Y-80907223D01*
X148872253Y-80925401D01*
X148886868Y-80945107D01*
X148899480Y-80966150D01*
X148909970Y-80988329D01*
X148918235Y-81011428D01*
X148924196Y-81035227D01*
X148927796Y-81059495D01*
X148929000Y-81083999D01*
X148929000Y-81984001D01*
X148927796Y-82008505D01*
X148924196Y-82032773D01*
X148918235Y-82056572D01*
X148909970Y-82079671D01*
X148899480Y-82101850D01*
X148886868Y-82122893D01*
X148872253Y-82142599D01*
X148855777Y-82160777D01*
X148837599Y-82177253D01*
X148817893Y-82191868D01*
X148796850Y-82204480D01*
X148774671Y-82214970D01*
X148751572Y-82223235D01*
X148727773Y-82229196D01*
X148703505Y-82232796D01*
X148679001Y-82234000D01*
X148028999Y-82234000D01*
X148004495Y-82232796D01*
X147980227Y-82229196D01*
X147956428Y-82223235D01*
X147933329Y-82214970D01*
X147911150Y-82204480D01*
X147890107Y-82191868D01*
X147870401Y-82177253D01*
X147852223Y-82160777D01*
X147835747Y-82142599D01*
X147821132Y-82122893D01*
X147808520Y-82101850D01*
X147798030Y-82079671D01*
X147789765Y-82056572D01*
X147783804Y-82032773D01*
X147780204Y-82008505D01*
X147779000Y-81984001D01*
X147779000Y-81083999D01*
X147780204Y-81059495D01*
X147783804Y-81035227D01*
X147789765Y-81011428D01*
X147798030Y-80988329D01*
X147808520Y-80966150D01*
X147821132Y-80945107D01*
X147835747Y-80925401D01*
X147852223Y-80907223D01*
X147870401Y-80890747D01*
X147890107Y-80876132D01*
X147911150Y-80863520D01*
X147933329Y-80853030D01*
X147956428Y-80844765D01*
X147980227Y-80838804D01*
X148004495Y-80835204D01*
X148028999Y-80834000D01*
X148679001Y-80834000D01*
X148703505Y-80835204D01*
X148703505Y-80835204D01*
G37*
D11*
G04 #@! TD*
G04 #@! TO.P,R1,1*
G04 #@! TO.N,Net-(R1-Pad1)*
X148354000Y-81534000D03*
D10*
G04 #@! TO.N,Net-(R1-Pad2)*
G04 #@! TO.C,R2*
G36*
X140312505Y-70827604D02*
X140336773Y-70831204D01*
X140360572Y-70837165D01*
X140383671Y-70845430D01*
X140405850Y-70855920D01*
X140426893Y-70868532D01*
X140446599Y-70883147D01*
X140464777Y-70899623D01*
X140481253Y-70917801D01*
X140495868Y-70937507D01*
X140508480Y-70958550D01*
X140518970Y-70980729D01*
X140527235Y-71003828D01*
X140533196Y-71027627D01*
X140536796Y-71051895D01*
X140538000Y-71076399D01*
X140538000Y-71976401D01*
X140536796Y-72000905D01*
X140533196Y-72025173D01*
X140527235Y-72048972D01*
X140518970Y-72072071D01*
X140508480Y-72094250D01*
X140495868Y-72115293D01*
X140481253Y-72134999D01*
X140464777Y-72153177D01*
X140446599Y-72169653D01*
X140426893Y-72184268D01*
X140405850Y-72196880D01*
X140383671Y-72207370D01*
X140360572Y-72215635D01*
X140336773Y-72221596D01*
X140312505Y-72225196D01*
X140288001Y-72226400D01*
X139637999Y-72226400D01*
X139613495Y-72225196D01*
X139589227Y-72221596D01*
X139565428Y-72215635D01*
X139542329Y-72207370D01*
X139520150Y-72196880D01*
X139499107Y-72184268D01*
X139479401Y-72169653D01*
X139461223Y-72153177D01*
X139444747Y-72134999D01*
X139430132Y-72115293D01*
X139417520Y-72094250D01*
X139407030Y-72072071D01*
X139398765Y-72048972D01*
X139392804Y-72025173D01*
X139389204Y-72000905D01*
X139388000Y-71976401D01*
X139388000Y-71076399D01*
X139389204Y-71051895D01*
X139392804Y-71027627D01*
X139398765Y-71003828D01*
X139407030Y-70980729D01*
X139417520Y-70958550D01*
X139430132Y-70937507D01*
X139444747Y-70917801D01*
X139461223Y-70899623D01*
X139479401Y-70883147D01*
X139499107Y-70868532D01*
X139520150Y-70855920D01*
X139542329Y-70845430D01*
X139565428Y-70837165D01*
X139589227Y-70831204D01*
X139613495Y-70827604D01*
X139637999Y-70826400D01*
X140288001Y-70826400D01*
X140312505Y-70827604D01*
X140312505Y-70827604D01*
G37*
D11*
G04 #@! TD*
G04 #@! TO.P,R2,1*
G04 #@! TO.N,Net-(R1-Pad2)*
X139963000Y-71526400D03*
D10*
G04 #@! TO.N,Net-(R2-Pad2)*
G04 #@! TO.C,R2*
G36*
X138262505Y-70827604D02*
X138286773Y-70831204D01*
X138310572Y-70837165D01*
X138333671Y-70845430D01*
X138355850Y-70855920D01*
X138376893Y-70868532D01*
X138396599Y-70883147D01*
X138414777Y-70899623D01*
X138431253Y-70917801D01*
X138445868Y-70937507D01*
X138458480Y-70958550D01*
X138468970Y-70980729D01*
X138477235Y-71003828D01*
X138483196Y-71027627D01*
X138486796Y-71051895D01*
X138488000Y-71076399D01*
X138488000Y-71976401D01*
X138486796Y-72000905D01*
X138483196Y-72025173D01*
X138477235Y-72048972D01*
X138468970Y-72072071D01*
X138458480Y-72094250D01*
X138445868Y-72115293D01*
X138431253Y-72134999D01*
X138414777Y-72153177D01*
X138396599Y-72169653D01*
X138376893Y-72184268D01*
X138355850Y-72196880D01*
X138333671Y-72207370D01*
X138310572Y-72215635D01*
X138286773Y-72221596D01*
X138262505Y-72225196D01*
X138238001Y-72226400D01*
X137587999Y-72226400D01*
X137563495Y-72225196D01*
X137539227Y-72221596D01*
X137515428Y-72215635D01*
X137492329Y-72207370D01*
X137470150Y-72196880D01*
X137449107Y-72184268D01*
X137429401Y-72169653D01*
X137411223Y-72153177D01*
X137394747Y-72134999D01*
X137380132Y-72115293D01*
X137367520Y-72094250D01*
X137357030Y-72072071D01*
X137348765Y-72048972D01*
X137342804Y-72025173D01*
X137339204Y-72000905D01*
X137338000Y-71976401D01*
X137338000Y-71076399D01*
X137339204Y-71051895D01*
X137342804Y-71027627D01*
X137348765Y-71003828D01*
X137357030Y-70980729D01*
X137367520Y-70958550D01*
X137380132Y-70937507D01*
X137394747Y-70917801D01*
X137411223Y-70899623D01*
X137429401Y-70883147D01*
X137449107Y-70868532D01*
X137470150Y-70855920D01*
X137492329Y-70845430D01*
X137515428Y-70837165D01*
X137539227Y-70831204D01*
X137563495Y-70827604D01*
X137587999Y-70826400D01*
X138238001Y-70826400D01*
X138262505Y-70827604D01*
X138262505Y-70827604D01*
G37*
D11*
G04 #@! TD*
G04 #@! TO.P,R2,2*
G04 #@! TO.N,Net-(R2-Pad2)*
X137913000Y-71526400D03*
D10*
G04 #@! TO.N,Net-(R4-Pad2)*
G04 #@! TO.C,R4*
G36*
X134840505Y-63530204D02*
X134864773Y-63533804D01*
X134888572Y-63539765D01*
X134911671Y-63548030D01*
X134933850Y-63558520D01*
X134954893Y-63571132D01*
X134974599Y-63585747D01*
X134992777Y-63602223D01*
X135009253Y-63620401D01*
X135023868Y-63640107D01*
X135036480Y-63661150D01*
X135046970Y-63683329D01*
X135055235Y-63706428D01*
X135061196Y-63730227D01*
X135064796Y-63754495D01*
X135066000Y-63778999D01*
X135066000Y-64429001D01*
X135064796Y-64453505D01*
X135061196Y-64477773D01*
X135055235Y-64501572D01*
X135046970Y-64524671D01*
X135036480Y-64546850D01*
X135023868Y-64567893D01*
X135009253Y-64587599D01*
X134992777Y-64605777D01*
X134974599Y-64622253D01*
X134954893Y-64636868D01*
X134933850Y-64649480D01*
X134911671Y-64659970D01*
X134888572Y-64668235D01*
X134864773Y-64674196D01*
X134840505Y-64677796D01*
X134816001Y-64679000D01*
X133915999Y-64679000D01*
X133891495Y-64677796D01*
X133867227Y-64674196D01*
X133843428Y-64668235D01*
X133820329Y-64659970D01*
X133798150Y-64649480D01*
X133777107Y-64636868D01*
X133757401Y-64622253D01*
X133739223Y-64605777D01*
X133722747Y-64587599D01*
X133708132Y-64567893D01*
X133695520Y-64546850D01*
X133685030Y-64524671D01*
X133676765Y-64501572D01*
X133670804Y-64477773D01*
X133667204Y-64453505D01*
X133666000Y-64429001D01*
X133666000Y-63778999D01*
X133667204Y-63754495D01*
X133670804Y-63730227D01*
X133676765Y-63706428D01*
X133685030Y-63683329D01*
X133695520Y-63661150D01*
X133708132Y-63640107D01*
X133722747Y-63620401D01*
X133739223Y-63602223D01*
X133757401Y-63585747D01*
X133777107Y-63571132D01*
X133798150Y-63558520D01*
X133820329Y-63548030D01*
X133843428Y-63539765D01*
X133867227Y-63533804D01*
X133891495Y-63530204D01*
X133915999Y-63529000D01*
X134816001Y-63529000D01*
X134840505Y-63530204D01*
X134840505Y-63530204D01*
G37*
D11*
G04 #@! TD*
G04 #@! TO.P,R4,2*
G04 #@! TO.N,Net-(R4-Pad2)*
X134366000Y-64104000D03*
D10*
G04 #@! TO.N,Net-(R3-Pad2)*
G04 #@! TO.C,R4*
G36*
X134840505Y-61480204D02*
X134864773Y-61483804D01*
X134888572Y-61489765D01*
X134911671Y-61498030D01*
X134933850Y-61508520D01*
X134954893Y-61521132D01*
X134974599Y-61535747D01*
X134992777Y-61552223D01*
X135009253Y-61570401D01*
X135023868Y-61590107D01*
X135036480Y-61611150D01*
X135046970Y-61633329D01*
X135055235Y-61656428D01*
X135061196Y-61680227D01*
X135064796Y-61704495D01*
X135066000Y-61728999D01*
X135066000Y-62379001D01*
X135064796Y-62403505D01*
X135061196Y-62427773D01*
X135055235Y-62451572D01*
X135046970Y-62474671D01*
X135036480Y-62496850D01*
X135023868Y-62517893D01*
X135009253Y-62537599D01*
X134992777Y-62555777D01*
X134974599Y-62572253D01*
X134954893Y-62586868D01*
X134933850Y-62599480D01*
X134911671Y-62609970D01*
X134888572Y-62618235D01*
X134864773Y-62624196D01*
X134840505Y-62627796D01*
X134816001Y-62629000D01*
X133915999Y-62629000D01*
X133891495Y-62627796D01*
X133867227Y-62624196D01*
X133843428Y-62618235D01*
X133820329Y-62609970D01*
X133798150Y-62599480D01*
X133777107Y-62586868D01*
X133757401Y-62572253D01*
X133739223Y-62555777D01*
X133722747Y-62537599D01*
X133708132Y-62517893D01*
X133695520Y-62496850D01*
X133685030Y-62474671D01*
X133676765Y-62451572D01*
X133670804Y-62427773D01*
X133667204Y-62403505D01*
X133666000Y-62379001D01*
X133666000Y-61728999D01*
X133667204Y-61704495D01*
X133670804Y-61680227D01*
X133676765Y-61656428D01*
X133685030Y-61633329D01*
X133695520Y-61611150D01*
X133708132Y-61590107D01*
X133722747Y-61570401D01*
X133739223Y-61552223D01*
X133757401Y-61535747D01*
X133777107Y-61521132D01*
X133798150Y-61508520D01*
X133820329Y-61498030D01*
X133843428Y-61489765D01*
X133867227Y-61483804D01*
X133891495Y-61480204D01*
X133915999Y-61479000D01*
X134816001Y-61479000D01*
X134840505Y-61480204D01*
X134840505Y-61480204D01*
G37*
D11*
G04 #@! TD*
G04 #@! TO.P,R4,1*
G04 #@! TO.N,Net-(R3-Pad2)*
X134366000Y-62054000D03*
D10*
G04 #@! TO.N,Net-(R4-Pad2)*
G04 #@! TO.C,R5*
G36*
X130268505Y-63401404D02*
X130292773Y-63405004D01*
X130316572Y-63410965D01*
X130339671Y-63419230D01*
X130361850Y-63429720D01*
X130382893Y-63442332D01*
X130402599Y-63456947D01*
X130420777Y-63473423D01*
X130437253Y-63491601D01*
X130451868Y-63511307D01*
X130464480Y-63532350D01*
X130474970Y-63554529D01*
X130483235Y-63577628D01*
X130489196Y-63601427D01*
X130492796Y-63625695D01*
X130494000Y-63650199D01*
X130494000Y-64300201D01*
X130492796Y-64324705D01*
X130489196Y-64348973D01*
X130483235Y-64372772D01*
X130474970Y-64395871D01*
X130464480Y-64418050D01*
X130451868Y-64439093D01*
X130437253Y-64458799D01*
X130420777Y-64476977D01*
X130402599Y-64493453D01*
X130382893Y-64508068D01*
X130361850Y-64520680D01*
X130339671Y-64531170D01*
X130316572Y-64539435D01*
X130292773Y-64545396D01*
X130268505Y-64548996D01*
X130244001Y-64550200D01*
X129343999Y-64550200D01*
X129319495Y-64548996D01*
X129295227Y-64545396D01*
X129271428Y-64539435D01*
X129248329Y-64531170D01*
X129226150Y-64520680D01*
X129205107Y-64508068D01*
X129185401Y-64493453D01*
X129167223Y-64476977D01*
X129150747Y-64458799D01*
X129136132Y-64439093D01*
X129123520Y-64418050D01*
X129113030Y-64395871D01*
X129104765Y-64372772D01*
X129098804Y-64348973D01*
X129095204Y-64324705D01*
X129094000Y-64300201D01*
X129094000Y-63650199D01*
X129095204Y-63625695D01*
X129098804Y-63601427D01*
X129104765Y-63577628D01*
X129113030Y-63554529D01*
X129123520Y-63532350D01*
X129136132Y-63511307D01*
X129150747Y-63491601D01*
X129167223Y-63473423D01*
X129185401Y-63456947D01*
X129205107Y-63442332D01*
X129226150Y-63429720D01*
X129248329Y-63419230D01*
X129271428Y-63410965D01*
X129295227Y-63405004D01*
X129319495Y-63401404D01*
X129343999Y-63400200D01*
X130244001Y-63400200D01*
X130268505Y-63401404D01*
X130268505Y-63401404D01*
G37*
D11*
G04 #@! TD*
G04 #@! TO.P,R5,1*
G04 #@! TO.N,Net-(R4-Pad2)*
X129794000Y-63975200D03*
D10*
G04 #@! TO.N,/teclado_out*
G04 #@! TO.C,R5*
G36*
X130268505Y-61351404D02*
X130292773Y-61355004D01*
X130316572Y-61360965D01*
X130339671Y-61369230D01*
X130361850Y-61379720D01*
X130382893Y-61392332D01*
X130402599Y-61406947D01*
X130420777Y-61423423D01*
X130437253Y-61441601D01*
X130451868Y-61461307D01*
X130464480Y-61482350D01*
X130474970Y-61504529D01*
X130483235Y-61527628D01*
X130489196Y-61551427D01*
X130492796Y-61575695D01*
X130494000Y-61600199D01*
X130494000Y-62250201D01*
X130492796Y-62274705D01*
X130489196Y-62298973D01*
X130483235Y-62322772D01*
X130474970Y-62345871D01*
X130464480Y-62368050D01*
X130451868Y-62389093D01*
X130437253Y-62408799D01*
X130420777Y-62426977D01*
X130402599Y-62443453D01*
X130382893Y-62458068D01*
X130361850Y-62470680D01*
X130339671Y-62481170D01*
X130316572Y-62489435D01*
X130292773Y-62495396D01*
X130268505Y-62498996D01*
X130244001Y-62500200D01*
X129343999Y-62500200D01*
X129319495Y-62498996D01*
X129295227Y-62495396D01*
X129271428Y-62489435D01*
X129248329Y-62481170D01*
X129226150Y-62470680D01*
X129205107Y-62458068D01*
X129185401Y-62443453D01*
X129167223Y-62426977D01*
X129150747Y-62408799D01*
X129136132Y-62389093D01*
X129123520Y-62368050D01*
X129113030Y-62345871D01*
X129104765Y-62322772D01*
X129098804Y-62298973D01*
X129095204Y-62274705D01*
X129094000Y-62250201D01*
X129094000Y-61600199D01*
X129095204Y-61575695D01*
X129098804Y-61551427D01*
X129104765Y-61527628D01*
X129113030Y-61504529D01*
X129123520Y-61482350D01*
X129136132Y-61461307D01*
X129150747Y-61441601D01*
X129167223Y-61423423D01*
X129185401Y-61406947D01*
X129205107Y-61392332D01*
X129226150Y-61379720D01*
X129248329Y-61369230D01*
X129271428Y-61360965D01*
X129295227Y-61355004D01*
X129319495Y-61351404D01*
X129343999Y-61350200D01*
X130244001Y-61350200D01*
X130268505Y-61351404D01*
X130268505Y-61351404D01*
G37*
D11*
G04 #@! TD*
G04 #@! TO.P,R5,2*
G04 #@! TO.N,/teclado_out*
X129794000Y-61925200D03*
D10*
G04 #@! TO.N,Net-(D1-Pad2)*
G04 #@! TO.C,R6*
G36*
X140058505Y-93027204D02*
X140082773Y-93030804D01*
X140106572Y-93036765D01*
X140129671Y-93045030D01*
X140151850Y-93055520D01*
X140172893Y-93068132D01*
X140192599Y-93082747D01*
X140210777Y-93099223D01*
X140227253Y-93117401D01*
X140241868Y-93137107D01*
X140254480Y-93158150D01*
X140264970Y-93180329D01*
X140273235Y-93203428D01*
X140279196Y-93227227D01*
X140282796Y-93251495D01*
X140284000Y-93275999D01*
X140284000Y-94176001D01*
X140282796Y-94200505D01*
X140279196Y-94224773D01*
X140273235Y-94248572D01*
X140264970Y-94271671D01*
X140254480Y-94293850D01*
X140241868Y-94314893D01*
X140227253Y-94334599D01*
X140210777Y-94352777D01*
X140192599Y-94369253D01*
X140172893Y-94383868D01*
X140151850Y-94396480D01*
X140129671Y-94406970D01*
X140106572Y-94415235D01*
X140082773Y-94421196D01*
X140058505Y-94424796D01*
X140034001Y-94426000D01*
X139383999Y-94426000D01*
X139359495Y-94424796D01*
X139335227Y-94421196D01*
X139311428Y-94415235D01*
X139288329Y-94406970D01*
X139266150Y-94396480D01*
X139245107Y-94383868D01*
X139225401Y-94369253D01*
X139207223Y-94352777D01*
X139190747Y-94334599D01*
X139176132Y-94314893D01*
X139163520Y-94293850D01*
X139153030Y-94271671D01*
X139144765Y-94248572D01*
X139138804Y-94224773D01*
X139135204Y-94200505D01*
X139134000Y-94176001D01*
X139134000Y-93275999D01*
X139135204Y-93251495D01*
X139138804Y-93227227D01*
X139144765Y-93203428D01*
X139153030Y-93180329D01*
X139163520Y-93158150D01*
X139176132Y-93137107D01*
X139190747Y-93117401D01*
X139207223Y-93099223D01*
X139225401Y-93082747D01*
X139245107Y-93068132D01*
X139266150Y-93055520D01*
X139288329Y-93045030D01*
X139311428Y-93036765D01*
X139335227Y-93030804D01*
X139359495Y-93027204D01*
X139383999Y-93026000D01*
X140034001Y-93026000D01*
X140058505Y-93027204D01*
X140058505Y-93027204D01*
G37*
D11*
G04 #@! TD*
G04 #@! TO.P,R6,2*
G04 #@! TO.N,Net-(D1-Pad2)*
X139709000Y-93726000D03*
D10*
G04 #@! TO.N,+5V*
G04 #@! TO.C,R6*
G36*
X138008505Y-93027204D02*
X138032773Y-93030804D01*
X138056572Y-93036765D01*
X138079671Y-93045030D01*
X138101850Y-93055520D01*
X138122893Y-93068132D01*
X138142599Y-93082747D01*
X138160777Y-93099223D01*
X138177253Y-93117401D01*
X138191868Y-93137107D01*
X138204480Y-93158150D01*
X138214970Y-93180329D01*
X138223235Y-93203428D01*
X138229196Y-93227227D01*
X138232796Y-93251495D01*
X138234000Y-93275999D01*
X138234000Y-94176001D01*
X138232796Y-94200505D01*
X138229196Y-94224773D01*
X138223235Y-94248572D01*
X138214970Y-94271671D01*
X138204480Y-94293850D01*
X138191868Y-94314893D01*
X138177253Y-94334599D01*
X138160777Y-94352777D01*
X138142599Y-94369253D01*
X138122893Y-94383868D01*
X138101850Y-94396480D01*
X138079671Y-94406970D01*
X138056572Y-94415235D01*
X138032773Y-94421196D01*
X138008505Y-94424796D01*
X137984001Y-94426000D01*
X137333999Y-94426000D01*
X137309495Y-94424796D01*
X137285227Y-94421196D01*
X137261428Y-94415235D01*
X137238329Y-94406970D01*
X137216150Y-94396480D01*
X137195107Y-94383868D01*
X137175401Y-94369253D01*
X137157223Y-94352777D01*
X137140747Y-94334599D01*
X137126132Y-94314893D01*
X137113520Y-94293850D01*
X137103030Y-94271671D01*
X137094765Y-94248572D01*
X137088804Y-94224773D01*
X137085204Y-94200505D01*
X137084000Y-94176001D01*
X137084000Y-93275999D01*
X137085204Y-93251495D01*
X137088804Y-93227227D01*
X137094765Y-93203428D01*
X137103030Y-93180329D01*
X137113520Y-93158150D01*
X137126132Y-93137107D01*
X137140747Y-93117401D01*
X137157223Y-93099223D01*
X137175401Y-93082747D01*
X137195107Y-93068132D01*
X137216150Y-93055520D01*
X137238329Y-93045030D01*
X137261428Y-93036765D01*
X137285227Y-93030804D01*
X137309495Y-93027204D01*
X137333999Y-93026000D01*
X137984001Y-93026000D01*
X138008505Y-93027204D01*
X138008505Y-93027204D01*
G37*
D11*
G04 #@! TD*
G04 #@! TO.P,R6,1*
G04 #@! TO.N,+5V*
X137659000Y-93726000D03*
D12*
G04 #@! TO.P,SW2,2*
G04 #@! TO.N,+5V*
X114254000Y-91114000D03*
G04 #@! TO.P,SW2,1*
G04 #@! TO.N,Net-(R1-Pad2)*
X114254000Y-86614000D03*
G04 #@! TO.P,SW2,2*
G04 #@! TO.N,+5V*
X120754000Y-91114000D03*
G04 #@! TO.P,SW2,1*
G04 #@! TO.N,Net-(R1-Pad2)*
X120754000Y-86614000D03*
G04 #@! TD*
G04 #@! TO.P,SW4,2*
G04 #@! TO.N,+5V*
X144270000Y-66142000D03*
G04 #@! TO.P,SW4,1*
G04 #@! TO.N,Net-(R3-Pad2)*
X144270000Y-61642000D03*
G04 #@! TO.P,SW4,2*
G04 #@! TO.N,+5V*
X150770000Y-66142000D03*
G04 #@! TO.P,SW4,1*
G04 #@! TO.N,Net-(R3-Pad2)*
X150770000Y-61642000D03*
G04 #@! TD*
G04 #@! TO.P,SW5,2*
G04 #@! TO.N,+5V*
X129600000Y-55500000D03*
G04 #@! TO.P,SW5,1*
G04 #@! TO.N,Net-(R4-Pad2)*
X129600000Y-51000000D03*
G04 #@! TO.P,SW5,2*
G04 #@! TO.N,+5V*
X136100000Y-55500000D03*
G04 #@! TO.P,SW5,1*
G04 #@! TO.N,Net-(R4-Pad2)*
X136100000Y-51000000D03*
G04 #@! TD*
G04 #@! TO.P,SW6,2*
G04 #@! TO.N,+5V*
X114300000Y-66142000D03*
G04 #@! TO.P,SW6,1*
G04 #@! TO.N,/teclado_out*
X114300000Y-61642000D03*
G04 #@! TO.P,SW6,2*
G04 #@! TO.N,+5V*
X120800000Y-66142000D03*
G04 #@! TO.P,SW6,1*
G04 #@! TO.N,/teclado_out*
X120800000Y-61642000D03*
G04 #@! TD*
D13*
G04 #@! TO.P,D2,1*
G04 #@! TO.N,GND*
X147320000Y-98298000D03*
D14*
G04 #@! TO.P,D2,2*
G04 #@! TO.N,Net-(D2-Pad2)*
X149860000Y-98298000D03*
G04 #@! TD*
D10*
G04 #@! TO.N,Net-(J1-Pad4)*
G04 #@! TO.C,R7*
G36*
X144238505Y-99012204D02*
X144262773Y-99015804D01*
X144286572Y-99021765D01*
X144309671Y-99030030D01*
X144331850Y-99040520D01*
X144352893Y-99053132D01*
X144372599Y-99067747D01*
X144390777Y-99084223D01*
X144407253Y-99102401D01*
X144421868Y-99122107D01*
X144434480Y-99143150D01*
X144444970Y-99165329D01*
X144453235Y-99188428D01*
X144459196Y-99212227D01*
X144462796Y-99236495D01*
X144464000Y-99260999D01*
X144464000Y-99911001D01*
X144462796Y-99935505D01*
X144459196Y-99959773D01*
X144453235Y-99983572D01*
X144444970Y-100006671D01*
X144434480Y-100028850D01*
X144421868Y-100049893D01*
X144407253Y-100069599D01*
X144390777Y-100087777D01*
X144372599Y-100104253D01*
X144352893Y-100118868D01*
X144331850Y-100131480D01*
X144309671Y-100141970D01*
X144286572Y-100150235D01*
X144262773Y-100156196D01*
X144238505Y-100159796D01*
X144214001Y-100161000D01*
X143313999Y-100161000D01*
X143289495Y-100159796D01*
X143265227Y-100156196D01*
X143241428Y-100150235D01*
X143218329Y-100141970D01*
X143196150Y-100131480D01*
X143175107Y-100118868D01*
X143155401Y-100104253D01*
X143137223Y-100087777D01*
X143120747Y-100069599D01*
X143106132Y-100049893D01*
X143093520Y-100028850D01*
X143083030Y-100006671D01*
X143074765Y-99983572D01*
X143068804Y-99959773D01*
X143065204Y-99935505D01*
X143064000Y-99911001D01*
X143064000Y-99260999D01*
X143065204Y-99236495D01*
X143068804Y-99212227D01*
X143074765Y-99188428D01*
X143083030Y-99165329D01*
X143093520Y-99143150D01*
X143106132Y-99122107D01*
X143120747Y-99102401D01*
X143137223Y-99084223D01*
X143155401Y-99067747D01*
X143175107Y-99053132D01*
X143196150Y-99040520D01*
X143218329Y-99030030D01*
X143241428Y-99021765D01*
X143265227Y-99015804D01*
X143289495Y-99012204D01*
X143313999Y-99011000D01*
X144214001Y-99011000D01*
X144238505Y-99012204D01*
X144238505Y-99012204D01*
G37*
D11*
G04 #@! TD*
G04 #@! TO.P,R7,1*
G04 #@! TO.N,Net-(J1-Pad4)*
X143764000Y-99586000D03*
D10*
G04 #@! TO.N,Net-(D2-Pad2)*
G04 #@! TO.C,R7*
G36*
X144238505Y-96962204D02*
X144262773Y-96965804D01*
X144286572Y-96971765D01*
X144309671Y-96980030D01*
X144331850Y-96990520D01*
X144352893Y-97003132D01*
X144372599Y-97017747D01*
X144390777Y-97034223D01*
X144407253Y-97052401D01*
X144421868Y-97072107D01*
X144434480Y-97093150D01*
X144444970Y-97115329D01*
X144453235Y-97138428D01*
X144459196Y-97162227D01*
X144462796Y-97186495D01*
X144464000Y-97210999D01*
X144464000Y-97861001D01*
X144462796Y-97885505D01*
X144459196Y-97909773D01*
X144453235Y-97933572D01*
X144444970Y-97956671D01*
X144434480Y-97978850D01*
X144421868Y-97999893D01*
X144407253Y-98019599D01*
X144390777Y-98037777D01*
X144372599Y-98054253D01*
X144352893Y-98068868D01*
X144331850Y-98081480D01*
X144309671Y-98091970D01*
X144286572Y-98100235D01*
X144262773Y-98106196D01*
X144238505Y-98109796D01*
X144214001Y-98111000D01*
X143313999Y-98111000D01*
X143289495Y-98109796D01*
X143265227Y-98106196D01*
X143241428Y-98100235D01*
X143218329Y-98091970D01*
X143196150Y-98081480D01*
X143175107Y-98068868D01*
X143155401Y-98054253D01*
X143137223Y-98037777D01*
X143120747Y-98019599D01*
X143106132Y-97999893D01*
X143093520Y-97978850D01*
X143083030Y-97956671D01*
X143074765Y-97933572D01*
X143068804Y-97909773D01*
X143065204Y-97885505D01*
X143064000Y-97861001D01*
X143064000Y-97210999D01*
X143065204Y-97186495D01*
X143068804Y-97162227D01*
X143074765Y-97138428D01*
X143083030Y-97115329D01*
X143093520Y-97093150D01*
X143106132Y-97072107D01*
X143120747Y-97052401D01*
X143137223Y-97034223D01*
X143155401Y-97017747D01*
X143175107Y-97003132D01*
X143196150Y-96990520D01*
X143218329Y-96980030D01*
X143241428Y-96971765D01*
X143265227Y-96965804D01*
X143289495Y-96962204D01*
X143313999Y-96961000D01*
X144214001Y-96961000D01*
X144238505Y-96962204D01*
X144238505Y-96962204D01*
G37*
D11*
G04 #@! TD*
G04 #@! TO.P,R7,2*
G04 #@! TO.N,Net-(D2-Pad2)*
X143764000Y-97536000D03*
D15*
G04 #@! TO.P,J1,1*
G04 #@! TO.N,/teclado_out*
X120650000Y-98806000D03*
D16*
G04 #@! TO.P,J1,2*
G04 #@! TO.N,+5V*
X123190000Y-98806000D03*
G04 #@! TO.P,J1,3*
G04 #@! TO.N,GND*
X125730000Y-98806000D03*
G04 #@! TO.P,J1,4*
G04 #@! TO.N,Net-(J1-Pad4)*
X128270000Y-98806000D03*
G04 #@! TO.P,J1,5*
G04 #@! TO.N,Net-(D1-Pad1)*
X130810000Y-98806000D03*
G04 #@! TD*
D17*
G04 #@! TO.N,GND*
X109728000Y-99060000D03*
X132000000Y-68000000D03*
X147000000Y-52000000D03*
X155956000Y-99060000D03*
X117602000Y-72898000D03*
X146304000Y-73660000D03*
X118000000Y-52000000D03*
X132000000Y-87000000D03*
G04 #@! TD*
D18*
G04 #@! TO.N,Net-(D1-Pad1)*
X130904000Y-98552000D02*
X130650000Y-98806000D01*
X137668000Y-98552000D02*
X130904000Y-98552000D01*
G04 #@! TO.N,Net-(D1-Pad2)*
X140208000Y-94225000D02*
X139709000Y-93726000D01*
X140208000Y-98552000D02*
X140208000Y-94225000D01*
G04 #@! TO.N,+5V*
X144254000Y-91118000D02*
X150754000Y-91118000D01*
X135636000Y-91703000D02*
X137659000Y-93726000D01*
X135636000Y-91118000D02*
X135636000Y-91703000D01*
X135636000Y-91118000D02*
X144254000Y-91118000D01*
X123150000Y-98931000D02*
X123150000Y-98806000D01*
X123150000Y-93510000D02*
X123150000Y-98806000D01*
X122504000Y-91118000D02*
X135636000Y-91118000D01*
X120754000Y-91114000D02*
X123150000Y-93510000D01*
X114254000Y-91114000D02*
X122500000Y-91114000D01*
X122500000Y-91114000D02*
X122504000Y-91118000D01*
X150754000Y-91118000D02*
X153670000Y-88202000D01*
X126746000Y-52646000D02*
X129600000Y-55500000D01*
X148590000Y-48260000D02*
X127762000Y-48260000D01*
X127762000Y-48260000D02*
X126746000Y-49276000D01*
X126746000Y-49276000D02*
X126746000Y-52646000D01*
X129254000Y-80468000D02*
X135754000Y-80468000D01*
X153670000Y-69042000D02*
X150770000Y-66142000D01*
X153670000Y-88202000D02*
X153670000Y-69042000D01*
X150770000Y-66142000D02*
X144270000Y-66142000D01*
X153670000Y-53340000D02*
X148590000Y-48260000D01*
X153670000Y-69042000D02*
X153670000Y-53340000D01*
X120800000Y-66142000D02*
X114300000Y-66142000D01*
X129254000Y-80468000D02*
X120800000Y-72014000D01*
X120800000Y-72014000D02*
X120800000Y-66142000D01*
X114254000Y-91114000D02*
X111532000Y-88392000D01*
X111532000Y-88392000D02*
X111532000Y-84048000D01*
X115112000Y-80468000D02*
X129254000Y-80468000D01*
X111532000Y-84048000D02*
X115112000Y-80468000D01*
X129600000Y-55500000D02*
X136100000Y-55500000D01*
G04 #@! TO.N,GND*
X147320000Y-100468000D02*
X144918000Y-102870000D01*
X147320000Y-98298000D02*
X147320000Y-100468000D01*
X125650000Y-98806000D02*
X125650000Y-101051000D01*
X127469000Y-102870000D02*
X144918000Y-102870000D01*
X125650000Y-101051000D02*
X127469000Y-102870000D01*
G04 #@! TO.N,/teclado_out*
X114300000Y-61142000D02*
X120800000Y-61142000D01*
X120754000Y-98702000D02*
X120650000Y-98806000D01*
X109728000Y-64516000D02*
X109982000Y-64516000D01*
X112856000Y-61642000D02*
X114300000Y-61642000D01*
X109982000Y-64516000D02*
X112856000Y-61642000D01*
X117394000Y-95250000D02*
X120650000Y-98506000D01*
X120650000Y-98506000D02*
X120650000Y-98806000D01*
X111506000Y-95250000D02*
X117394000Y-95250000D01*
X109728000Y-93472000D02*
X111506000Y-95250000D01*
X109728000Y-64516000D02*
X109728000Y-93472000D01*
X129286000Y-58420000D02*
X129794000Y-58928000D01*
X111506000Y-58420000D02*
X129286000Y-58420000D01*
X129794000Y-58928000D02*
X129794000Y-61925200D01*
X109728000Y-64516000D02*
X109728000Y-60198000D01*
X109728000Y-60198000D02*
X111506000Y-58420000D01*
G04 #@! TO.N,Net-(R1-Pad1)*
X150754000Y-83934000D02*
X148354000Y-81534000D01*
X150754000Y-86618000D02*
X150754000Y-83934000D01*
X144254000Y-86618000D02*
X150754000Y-86618000D01*
G04 #@! TO.N,Net-(R1-Pad2)*
X120754000Y-86614000D02*
X114254000Y-86614000D01*
X120754000Y-86614000D02*
X123698000Y-86614000D01*
X123698000Y-86614000D02*
X126492000Y-83820000D01*
X144018000Y-83820000D02*
X146304000Y-81534000D01*
X126492000Y-83820000D02*
X144018000Y-83820000D01*
D19*
X139963000Y-75193000D02*
X146304000Y-81534000D01*
X139963000Y-71526400D02*
X139963000Y-75193000D01*
D18*
G04 #@! TO.N,Net-(R2-Pad2)*
X129254000Y-75968000D02*
X136166000Y-75968000D01*
X136166000Y-75968000D02*
X135754000Y-75968000D01*
X137913000Y-73555000D02*
X137913000Y-71526400D01*
X135500000Y-75968000D02*
X137913000Y-73555000D01*
D19*
X137913000Y-66455400D02*
X137922000Y-66446400D01*
X137913000Y-71526400D02*
X137913000Y-66455400D01*
D18*
G04 #@! TO.N,Net-(R3-Pad2)*
X134348000Y-62036000D02*
X134366000Y-62054000D01*
X139972000Y-61430000D02*
X139972000Y-62230000D01*
X139236990Y-60694990D02*
X139972000Y-61430000D01*
X135725010Y-60694990D02*
X139236990Y-60694990D01*
X134366000Y-62054000D02*
X135725010Y-60694990D01*
X144270000Y-61642000D02*
X150770000Y-61642000D01*
X143682000Y-62230000D02*
X144270000Y-61642000D01*
X139972000Y-62230000D02*
X143682000Y-62230000D01*
X139972000Y-66446400D02*
X139972000Y-62230000D01*
G04 #@! TO.N,Net-(R4-Pad2)*
X134348000Y-64086000D02*
X134366000Y-64104000D01*
X132091010Y-61710990D02*
X135382000Y-58420000D01*
X135382000Y-58420000D02*
X138938000Y-58420000D01*
X138938000Y-58420000D02*
X140208000Y-57150000D01*
X140208000Y-55108000D02*
X136100000Y-51000000D01*
X140208000Y-57150000D02*
X140208000Y-55108000D01*
X136100000Y-51000000D02*
X129600000Y-51000000D01*
X134237200Y-63975200D02*
X134366000Y-64104000D01*
X132091010Y-63862590D02*
X131978400Y-63975200D01*
X129794000Y-63975200D02*
X131978400Y-63975200D01*
X132091010Y-61710990D02*
X132091010Y-63862590D01*
X131978400Y-63975200D02*
X134237200Y-63975200D01*
G04 #@! TO.N,Net-(D2-Pad2)*
X143764000Y-96861000D02*
X145375000Y-95250000D01*
X143764000Y-97536000D02*
X143764000Y-96861000D01*
X149860000Y-97025208D02*
X149860000Y-98298000D01*
X148084792Y-95250000D02*
X149860000Y-97025208D01*
X145375000Y-95250000D02*
X148084792Y-95250000D01*
G04 #@! TO.N,Net-(J1-Pad4)*
X142733990Y-100616010D02*
X128810010Y-100616010D01*
X143764000Y-99586000D02*
X142733990Y-100616010D01*
X128150000Y-99956000D02*
X128150000Y-98806000D01*
X128810010Y-100616010D02*
X128150000Y-99956000D01*
G04 #@! TD*
D20*
G04 #@! TO.N,GND*
G36*
X159385000Y-104775594D02*
X105537561Y-105028399D01*
X105790447Y-47370405D01*
X126256289Y-47273868D01*
X125622793Y-47907364D01*
X125475669Y-48005669D01*
X125086233Y-48588503D01*
X124984000Y-49102461D01*
X124949481Y-49276000D01*
X124984000Y-49449538D01*
X124984001Y-52472458D01*
X124949481Y-52646000D01*
X125045159Y-53127000D01*
X125086234Y-53333498D01*
X125475670Y-53916331D01*
X125622790Y-54014634D01*
X127473000Y-55864844D01*
X127473000Y-55923087D01*
X127777412Y-56658000D01*
X111679539Y-56658000D01*
X111506000Y-56623481D01*
X111332461Y-56658000D01*
X110818502Y-56760233D01*
X110235669Y-57149669D01*
X110137367Y-57296789D01*
X108604791Y-58829366D01*
X108457670Y-58927669D01*
X108191275Y-59326358D01*
X108068234Y-59510502D01*
X107931481Y-60198000D01*
X107966001Y-60371542D01*
X107966000Y-64342461D01*
X107931481Y-64516000D01*
X107966000Y-64689538D01*
X107966001Y-93298458D01*
X107931481Y-93472000D01*
X108032464Y-93979670D01*
X108068234Y-94159498D01*
X108457670Y-94742331D01*
X108604791Y-94840634D01*
X110137366Y-96373210D01*
X110235669Y-96520331D01*
X110818502Y-96909767D01*
X111319798Y-97009481D01*
X111506000Y-97046519D01*
X111679539Y-97012000D01*
X116664157Y-97012000D01*
X118500921Y-98848765D01*
X118500921Y-100106000D01*
X118588389Y-100545733D01*
X118837478Y-100918522D01*
X119210267Y-101167611D01*
X119650000Y-101255079D01*
X121650000Y-101255079D01*
X122089733Y-101167611D01*
X122268328Y-101048278D01*
X122360087Y-101109590D01*
X123190000Y-101274670D01*
X124019914Y-101109590D01*
X124723481Y-100639481D01*
X124846899Y-100454773D01*
X125221645Y-100665144D01*
X125349566Y-100696124D01*
X125603000Y-100576777D01*
X125603000Y-98933000D01*
X125583000Y-98933000D01*
X125583000Y-98679000D01*
X125603000Y-98679000D01*
X125603000Y-97035223D01*
X125349566Y-96915876D01*
X125221645Y-96946856D01*
X124912000Y-97120681D01*
X124912000Y-93683539D01*
X124946519Y-93510000D01*
X124821204Y-92880000D01*
X134303307Y-92880000D01*
X134365669Y-92973331D01*
X134512792Y-93071635D01*
X136013822Y-94572666D01*
X136041419Y-94711405D01*
X136344701Y-95165299D01*
X136798595Y-95468581D01*
X137333999Y-95575079D01*
X137984001Y-95575079D01*
X138446001Y-95483182D01*
X138446000Y-96502921D01*
X136768000Y-96502921D01*
X136328267Y-96590389D01*
X136029527Y-96790000D01*
X132070322Y-96790000D01*
X131639913Y-96502410D01*
X130810000Y-96337330D01*
X129980086Y-96502410D01*
X129540000Y-96796467D01*
X129099913Y-96502410D01*
X128270000Y-96337330D01*
X127440086Y-96502410D01*
X126736519Y-96972519D01*
X126613101Y-97157227D01*
X126238355Y-96946856D01*
X126110434Y-96915876D01*
X125857000Y-97035223D01*
X125857000Y-98679000D01*
X125877000Y-98679000D01*
X125877000Y-98933000D01*
X125857000Y-98933000D01*
X125857000Y-100576777D01*
X126110434Y-100696124D01*
X126238355Y-100665144D01*
X126468806Y-100535776D01*
X126490233Y-100643497D01*
X126879669Y-101226331D01*
X127026793Y-101324636D01*
X127441374Y-101739217D01*
X127539679Y-101886341D01*
X128122512Y-102275777D01*
X128636471Y-102378010D01*
X128636472Y-102378010D01*
X128810009Y-102412529D01*
X128983546Y-102378010D01*
X142560453Y-102378010D01*
X142733990Y-102412529D01*
X142907527Y-102378010D01*
X142907529Y-102378010D01*
X143421488Y-102275777D01*
X144004321Y-101886341D01*
X144102626Y-101739217D01*
X144610665Y-101231178D01*
X144749405Y-101203581D01*
X145203299Y-100900299D01*
X145506581Y-100446405D01*
X145613079Y-99911001D01*
X145613079Y-99260999D01*
X145506581Y-98725595D01*
X145411804Y-98583750D01*
X145785000Y-98583750D01*
X145785000Y-99324310D01*
X145881673Y-99557699D01*
X146060302Y-99736327D01*
X146293691Y-99833000D01*
X147034250Y-99833000D01*
X147193000Y-99674250D01*
X147193000Y-98425000D01*
X145943750Y-98425000D01*
X145785000Y-98583750D01*
X145411804Y-98583750D01*
X145396602Y-98561000D01*
X145506581Y-98396405D01*
X145613079Y-97861001D01*
X145613079Y-97503764D01*
X145785000Y-97331843D01*
X145785000Y-98012250D01*
X145943750Y-98171000D01*
X147193000Y-98171000D01*
X147193000Y-98151000D01*
X147447000Y-98151000D01*
X147447000Y-98171000D01*
X147467000Y-98171000D01*
X147467000Y-98425000D01*
X147447000Y-98425000D01*
X147447000Y-99674250D01*
X147605750Y-99833000D01*
X148346309Y-99833000D01*
X148475060Y-99779670D01*
X148711797Y-100016407D01*
X149456805Y-100325000D01*
X150263195Y-100325000D01*
X151008203Y-100016407D01*
X151578407Y-99446203D01*
X151887000Y-98701195D01*
X151887000Y-97894805D01*
X151622000Y-97255040D01*
X151622000Y-97198744D01*
X151656519Y-97025207D01*
X151609733Y-96790000D01*
X151519767Y-96337710D01*
X151130331Y-95754877D01*
X150983210Y-95656574D01*
X149453428Y-94126793D01*
X149355123Y-93979669D01*
X148772290Y-93590233D01*
X148258331Y-93488000D01*
X148258329Y-93488000D01*
X148084792Y-93453481D01*
X147911255Y-93488000D01*
X145548536Y-93488000D01*
X145374999Y-93453481D01*
X145201462Y-93488000D01*
X145201461Y-93488000D01*
X144687502Y-93590233D01*
X144104669Y-93979669D01*
X144006366Y-94126790D01*
X142640791Y-95492366D01*
X142493670Y-95590669D01*
X142104233Y-96173502D01*
X142002000Y-96687461D01*
X141970000Y-96848336D01*
X141970000Y-94398539D01*
X142004519Y-94225000D01*
X141936166Y-93881368D01*
X141867767Y-93537502D01*
X141478331Y-92954669D01*
X141366581Y-92880000D01*
X143007969Y-92880000D01*
X143049152Y-92921183D01*
X143830913Y-93245000D01*
X144677087Y-93245000D01*
X145458848Y-92921183D01*
X145500031Y-92880000D01*
X149507969Y-92880000D01*
X149549152Y-92921183D01*
X150330913Y-93245000D01*
X151177087Y-93245000D01*
X151958848Y-92921183D01*
X152557183Y-92322848D01*
X152881000Y-91541087D01*
X152881000Y-91482843D01*
X154793210Y-89570634D01*
X154940331Y-89472331D01*
X155329767Y-88889498D01*
X155432000Y-88375539D01*
X155432000Y-88375538D01*
X155466519Y-88202000D01*
X155432000Y-88028461D01*
X155432000Y-69215536D01*
X155466519Y-69041999D01*
X155432000Y-68868461D01*
X155432000Y-53513539D01*
X155466519Y-53340000D01*
X155329767Y-52652502D01*
X154940331Y-52069669D01*
X154793210Y-51971366D01*
X149983789Y-47161946D01*
X159385000Y-47117601D01*
X159385000Y-104775594D01*
X159385000Y-104775594D01*
G37*
X159385000Y-104775594D02*
X105537561Y-105028399D01*
X105790447Y-47370405D01*
X126256289Y-47273868D01*
X125622793Y-47907364D01*
X125475669Y-48005669D01*
X125086233Y-48588503D01*
X124984000Y-49102461D01*
X124949481Y-49276000D01*
X124984000Y-49449538D01*
X124984001Y-52472458D01*
X124949481Y-52646000D01*
X125045159Y-53127000D01*
X125086234Y-53333498D01*
X125475670Y-53916331D01*
X125622790Y-54014634D01*
X127473000Y-55864844D01*
X127473000Y-55923087D01*
X127777412Y-56658000D01*
X111679539Y-56658000D01*
X111506000Y-56623481D01*
X111332461Y-56658000D01*
X110818502Y-56760233D01*
X110235669Y-57149669D01*
X110137367Y-57296789D01*
X108604791Y-58829366D01*
X108457670Y-58927669D01*
X108191275Y-59326358D01*
X108068234Y-59510502D01*
X107931481Y-60198000D01*
X107966001Y-60371542D01*
X107966000Y-64342461D01*
X107931481Y-64516000D01*
X107966000Y-64689538D01*
X107966001Y-93298458D01*
X107931481Y-93472000D01*
X108032464Y-93979670D01*
X108068234Y-94159498D01*
X108457670Y-94742331D01*
X108604791Y-94840634D01*
X110137366Y-96373210D01*
X110235669Y-96520331D01*
X110818502Y-96909767D01*
X111319798Y-97009481D01*
X111506000Y-97046519D01*
X111679539Y-97012000D01*
X116664157Y-97012000D01*
X118500921Y-98848765D01*
X118500921Y-100106000D01*
X118588389Y-100545733D01*
X118837478Y-100918522D01*
X119210267Y-101167611D01*
X119650000Y-101255079D01*
X121650000Y-101255079D01*
X122089733Y-101167611D01*
X122268328Y-101048278D01*
X122360087Y-101109590D01*
X123190000Y-101274670D01*
X124019914Y-101109590D01*
X124723481Y-100639481D01*
X124846899Y-100454773D01*
X125221645Y-100665144D01*
X125349566Y-100696124D01*
X125603000Y-100576777D01*
X125603000Y-98933000D01*
X125583000Y-98933000D01*
X125583000Y-98679000D01*
X125603000Y-98679000D01*
X125603000Y-97035223D01*
X125349566Y-96915876D01*
X125221645Y-96946856D01*
X124912000Y-97120681D01*
X124912000Y-93683539D01*
X124946519Y-93510000D01*
X124821204Y-92880000D01*
X134303307Y-92880000D01*
X134365669Y-92973331D01*
X134512792Y-93071635D01*
X136013822Y-94572666D01*
X136041419Y-94711405D01*
X136344701Y-95165299D01*
X136798595Y-95468581D01*
X137333999Y-95575079D01*
X137984001Y-95575079D01*
X138446001Y-95483182D01*
X138446000Y-96502921D01*
X136768000Y-96502921D01*
X136328267Y-96590389D01*
X136029527Y-96790000D01*
X132070322Y-96790000D01*
X131639913Y-96502410D01*
X130810000Y-96337330D01*
X129980086Y-96502410D01*
X129540000Y-96796467D01*
X129099913Y-96502410D01*
X128270000Y-96337330D01*
X127440086Y-96502410D01*
X126736519Y-96972519D01*
X126613101Y-97157227D01*
X126238355Y-96946856D01*
X126110434Y-96915876D01*
X125857000Y-97035223D01*
X125857000Y-98679000D01*
X125877000Y-98679000D01*
X125877000Y-98933000D01*
X125857000Y-98933000D01*
X125857000Y-100576777D01*
X126110434Y-100696124D01*
X126238355Y-100665144D01*
X126468806Y-100535776D01*
X126490233Y-100643497D01*
X126879669Y-101226331D01*
X127026793Y-101324636D01*
X127441374Y-101739217D01*
X127539679Y-101886341D01*
X128122512Y-102275777D01*
X128636471Y-102378010D01*
X128636472Y-102378010D01*
X128810009Y-102412529D01*
X128983546Y-102378010D01*
X142560453Y-102378010D01*
X142733990Y-102412529D01*
X142907527Y-102378010D01*
X142907529Y-102378010D01*
X143421488Y-102275777D01*
X144004321Y-101886341D01*
X144102626Y-101739217D01*
X144610665Y-101231178D01*
X144749405Y-101203581D01*
X145203299Y-100900299D01*
X145506581Y-100446405D01*
X145613079Y-99911001D01*
X145613079Y-99260999D01*
X145506581Y-98725595D01*
X145411804Y-98583750D01*
X145785000Y-98583750D01*
X145785000Y-99324310D01*
X145881673Y-99557699D01*
X146060302Y-99736327D01*
X146293691Y-99833000D01*
X147034250Y-99833000D01*
X147193000Y-99674250D01*
X147193000Y-98425000D01*
X145943750Y-98425000D01*
X145785000Y-98583750D01*
X145411804Y-98583750D01*
X145396602Y-98561000D01*
X145506581Y-98396405D01*
X145613079Y-97861001D01*
X145613079Y-97503764D01*
X145785000Y-97331843D01*
X145785000Y-98012250D01*
X145943750Y-98171000D01*
X147193000Y-98171000D01*
X147193000Y-98151000D01*
X147447000Y-98151000D01*
X147447000Y-98171000D01*
X147467000Y-98171000D01*
X147467000Y-98425000D01*
X147447000Y-98425000D01*
X147447000Y-99674250D01*
X147605750Y-99833000D01*
X148346309Y-99833000D01*
X148475060Y-99779670D01*
X148711797Y-100016407D01*
X149456805Y-100325000D01*
X150263195Y-100325000D01*
X151008203Y-100016407D01*
X151578407Y-99446203D01*
X151887000Y-98701195D01*
X151887000Y-97894805D01*
X151622000Y-97255040D01*
X151622000Y-97198744D01*
X151656519Y-97025207D01*
X151609733Y-96790000D01*
X151519767Y-96337710D01*
X151130331Y-95754877D01*
X150983210Y-95656574D01*
X149453428Y-94126793D01*
X149355123Y-93979669D01*
X148772290Y-93590233D01*
X148258331Y-93488000D01*
X148258329Y-93488000D01*
X148084792Y-93453481D01*
X147911255Y-93488000D01*
X145548536Y-93488000D01*
X145374999Y-93453481D01*
X145201462Y-93488000D01*
X145201461Y-93488000D01*
X144687502Y-93590233D01*
X144104669Y-93979669D01*
X144006366Y-94126790D01*
X142640791Y-95492366D01*
X142493670Y-95590669D01*
X142104233Y-96173502D01*
X142002000Y-96687461D01*
X141970000Y-96848336D01*
X141970000Y-94398539D01*
X142004519Y-94225000D01*
X141936166Y-93881368D01*
X141867767Y-93537502D01*
X141478331Y-92954669D01*
X141366581Y-92880000D01*
X143007969Y-92880000D01*
X143049152Y-92921183D01*
X143830913Y-93245000D01*
X144677087Y-93245000D01*
X145458848Y-92921183D01*
X145500031Y-92880000D01*
X149507969Y-92880000D01*
X149549152Y-92921183D01*
X150330913Y-93245000D01*
X151177087Y-93245000D01*
X151958848Y-92921183D01*
X152557183Y-92322848D01*
X152881000Y-91541087D01*
X152881000Y-91482843D01*
X154793210Y-89570634D01*
X154940331Y-89472331D01*
X155329767Y-88889498D01*
X155432000Y-88375539D01*
X155432000Y-88375538D01*
X155466519Y-88202000D01*
X155432000Y-88028461D01*
X155432000Y-69215536D01*
X155466519Y-69041999D01*
X155432000Y-68868461D01*
X155432000Y-53513539D01*
X155466519Y-53340000D01*
X155329767Y-52652502D01*
X154940331Y-52069669D01*
X154793210Y-51971366D01*
X149983789Y-47161946D01*
X159385000Y-47117601D01*
X159385000Y-104775594D01*
G36*
X142127000Y-86194913D02*
X142127000Y-87041087D01*
X142450817Y-87822848D01*
X143049152Y-88421183D01*
X143830913Y-88745000D01*
X144677087Y-88745000D01*
X145458848Y-88421183D01*
X145500031Y-88380000D01*
X149507969Y-88380000D01*
X149549152Y-88421183D01*
X150330913Y-88745000D01*
X150635157Y-88745000D01*
X150389157Y-88991000D01*
X150330913Y-88991000D01*
X149549152Y-89314817D01*
X149507969Y-89356000D01*
X145500031Y-89356000D01*
X145458848Y-89314817D01*
X144677087Y-88991000D01*
X143830913Y-88991000D01*
X143049152Y-89314817D01*
X143007969Y-89356000D01*
X135809538Y-89356000D01*
X135636000Y-89321481D01*
X135462461Y-89356000D01*
X122693648Y-89356000D01*
X122673539Y-89352000D01*
X122673537Y-89352000D01*
X122500000Y-89317481D01*
X122326463Y-89352000D01*
X122000031Y-89352000D01*
X121958848Y-89310817D01*
X121177087Y-88987000D01*
X120330913Y-88987000D01*
X119549152Y-89310817D01*
X119507969Y-89352000D01*
X115500031Y-89352000D01*
X115458848Y-89310817D01*
X114677087Y-88987000D01*
X114618844Y-88987000D01*
X114372844Y-88741000D01*
X114677087Y-88741000D01*
X115458848Y-88417183D01*
X115500031Y-88376000D01*
X119507969Y-88376000D01*
X119549152Y-88417183D01*
X120330913Y-88741000D01*
X121177087Y-88741000D01*
X121958848Y-88417183D01*
X122000031Y-88376000D01*
X123524463Y-88376000D01*
X123698000Y-88410519D01*
X123871537Y-88376000D01*
X123871539Y-88376000D01*
X124385498Y-88273767D01*
X124968331Y-87884331D01*
X125066636Y-87737207D01*
X127221844Y-85582000D01*
X142380878Y-85582000D01*
X142127000Y-86194913D01*
X142127000Y-86194913D01*
G37*
X142127000Y-86194913D02*
X142127000Y-87041087D01*
X142450817Y-87822848D01*
X143049152Y-88421183D01*
X143830913Y-88745000D01*
X144677087Y-88745000D01*
X145458848Y-88421183D01*
X145500031Y-88380000D01*
X149507969Y-88380000D01*
X149549152Y-88421183D01*
X150330913Y-88745000D01*
X150635157Y-88745000D01*
X150389157Y-88991000D01*
X150330913Y-88991000D01*
X149549152Y-89314817D01*
X149507969Y-89356000D01*
X145500031Y-89356000D01*
X145458848Y-89314817D01*
X144677087Y-88991000D01*
X143830913Y-88991000D01*
X143049152Y-89314817D01*
X143007969Y-89356000D01*
X135809538Y-89356000D01*
X135636000Y-89321481D01*
X135462461Y-89356000D01*
X122693648Y-89356000D01*
X122673539Y-89352000D01*
X122673537Y-89352000D01*
X122500000Y-89317481D01*
X122326463Y-89352000D01*
X122000031Y-89352000D01*
X121958848Y-89310817D01*
X121177087Y-88987000D01*
X120330913Y-88987000D01*
X119549152Y-89310817D01*
X119507969Y-89352000D01*
X115500031Y-89352000D01*
X115458848Y-89310817D01*
X114677087Y-88987000D01*
X114618844Y-88987000D01*
X114372844Y-88741000D01*
X114677087Y-88741000D01*
X115458848Y-88417183D01*
X115500031Y-88376000D01*
X119507969Y-88376000D01*
X119549152Y-88417183D01*
X120330913Y-88741000D01*
X121177087Y-88741000D01*
X121958848Y-88417183D01*
X122000031Y-88376000D01*
X123524463Y-88376000D01*
X123698000Y-88410519D01*
X123871537Y-88376000D01*
X123871539Y-88376000D01*
X124385498Y-88273767D01*
X124968331Y-87884331D01*
X125066636Y-87737207D01*
X127221844Y-85582000D01*
X142380878Y-85582000D01*
X142127000Y-86194913D01*
G36*
X149565152Y-63445183D02*
X150346913Y-63769000D01*
X151193087Y-63769000D01*
X151908000Y-63472872D01*
X151908000Y-64311128D01*
X151193087Y-64015000D01*
X150346913Y-64015000D01*
X149565152Y-64338817D01*
X149523969Y-64380000D01*
X145516031Y-64380000D01*
X145474848Y-64338817D01*
X144693087Y-64015000D01*
X143846913Y-64015000D01*
X143065152Y-64338817D01*
X142466817Y-64937152D01*
X142143000Y-65718913D01*
X142143000Y-66565087D01*
X142466817Y-67346848D01*
X143065152Y-67945183D01*
X143846913Y-68269000D01*
X144693087Y-68269000D01*
X145474848Y-67945183D01*
X145516031Y-67904000D01*
X149523969Y-67904000D01*
X149565152Y-67945183D01*
X150346913Y-68269000D01*
X150405157Y-68269000D01*
X151908001Y-69771845D01*
X151908000Y-82585939D01*
X151877213Y-82565368D01*
X149999178Y-80687334D01*
X149971581Y-80548595D01*
X149668299Y-80094701D01*
X149214405Y-79791419D01*
X148679001Y-79684921D01*
X148028999Y-79684921D01*
X147493595Y-79791419D01*
X147329000Y-79901398D01*
X147164405Y-79791419D01*
X146801465Y-79719226D01*
X141598000Y-74515762D01*
X141598000Y-72424233D01*
X141687079Y-71976401D01*
X141687079Y-71076399D01*
X141580581Y-70540995D01*
X141277299Y-70087101D01*
X140823405Y-69783819D01*
X140288001Y-69677321D01*
X139637999Y-69677321D01*
X139548000Y-69695223D01*
X139548000Y-68275787D01*
X139646999Y-68295479D01*
X140297001Y-68295479D01*
X140832405Y-68188981D01*
X141286299Y-67885699D01*
X141589581Y-67431805D01*
X141696079Y-66896401D01*
X141696079Y-66810580D01*
X141734000Y-66619939D01*
X141734000Y-63992000D01*
X143508463Y-63992000D01*
X143682000Y-64026519D01*
X143855537Y-63992000D01*
X143855539Y-63992000D01*
X144369498Y-63889767D01*
X144550239Y-63769000D01*
X144693087Y-63769000D01*
X145474848Y-63445183D01*
X145516031Y-63404000D01*
X149523969Y-63404000D01*
X149565152Y-63445183D01*
X149565152Y-63445183D01*
G37*
X149565152Y-63445183D02*
X150346913Y-63769000D01*
X151193087Y-63769000D01*
X151908000Y-63472872D01*
X151908000Y-64311128D01*
X151193087Y-64015000D01*
X150346913Y-64015000D01*
X149565152Y-64338817D01*
X149523969Y-64380000D01*
X145516031Y-64380000D01*
X145474848Y-64338817D01*
X144693087Y-64015000D01*
X143846913Y-64015000D01*
X143065152Y-64338817D01*
X142466817Y-64937152D01*
X142143000Y-65718913D01*
X142143000Y-66565087D01*
X142466817Y-67346848D01*
X143065152Y-67945183D01*
X143846913Y-68269000D01*
X144693087Y-68269000D01*
X145474848Y-67945183D01*
X145516031Y-67904000D01*
X149523969Y-67904000D01*
X149565152Y-67945183D01*
X150346913Y-68269000D01*
X150405157Y-68269000D01*
X151908001Y-69771845D01*
X151908000Y-82585939D01*
X151877213Y-82565368D01*
X149999178Y-80687334D01*
X149971581Y-80548595D01*
X149668299Y-80094701D01*
X149214405Y-79791419D01*
X148679001Y-79684921D01*
X148028999Y-79684921D01*
X147493595Y-79791419D01*
X147329000Y-79901398D01*
X147164405Y-79791419D01*
X146801465Y-79719226D01*
X141598000Y-74515762D01*
X141598000Y-72424233D01*
X141687079Y-71976401D01*
X141687079Y-71076399D01*
X141580581Y-70540995D01*
X141277299Y-70087101D01*
X140823405Y-69783819D01*
X140288001Y-69677321D01*
X139637999Y-69677321D01*
X139548000Y-69695223D01*
X139548000Y-68275787D01*
X139646999Y-68295479D01*
X140297001Y-68295479D01*
X140832405Y-68188981D01*
X141286299Y-67885699D01*
X141589581Y-67431805D01*
X141696079Y-66896401D01*
X141696079Y-66810580D01*
X141734000Y-66619939D01*
X141734000Y-63992000D01*
X143508463Y-63992000D01*
X143682000Y-64026519D01*
X143855537Y-63992000D01*
X143855539Y-63992000D01*
X144369498Y-63889767D01*
X144550239Y-63769000D01*
X144693087Y-63769000D01*
X145474848Y-63445183D01*
X145516031Y-63404000D01*
X149523969Y-63404000D01*
X149565152Y-63445183D01*
G36*
X128032001Y-61162418D02*
X127944921Y-61600199D01*
X127944921Y-62250201D01*
X128051419Y-62785605D01*
X128161398Y-62950200D01*
X128051419Y-63114795D01*
X127944921Y-63650199D01*
X127944921Y-64300201D01*
X128051419Y-64835605D01*
X128354701Y-65289499D01*
X128808595Y-65592781D01*
X129343999Y-65699279D01*
X129429820Y-65699279D01*
X129620461Y-65737200D01*
X131804863Y-65737200D01*
X131978400Y-65771719D01*
X132151937Y-65737200D01*
X133459117Y-65737200D01*
X133915999Y-65828079D01*
X134001820Y-65828079D01*
X134366000Y-65900519D01*
X134730180Y-65828079D01*
X134816001Y-65828079D01*
X135351405Y-65721581D01*
X135805299Y-65418299D01*
X136108581Y-64964405D01*
X136215079Y-64429001D01*
X136215079Y-63778999D01*
X136108581Y-63243595D01*
X135998602Y-63079000D01*
X136108581Y-62914405D01*
X136136178Y-62775666D01*
X136454854Y-62456990D01*
X138210001Y-62456990D01*
X138210000Y-64597321D01*
X137596999Y-64597321D01*
X137061595Y-64703819D01*
X136607701Y-65007101D01*
X136304419Y-65460995D01*
X136197921Y-65996399D01*
X136197921Y-66896401D01*
X136278001Y-67298991D01*
X136278000Y-70628566D01*
X136188921Y-71076399D01*
X136188921Y-71162225D01*
X136151001Y-71352861D01*
X136151000Y-72825156D01*
X135135157Y-73841000D01*
X135076913Y-73841000D01*
X134295152Y-74164817D01*
X134253969Y-74206000D01*
X130246031Y-74206000D01*
X130204848Y-74164817D01*
X129423087Y-73841000D01*
X128576913Y-73841000D01*
X127795152Y-74164817D01*
X127196817Y-74763152D01*
X126873000Y-75544913D01*
X126873000Y-75595156D01*
X122562000Y-71284157D01*
X122562000Y-67388031D01*
X122603183Y-67346848D01*
X122927000Y-66565087D01*
X122927000Y-65718913D01*
X122603183Y-64937152D01*
X122004848Y-64338817D01*
X121223087Y-64015000D01*
X120376913Y-64015000D01*
X119595152Y-64338817D01*
X119553969Y-64380000D01*
X115546031Y-64380000D01*
X115504848Y-64338817D01*
X114723087Y-64015000D01*
X113876913Y-64015000D01*
X113095152Y-64338817D01*
X112496817Y-64937152D01*
X112173000Y-65718913D01*
X112173000Y-66565087D01*
X112496817Y-67346848D01*
X113095152Y-67945183D01*
X113876913Y-68269000D01*
X114723087Y-68269000D01*
X115504848Y-67945183D01*
X115546031Y-67904000D01*
X119038001Y-67904000D01*
X119038000Y-71840462D01*
X119003481Y-72014000D01*
X119038000Y-72187537D01*
X119038000Y-72187538D01*
X119140233Y-72701497D01*
X119529669Y-73284331D01*
X119676793Y-73382636D01*
X125000156Y-78706000D01*
X115285539Y-78706000D01*
X115112000Y-78671481D01*
X114424502Y-78808233D01*
X113988788Y-79099367D01*
X113988787Y-79099368D01*
X113841669Y-79197669D01*
X113743368Y-79344787D01*
X111490000Y-81598156D01*
X111490000Y-65499843D01*
X113413002Y-63576841D01*
X113876913Y-63769000D01*
X114723087Y-63769000D01*
X115504848Y-63445183D01*
X116046031Y-62904000D01*
X119053969Y-62904000D01*
X119595152Y-63445183D01*
X120376913Y-63769000D01*
X121223087Y-63769000D01*
X122004848Y-63445183D01*
X122603183Y-62846848D01*
X122927000Y-62065087D01*
X122927000Y-61218913D01*
X122603183Y-60437152D01*
X122348031Y-60182000D01*
X128032000Y-60182000D01*
X128032001Y-61162418D01*
X128032001Y-61162418D01*
G37*
X128032001Y-61162418D02*
X127944921Y-61600199D01*
X127944921Y-62250201D01*
X128051419Y-62785605D01*
X128161398Y-62950200D01*
X128051419Y-63114795D01*
X127944921Y-63650199D01*
X127944921Y-64300201D01*
X128051419Y-64835605D01*
X128354701Y-65289499D01*
X128808595Y-65592781D01*
X129343999Y-65699279D01*
X129429820Y-65699279D01*
X129620461Y-65737200D01*
X131804863Y-65737200D01*
X131978400Y-65771719D01*
X132151937Y-65737200D01*
X133459117Y-65737200D01*
X133915999Y-65828079D01*
X134001820Y-65828079D01*
X134366000Y-65900519D01*
X134730180Y-65828079D01*
X134816001Y-65828079D01*
X135351405Y-65721581D01*
X135805299Y-65418299D01*
X136108581Y-64964405D01*
X136215079Y-64429001D01*
X136215079Y-63778999D01*
X136108581Y-63243595D01*
X135998602Y-63079000D01*
X136108581Y-62914405D01*
X136136178Y-62775666D01*
X136454854Y-62456990D01*
X138210001Y-62456990D01*
X138210000Y-64597321D01*
X137596999Y-64597321D01*
X137061595Y-64703819D01*
X136607701Y-65007101D01*
X136304419Y-65460995D01*
X136197921Y-65996399D01*
X136197921Y-66896401D01*
X136278001Y-67298991D01*
X136278000Y-70628566D01*
X136188921Y-71076399D01*
X136188921Y-71162225D01*
X136151001Y-71352861D01*
X136151000Y-72825156D01*
X135135157Y-73841000D01*
X135076913Y-73841000D01*
X134295152Y-74164817D01*
X134253969Y-74206000D01*
X130246031Y-74206000D01*
X130204848Y-74164817D01*
X129423087Y-73841000D01*
X128576913Y-73841000D01*
X127795152Y-74164817D01*
X127196817Y-74763152D01*
X126873000Y-75544913D01*
X126873000Y-75595156D01*
X122562000Y-71284157D01*
X122562000Y-67388031D01*
X122603183Y-67346848D01*
X122927000Y-66565087D01*
X122927000Y-65718913D01*
X122603183Y-64937152D01*
X122004848Y-64338817D01*
X121223087Y-64015000D01*
X120376913Y-64015000D01*
X119595152Y-64338817D01*
X119553969Y-64380000D01*
X115546031Y-64380000D01*
X115504848Y-64338817D01*
X114723087Y-64015000D01*
X113876913Y-64015000D01*
X113095152Y-64338817D01*
X112496817Y-64937152D01*
X112173000Y-65718913D01*
X112173000Y-66565087D01*
X112496817Y-67346848D01*
X113095152Y-67945183D01*
X113876913Y-68269000D01*
X114723087Y-68269000D01*
X115504848Y-67945183D01*
X115546031Y-67904000D01*
X119038001Y-67904000D01*
X119038000Y-71840462D01*
X119003481Y-72014000D01*
X119038000Y-72187537D01*
X119038000Y-72187538D01*
X119140233Y-72701497D01*
X119529669Y-73284331D01*
X119676793Y-73382636D01*
X125000156Y-78706000D01*
X115285539Y-78706000D01*
X115112000Y-78671481D01*
X114424502Y-78808233D01*
X113988788Y-79099367D01*
X113988787Y-79099368D01*
X113841669Y-79197669D01*
X113743368Y-79344787D01*
X111490000Y-81598156D01*
X111490000Y-65499843D01*
X113413002Y-63576841D01*
X113876913Y-63769000D01*
X114723087Y-63769000D01*
X115504848Y-63445183D01*
X116046031Y-62904000D01*
X119053969Y-62904000D01*
X119595152Y-63445183D01*
X120376913Y-63769000D01*
X121223087Y-63769000D01*
X122004848Y-63445183D01*
X122603183Y-62846848D01*
X122927000Y-62065087D01*
X122927000Y-61218913D01*
X122603183Y-60437152D01*
X122348031Y-60182000D01*
X128032000Y-60182000D01*
X128032001Y-61162418D01*
G36*
X151908001Y-54069845D02*
X151908001Y-59811128D01*
X151193087Y-59515000D01*
X150346913Y-59515000D01*
X149565152Y-59838817D01*
X149523969Y-59880000D01*
X145516031Y-59880000D01*
X145474848Y-59838817D01*
X144693087Y-59515000D01*
X143846913Y-59515000D01*
X143065152Y-59838817D01*
X142466817Y-60437152D01*
X142454039Y-60468000D01*
X141448351Y-60468000D01*
X141242331Y-60159669D01*
X141095208Y-60061365D01*
X140605626Y-59571783D01*
X140507321Y-59424659D01*
X140458084Y-59391760D01*
X141331210Y-58518634D01*
X141478331Y-58420331D01*
X141867767Y-57837498D01*
X141970000Y-57323539D01*
X141970000Y-57323538D01*
X142004519Y-57150001D01*
X141970000Y-56976464D01*
X141970000Y-55281536D01*
X142004519Y-55107999D01*
X141970000Y-54934461D01*
X141867767Y-54420502D01*
X141478331Y-53837669D01*
X141331210Y-53739366D01*
X138227000Y-50635157D01*
X138227000Y-50576913D01*
X137997147Y-50022000D01*
X147860157Y-50022000D01*
X151908001Y-54069845D01*
X151908001Y-54069845D01*
G37*
X151908001Y-54069845D02*
X151908001Y-59811128D01*
X151193087Y-59515000D01*
X150346913Y-59515000D01*
X149565152Y-59838817D01*
X149523969Y-59880000D01*
X145516031Y-59880000D01*
X145474848Y-59838817D01*
X144693087Y-59515000D01*
X143846913Y-59515000D01*
X143065152Y-59838817D01*
X142466817Y-60437152D01*
X142454039Y-60468000D01*
X141448351Y-60468000D01*
X141242331Y-60159669D01*
X141095208Y-60061365D01*
X140605626Y-59571783D01*
X140507321Y-59424659D01*
X140458084Y-59391760D01*
X141331210Y-58518634D01*
X141478331Y-58420331D01*
X141867767Y-57837498D01*
X141970000Y-57323539D01*
X141970000Y-57323538D01*
X142004519Y-57150001D01*
X141970000Y-56976464D01*
X141970000Y-55281536D01*
X142004519Y-55107999D01*
X141970000Y-54934461D01*
X141867767Y-54420502D01*
X141478331Y-53837669D01*
X141331210Y-53739366D01*
X138227000Y-50635157D01*
X138227000Y-50576913D01*
X137997147Y-50022000D01*
X147860157Y-50022000D01*
X151908001Y-54069845D01*
G04 #@! TD*
M02*
