M48
;DRILL file {KiCad 5.0.2+dfsg1-1} date jue 29 ago 2019 13:22:50 -03
;FORMAT={-:-/ absolute / metric / decimal}
FMAT,2
METRIC,TZ
T1C0.900
T2C1.100
T3C1.200
T4C1.500
%
G90
G05
T1
X147.32Y-98.298
X149.86Y-98.298
X137.668Y-98.552
X140.208Y-98.552
T2
X114.254Y-86.614
X114.254Y-91.114
X120.754Y-86.614
X120.754Y-91.114
X129.6Y-51.
X129.6Y-55.5
X136.1Y-51.
X136.1Y-55.5
X144.27Y-61.642
X144.27Y-66.142
X150.77Y-61.642
X150.77Y-66.142
X114.3Y-61.642
X114.3Y-66.142
X120.8Y-61.642
X120.8Y-66.142
X129.Y-75.968
X129.Y-80.468
X135.5Y-75.968
X135.5Y-80.468
X144.254Y-86.618
X144.254Y-91.118
X150.754Y-86.618
X150.754Y-91.118
T3
X120.65Y-98.806
X123.19Y-98.806
X125.73Y-98.806
X128.27Y-98.806
X130.81Y-98.806
T4
X109.728Y-99.06
X117.602Y-72.898
X118.Y-52.
X132.Y-68.
X132.Y-87.
X146.304Y-73.66
X147.Y-52.
X155.956Y-99.06
T0
M30
